<svg xmlns="http://www.w3.org/2000/svg" viewBox="0 0 131.27 146.03"><defs><style>.cls-1{fill:#af1d1f;}.cls-2{fill:#303880;}</style></defs><g id="Calque_2" data-name="Calque 2"><g id="Calque_1-2" data-name="Calque 1"><path class="cls-1" d="M15.36,16.42H65.79c1.11,0,2.14.09,3.22.13l1.59.08.8,0,.79.12A44.46,44.46,0,0,1,78.46,18l1.55.39.77.2c.26.08.5.18.75.27l3,1.1.75.27.72.35,1.44.69a26.27,26.27,0,0,1,2.84,1.47L93,24.38c.92.55,1.73,1.26,2.59,1.87a50.46,50.46,0,0,1,4.86,4.15c.75.75,1.44,1.57,2.17,2.35l1.07,1.18c.34.41.65.85,1,1.27l1.91,2.56,1.66,2.73c.27.46.57.91.82,1.37l.69,1.44c.46,1,1,1.91,1.37,2.89l1.1,3c.17.5.39,1,.52,1.51l.4,1.55c.25,1,.56,2,.77,3.1l.48,3.16c.07.52.18,1.05.22,1.58l.08,1.59.16,3.2V146l16.42-15.36V64.88l-.19-4.25L131,58.5c0-.71-.18-1.41-.28-2.12L130,52.15c-.27-1.4-.67-2.78-1-4.16l-.55-2.08c-.18-.69-.46-1.35-.69-2l-1.48-4c-.57-1.31-1.21-2.59-1.82-3.87l-.95-1.93c-.34-.62-.72-1.23-1.08-1.84l-2.24-3.65-2.55-3.44c-.43-.56-.85-1.14-1.3-1.69l-1.43-1.59c-1-1.05-1.9-2.13-2.91-3.13a67.47,67.47,0,0,0-6.49-5.56c-1.15-.83-2.25-1.75-3.47-2.49L98.38,8.44a40.06,40.06,0,0,0-3.8-2l-1.93-.93-1-.45-1-.38-4-1.47c-.34-.12-.67-.25-1-.36l-1-.27-2.07-.54A60.21,60.21,0,0,0,74.12.49L73.06.33,72,.27,69.86.15,67.73.05,66.66,0c-.37,0-.57,0-.87,0H0Z"/><path class="cls-2" d="M8.86,23.21H65.79c.59,0,1,0,1.49.05l1.37.07L70,23.4l.68,0,.68.11a39.11,39.11,0,0,1,5.39,1l1.33.34.66.17c.22.06.43.15.65.23l2.57.95.65.23.62.3,1.23.6a22.43,22.43,0,0,1,2.44,1.25l2.35,1.43c.79.46,1.48,1.08,2.22,1.61a44.27,44.27,0,0,1,4.19,3.56c.65.65,1.23,1.36,1.86,2l.93,1c.29.35.55.73.83,1.09l1.65,2.2,1.42,2.35c.23.4.49.78.71,1.18l.59,1.24c.38.83.81,1.64,1.18,2.48l.93,2.57c.15.44.35.85.46,1.3l.33,1.33c.22.89.49,1.76.67,2.66l.41,2.71c.06.46.16.9.19,1.36l.06,1.38.15,2.76v74.68l3.4,3.24V64.88l-.15-3-.07-1.49c0-.49-.14-1-.21-1.47L110.59,56c-.2-1-.49-1.91-.72-2.88l-.37-1.44c-.11-.48-.33-.93-.48-1.4l-1-2.79c-.4-.9-.86-1.78-1.28-2.68l-.64-1.34c-.23-.43-.51-.85-.76-1.27l-1.54-2.54L102,37.28c-.3-.4-.58-.81-.89-1.19l-1-1.1c-.67-.72-1.31-1.48-2-2.18A47.46,47.46,0,0,0,93.56,29c-.81-.57-1.55-1.23-2.41-1.74l-2.54-1.54A25.28,25.28,0,0,0,86,24.31l-1.34-.64L84,23.34l-.7-.25-2.79-1c-.23-.09-.46-.18-.7-.25l-.72-.19-1.44-.36a42.54,42.54,0,0,0-5.83-1.12L71.06,20l-.75,0-1.48-.08-1.49-.07c-.49,0-1-.06-1.55-.05H12.11Z"/><path class="cls-2" d="M2.4,30H65.79c.26,0,.6,0,.78,0l.57,0,1.16.06,1.15.05.58,0,.57.1a32.77,32.77,0,0,1,4.5.86l1.11.28.56.13.53.2c.72.28,1.43.54,2.15.79l.55.19.51.26,1,.5a15.72,15.72,0,0,1,2,1l2,1.19c.66.38,1.23.91,1.86,1.35a36.72,36.72,0,0,1,3.5,3c.55.54,1,1.14,1.56,1.7l.78.84c.25.3.46.62.69.93.46.61.92,1.23,1.39,1.83s.78,1.32,1.18,2c.2.33.42.65.6,1l.49,1c.32.7.68,1.37,1,2.07s.51,1.44.78,2.16a9.86,9.86,0,0,1,.38,1.08l.28,1.11c.17.74.41,1.47.56,2.22s.21,1.52.33,2.27a10.8,10.8,0,0,1,.17,1.14l0,1.15.13,2.33v68.21l3.4,3.24V64.88l-.14-2.55,0-1.26c0-.42-.12-.83-.18-1.25l-.37-2.49c-.17-.83-.42-1.63-.62-2.44l-.3-1.23c-.1-.41-.29-.79-.42-1.18l-.86-2.37c-.33-.77-.73-1.51-1.08-2.27l-.54-1.14c-.2-.37-.44-.72-.66-1.08l-1.3-2.16-1.52-2c-.25-.34-.49-.69-.76-1L95,39.5c-.58-.61-1.12-1.27-1.71-1.86a41.08,41.08,0,0,0-3.85-3.27c-.69-.49-1.31-1.07-2-1.49l-2.16-1.3A17.53,17.53,0,0,0,83,30.43l-1.13-.56-.57-.28-.59-.2-2.37-.87c-.19-.07-.39-.16-.59-.22l-.61-.15-1.22-.31A34.7,34.7,0,0,0,71,26.9l-.63-.11-.63,0-1.27-.06-1.26-.07-.63,0c-.2,0-.53,0-.79,0H5.64Z"/></g></g></svg>