<svg xmlns="http://www.w3.org/2000/svg" xmlns:xlink="http://www.w3.org/1999/xlink" viewBox="0 0 1000.77 1003.79"><defs><style>.cls-1{fill:none;}.cls-2{clip-path:url(#clip-path);}.cls-3{fill:#dbdbdb;}</style><clipPath id="clip-path" transform="translate(0 0)"><rect class="cls-1" width="1000.77" height="1003.79"/></clipPath></defs><g id="Calque_2" data-name="Calque 2"><g id="Calque_1-2" data-name="Calque 1"><g id="Illustration_13" data-name="Illustration 13"><g class="cls-2"><rect class="cls-3" width="244.77" height="244.77"/><rect class="cls-3" y="253" width="244.77" height="244.77"/><rect class="cls-3" y="506.01" width="244.77" height="244.77"/><rect class="cls-3" y="759.01" width="244.77" height="244.77"/><rect class="cls-3" x="252" width="244.77" height="244.77"/><rect class="cls-3" x="252" y="253" width="244.77" height="244.77"/><rect class="cls-3" x="252" y="506.01" width="244.77" height="244.77"/><rect class="cls-3" x="252" y="759.01" width="244.77" height="244.77"/><rect class="cls-3" x="504" width="244.77" height="244.77"/><rect class="cls-3" x="504" y="253" width="244.77" height="244.77"/><rect class="cls-3" x="504" y="506.01" width="244.77" height="244.77"/><rect class="cls-3" x="504" y="759.01" width="244.77" height="244.77"/><rect class="cls-3" x="756" width="244.77" height="244.77"/><rect class="cls-3" x="756" y="253" width="244.77" height="244.77"/><rect class="cls-3" x="756" y="506.01" width="244.77" height="244.77"/><rect class="cls-3" x="756" y="759.01" width="244.77" height="244.77"/></g></g></g></g></svg>