<svg xmlns="http://www.w3.org/2000/svg" xmlns:xlink="http://www.w3.org/1999/xlink" viewBox="0 0 679.28 111.14"><defs><style>.cls-1{fill:none;}.cls-2{clip-path:url(#clip-path);}.cls-3{fill:#303880;}.cls-4{fill:#af1d1f;}</style><clipPath id="clip-path" transform="translate(0 0)"><rect class="cls-1" x="150.28" width="316.08" height="110.06"/></clipPath></defs><g id="Calque_2" data-name="Calque 2"><g id="Calque_1-2" data-name="Calque 1"><g id="Illustration_9" data-name="Illustration 9"><g class="cls-2"><polygon class="cls-3" points="224.18 0 219.48 11.64 231.5 11.64 221.88 35.69 236.15 35.69 245.78 11.64 257.8 11.64 262.44 0 224.18 0"/><polygon class="cls-3" points="428.1 0 423.4 11.64 435.42 11.64 425.79 35.69 440.07 35.69 449.69 11.64 461.71 11.64 466.36 0 428.1 0"/><polygon class="cls-3" points="390.16 0 375.83 35.69 409.36 35.69 412.79 27.05 390.49 27.05 393.11 20.66 408.14 20.66 410.39 15.03 395.51 15.03 397.81 8.64 420.16 8.64 423.63 0 390.16 0"/><polygon class="cls-3" points="374.52 0 367.71 16.95 357.57 0 347.48 0 333.16 35.69 344.42 35.69 351.19 18.73 361.33 35.69 371.47 35.69 385.74 0 374.52 0"/><path class="cls-3" d="M312.45,8.64h15.78L325.88,15H310.15ZM304.8,0,290.48,35.68h11.26l3.62-9H316.3l2.91,4.88-1.69,4.13h11.27L333,25.17l-2.16-3.57,5-3.57,5.59-13.9L338.93,0Z" transform="translate(0 0)"/><polygon class="cls-3" points="266.86 0 252.54 35.69 286.06 35.69 289.49 27.05 267.19 27.05 269.82 20.66 284.84 20.66 287.1 15.03 272.21 15.03 274.51 8.64 296.86 8.64 300.34 0 266.86 0"/><polygon class="cls-3" points="164.74 0 150.42 35.69 161.69 35.69 175.97 0 164.74 0"/><polygon class="cls-3" points="208.26 0 201.45 16.95 191.31 0 181.22 0 166.9 35.69 178.16 35.69 184.93 18.73 195.07 35.69 205.21 35.69 219.48 0 208.26 0"/><path class="cls-3" d="M367.34,76.65H329l-1.16,2.93h38.32Zm-3.59-19.11-1.17,2.93h11.14l1.15-2.93Zm8.08,7.7L373,62.31H361.85l-1.17,2.93Zm-2.61,6.63h-38.3l-1.16,2.93h38.31Zm-25.09-4.78H332.81L331.65,70H370l1.16-2.93H360l-.59,1.48H343.54Zm1.92-4.78H334.7l-1.16,2.93h11.33ZM348,57.54H336.59l-1.16,2.93h11.36Zm28.78-4.78H338.47l-1.15,2.93H375.6ZM378.64,48H340.36l-1.16,2.93h38.28Zm.72-1.84,1-2.46H342.07l-1,2.46Z" transform="translate(0 0)"/><path class="cls-3" d="M452.7,76.65H414.39l-1.16,2.93h38.32Zm-3.59-19.11-1.17,2.93h11.14l1.15-2.93Zm8.08,7.7,1.16-2.93H447.21L446,65.24Zm-2.61,6.63h-38.3l-1.16,2.93h38.31Zm-25.09-4.78H418.17L417,70h38.3l1.16-2.93H445.31l-.59,1.48H428.9Zm1.92-4.78H420.06l-1.16,2.93h11.33Zm1.92-4.77H422l-1.16,2.93h11.36Zm28.78-4.78H423.83l-1.15,2.93H461ZM464,48H425.72l-1.16,2.93h38.28Zm.72-1.84,1-2.46H427.43l-1,2.46Z" transform="translate(0 0)"/><path class="cls-3" d="M410,76.65H371.71l-1.16,2.93h38.32Zm-3.59-19.11-1.17,2.93H416.4l1.15-2.93Zm8.08,7.7,1.16-2.93H404.53l-1.17,2.93Zm-2.61,6.63H373.6l-1.16,2.93h38.31Zm-25.09-4.78H375.49L374.33,70h38.3l1.16-2.93H402.63L402,68.57H386.22Zm1.92-4.78H377.38l-1.16,2.93h11.33Zm1.92-4.77H379.27l-1.16,2.93h11.36Zm28.78-4.78H381.15L380,55.69h38.28ZM421.32,48H383l-1.15,2.93h38.27Zm.72-1.84,1-2.46H384.75l-1,2.46Z" transform="translate(0 0)"/><path class="cls-3" d="M324.67,76.65H286.38l-1.18,2.93h38.31Zm1.9-4.78H288.3l-1.18,2.93H325.4Zm-25.13-4.78H290.22L289,70h11.19Zm28.95-4.78H292.14L291,65.24H302.2l0,0h27Zm-10.05-2.75H293.25l-.37.91h38.23l1.14-2.93H321.08Zm13.77-6.8H295.93l-.44,1.15h26.9l-.64,1.78H333ZM336,48H297.75l-1.12,2.93h38.2Zm.72-1.84,1-2.46H299.39l-.94,2.46Z" transform="translate(0 0)"/><g class="cls-2"><path class="cls-4" d="M274.88,96.78h2.25s-.38-6.45-6.83-6.45c-4.93,0-6.32,3.41-6.32,10.24,0,7.08,2.15,9.49,6.58,9.49,5.43,0,6.76-6.2,6.76-6.2h-1.94s-1.41,3.29-3.69,3.29-2.28-3.79-2.28-7-.12-6.83,2.41-6.83c2.22,0,3.06,3.42,3.06,3.42" transform="translate(0 0)"/></g><polygon class="cls-4" points="187.37 109.25 191.98 90.33 196.88 90.33 201.08 109.25 198.3 109.29 195.82 97.06 195.01 97.06 193.09 109.25 187.37 109.25"/><polygon class="cls-4" points="192.94 103.33 198.75 103.33 198.75 106.26 192.69 106.26 192.94 103.33"/><rect class="cls-4" x="150.28" y="106.36" width="11.48" height="2.93"/><rect class="cls-4" x="150.28" y="90.33" width="5.06" height="18.96"/><rect class="cls-4" x="226.7" y="90.33" width="11.48" height="2.93"/><rect class="cls-4" x="226.7" y="106.36" width="11.48" height="2.93"/><rect class="cls-4" x="226.7" y="90.33" width="5.06" height="18.96"/><rect class="cls-4" x="230.29" y="98.34" width="5.06" height="2.93"/><rect class="cls-4" x="284.01" y="90.33" width="11.48" height="2.93"/><rect class="cls-4" x="284.01" y="106.36" width="11.48" height="2.93"/><rect class="cls-4" x="284.01" y="90.33" width="5.06" height="18.96"/><rect class="cls-4" x="287.6" y="98.34" width="5.06" height="2.93"/><polygon class="cls-4" points="176.03 98.32 174.31 98.32 173.1 90.33 176.03 90.33 176.03 98.32"/><g class="cls-2"><path class="cls-4" d="M217.56,96.78h2.25s.7-6.45-6.83-6.45c-4.93,0-6.32,3.41-6.32,10.24,0,7.08,2.15,9.49,6.58,9.49,6.76,0,6.76-7.32,6.76-7.32l-2.61-.56s.23,5-3,5c-2.28,0-2.28-3.79-2.28-7s-.13-6.83,2.4-6.83,3.06,3.42,3.06,3.42" transform="translate(0 0)"/></g><rect class="cls-4" x="214.13" y="99.81" width="5.87" height="2.93"/><rect class="cls-4" x="245.8" y="90.33" width="4.86" height="18.96"/><rect class="cls-4" x="254.37" y="90.33" width="2.91" height="18.96"/><polygon class="cls-4" points="250.66 90.33 255.76 109.25 253.56 109.29 248.33 90.33 250.66 90.33"/><rect class="cls-4" x="315.86" y="90.33" width="5.26" height="19.73"/><g class="cls-2"><path class="cls-4" d="M320.26,107.52h2.55c3.58,0,3.6-5.43,3.6-7.44s-.1-6.94-3.76-6.94h-2.84l1.31-2.81h2.18c4.14,0,6.14,4.71,6.14,9.45s-1.18,10.28-6.79,10.28h-2.29Z" transform="translate(0 0)"/></g><rect class="cls-4" x="339.39" y="90.33" width="5.26" height="14.22"/><rect class="cls-4" x="350.28" y="90.33" width="3.03" height="14.22"/><g class="cls-2"><path class="cls-4" d="M344.65,101.14v3.41c0,1.63.73,3.25,2.68,3.25s2.95-1,2.95-3.25v-3.66l3,1.71v2c0,2.12-1.26,5.51-6.58,5.51s-7.34-2.54-7.34-5.51v-3.86Z" transform="translate(0 0)"/></g><rect class="cls-4" x="417.17" y="90.33" width="5.06" height="18.96"/><rect class="cls-4" x="413.44" y="90.33" width="12.5" height="2.89"/><rect class="cls-4" x="432.43" y="90.33" width="5.06" height="13.67"/><rect class="cls-4" x="442.9" y="90.33" width="2.91" height="13.67"/><g class="cls-2"><path class="cls-4" d="M437.49,100.72V104c0,1.56.7,3.12,2.57,3.12s2.84-1,2.84-3.12v-3.52l2.91,1.64V104c0,2-1.21,5.29-6.33,5.29s-7.05-2.44-7.05-5.29v-3.71Z" transform="translate(0 0)"/></g><rect class="cls-4" x="375.48" y="90.33" width="11.48" height="2.93"/><rect class="cls-4" x="375.48" y="90.33" width="5.06" height="18.96"/><rect class="cls-4" x="379.08" y="98.34" width="5.06" height="2.93"/><rect class="cls-4" x="393.23" y="90.33" width="5.06" height="13.67"/><rect class="cls-4" x="403.7" y="90.33" width="2.91" height="13.67"/><g class="cls-2"><path class="cls-4" d="M398.29,100.72V104c0,1.56.7,3.12,2.58,3.12s2.83-1,2.83-3.12v-3.52l2.91,1.64V104c0,2-1.21,5.29-6.33,5.29s-7-2.44-7-5.29v-3.71Z" transform="translate(0 0)"/></g><rect class="cls-4" x="452.64" y="90.33" width="5.06" height="18.96"/><g class="cls-2"><path class="cls-4" d="M456.86,98.86h3.66c1.42,0,2.26-.94,2.26-2.87s-.68-3-3-3h-3.39l1.27-2.7h3.58c2.09,0,4.41,2.2,4.41,5.37s-1.58,5.6-4.63,5.6H457Z" transform="translate(0 0)"/></g><polygon class="cls-4" points="461.99 100.15 465.02 109.25 462.24 109.29 459.07 100.15 461.99 100.15"/></g></g><path class="cls-3" d="M10.92,11.36A6.31,6.31,0,0,1,13.25,14a8.87,8.87,0,0,1,.82,3.87,7.5,7.5,0,0,1-1.75,5.21,5.85,5.85,0,0,1-4.58,2H5.11a.16.16,0,0,0-.18.18v9.31a.41.41,0,0,1-.42.42H.42A.41.41,0,0,1,0,34.53V10.83a.4.4,0,0,1,.12-.29.42.42,0,0,1,.3-.13H7.49A6.32,6.32,0,0,1,10.92,11.36Zm-2.47,9A3.66,3.66,0,0,0,9.13,18a3.81,3.81,0,0,0-.68-2.42,2.17,2.17,0,0,0-1.8-.88H5.11a.16.16,0,0,0-.18.18V21c0,.12.06.17.18.17H6.65A2.17,2.17,0,0,0,8.45,20.34Z" transform="translate(0 0)"/><path class="cls-3" d="M20,33.34a6.76,6.76,0,0,1-1.93-5V17.1a6.76,6.76,0,0,1,1.93-5,7,7,0,0,1,5.14-1.89,7.11,7.11,0,0,1,5.17,1.89,6.73,6.73,0,0,1,1.94,5V28.3a6.73,6.73,0,0,1-1.94,5,7.11,7.11,0,0,1-5.17,1.89A7,7,0,0,1,20,33.34Zm6.72-3a2.6,2.6,0,0,0,.59-1.8V16.89a2.6,2.6,0,0,0-.59-1.8,2,2,0,0,0-1.58-.69,1.91,1.91,0,0,0-1.55.69,2.65,2.65,0,0,0-.58,1.8V28.51a2.65,2.65,0,0,0,.58,1.8,1.9,1.9,0,0,0,1.55.68A2,2,0,0,0,26.67,30.31Z" transform="translate(0 0)"/><path class="cls-3" d="M38.8,33.25A7.23,7.23,0,0,1,36.89,28V10.87a.41.41,0,0,1,.42-.42H41.4a.41.41,0,0,1,.42.42V28.48a2.81,2.81,0,0,0,.56,1.81,1.8,1.8,0,0,0,1.47.7,1.76,1.76,0,0,0,1.46-.7,2.87,2.87,0,0,0,.54-1.81V10.87a.41.41,0,0,1,.42-.42h4.09a.41.41,0,0,1,.42.42V28a7.27,7.27,0,0,1-1.9,5.27,6.68,6.68,0,0,1-5,2A6.68,6.68,0,0,1,38.8,33.25Z" transform="translate(0 0)"/><path class="cls-3" d="M65,34.6,62.3,24.94c0-.09-.11-.14-.18-.14H60.93c-.11,0-.17.06-.17.18v9.55a.41.41,0,0,1-.12.3.42.42,0,0,1-.3.12h-4.1a.4.4,0,0,1-.29-.12.38.38,0,0,1-.13-.3V10.87a.38.38,0,0,1,.13-.3.4.4,0,0,1,.29-.12h7.07a6.37,6.37,0,0,1,3.43.93A6.13,6.13,0,0,1,69.07,14a8.64,8.64,0,0,1,.82,3.85,8.17,8.17,0,0,1-.78,3.65,6,6,0,0,1-2.19,2.44.53.53,0,0,0-.11.09.13.13,0,0,0,0,.12L70,34.46l0,.14c0,.23-.13.35-.39.35h-4.2A.47.47,0,0,1,65,34.6ZM60.76,14.86v6c0,.12.06.18.17.18h1.58a2.18,2.18,0,0,0,1.77-.86A3.59,3.59,0,0,0,65,17.87a3.67,3.67,0,0,0-.68-2.33,2.18,2.18,0,0,0-1.77-.86H60.93C60.82,14.68,60.76,14.74,60.76,14.86Z" transform="translate(0 0)"/><path class="cls-3" d="M85.89,12.15a7.2,7.2,0,0,1,1.89,5.19V28.06a7.69,7.69,0,0,1-1.14,4.23,6.13,6.13,0,0,1-3.13,2.52.16.16,0,0,0-.14.17v3a.41.41,0,0,1-.12.3.42.42,0,0,1-.3.12h-4.1a.4.4,0,0,1-.29-.12.38.38,0,0,1-.13-.3V35a.16.16,0,0,0-.14-.17,6.13,6.13,0,0,1-3.13-2.52A7.69,7.69,0,0,1,74,28.06V17.34a8,8,0,0,1,.86-3.76,6.19,6.19,0,0,1,2.42-2.52,7.1,7.1,0,0,1,3.58-.89A6.6,6.6,0,0,1,85.89,12.15ZM79,28.58a2.74,2.74,0,0,0,.52,1.75,1.7,1.7,0,0,0,1.4.66,1.74,1.74,0,0,0,1.42-.66,2.69,2.69,0,0,0,.54-1.75V16.82a2.69,2.69,0,0,0-.54-1.75,1.75,1.75,0,0,0-1.42-.67,1.71,1.71,0,0,0-1.4.67A2.74,2.74,0,0,0,79,16.82Z" transform="translate(0 0)"/><path class="cls-3" d="M94.38,33.25A7.23,7.23,0,0,1,92.47,28V10.87a.41.41,0,0,1,.42-.42H97a.41.41,0,0,1,.42.42V28.48A2.81,2.81,0,0,0,98,30.29a1.8,1.8,0,0,0,1.47.7,1.76,1.76,0,0,0,1.46-.7,2.87,2.87,0,0,0,.54-1.81V10.87a.41.41,0,0,1,.42-.42h4.09a.41.41,0,0,1,.42.42V28a7.27,7.27,0,0,1-1.9,5.27,7.4,7.4,0,0,1-10.08,0Z" transform="translate(0 0)"/><path class="cls-3" d="M113,33.34a6.72,6.72,0,0,1-1.93-5V17.1a6.72,6.72,0,0,1,1.93-5,7,7,0,0,1,5.14-1.89,7.11,7.11,0,0,1,5.17,1.89,6.73,6.73,0,0,1,1.94,5V28.3a6.73,6.73,0,0,1-1.94,5,7.11,7.11,0,0,1-5.17,1.89A7,7,0,0,1,113,33.34Zm6.72-3a2.65,2.65,0,0,0,.59-1.8V16.89a2.65,2.65,0,0,0-.59-1.8,2,2,0,0,0-1.58-.69,1.91,1.91,0,0,0-1.55.69,2.65,2.65,0,0,0-.58,1.8V28.51a2.65,2.65,0,0,0,.58,1.8,1.9,1.9,0,0,0,1.55.68A2,2,0,0,0,119.7,30.31Z" transform="translate(0 0)"/><path class="cls-3" d="M130.15,34.83a.38.38,0,0,1-.13-.3V10.87a.38.38,0,0,1,.13-.3.4.4,0,0,1,.29-.12h4.1a.42.42,0,0,1,.3.12.41.41,0,0,1,.12.3V34.53a.41.41,0,0,1-.12.3.42.42,0,0,1-.3.12h-4.1A.4.4,0,0,1,130.15,34.83Z" transform="translate(0 0)"/><path class="cls-3" d="M482.91,109.26a6.72,6.72,0,0,1-1.9-5V92.9a6.62,6.62,0,0,1,1.9-5,7.85,7.85,0,0,1,10.15,0,6.62,6.62,0,0,1,1.91,5v.38a.41.41,0,0,1-.42.42l-4.09.18q-.42,0-.42-.39v-.9a2.41,2.41,0,0,0-.56-1.65,1.93,1.93,0,0,0-1.51-.63,1.86,1.86,0,0,0-1.47.63,2.41,2.41,0,0,0-.56,1.65v12.07a2.34,2.34,0,0,0,.56,1.63,1.88,1.88,0,0,0,1.47.61,2,2,0,0,0,1.51-.61,2.34,2.34,0,0,0,.56-1.63v-.94a.41.41,0,0,1,.42-.42l4.09.17a.41.41,0,0,1,.42.42v.35a6.69,6.69,0,0,1-1.92,5,7.78,7.78,0,0,1-10.14,0Z" transform="translate(0 0)"/><path class="cls-3" d="M504.51,86.48a.45.45,0,0,1,0,.37l-2.42,7.06a.44.44,0,0,1-.45.36h-3.08c-.31,0-.42-.16-.35-.46l1.43-7.07a.43.43,0,0,1,.46-.39h4.09A.36.36,0,0,1,504.51,86.48Z" transform="translate(0 0)"/><path class="cls-3" d="M521,90.47a.41.41,0,0,1-.3.12h-7.31a.16.16,0,0,0-.18.18V96.3c0,.11.06.17.18.17h4.2a.4.4,0,0,1,.29.12.42.42,0,0,1,.13.3v3.39a.42.42,0,0,1-.13.3.4.4,0,0,1-.29.12h-4.2a.16.16,0,0,0-.18.18v5.56a.16.16,0,0,0,.18.18h7.31a.41.41,0,0,1,.42.42v3.39a.41.41,0,0,1-.42.42h-12a.41.41,0,0,1-.42-.42V86.77a.4.4,0,0,1,.12-.29.42.42,0,0,1,.3-.13h12a.42.42,0,0,1,.3.13.4.4,0,0,1,.12.29v3.4A.41.41,0,0,1,521,90.47Z" transform="translate(0 0)"/><path class="cls-3" d="M528.43,110.33a5.77,5.77,0,0,1-2.38-2.26,6.55,6.55,0,0,1-.84-3.34v-1a.41.41,0,0,1,.42-.42h4a.4.4,0,0,1,.29.12.42.42,0,0,1,.13.3v.76a2.62,2.62,0,0,0,.55,1.75,1.77,1.77,0,0,0,1.41.67,1.82,1.82,0,0,0,1.4-.63,2.41,2.41,0,0,0,.56-1.65,2.56,2.56,0,0,0-.71-1.8,20.6,20.6,0,0,0-2.72-2.22,33.38,33.38,0,0,1-2.84-2.24,8.77,8.77,0,0,1-1.85-2.42,6.81,6.81,0,0,1-.77-3.32A6.29,6.29,0,0,1,527,87.86a7.56,7.56,0,0,1,9.85.07,6.56,6.56,0,0,1,1.88,4.87v.84a.45.45,0,0,1-.42.42h-4a.42.42,0,0,1-.3-.13.4.4,0,0,1-.12-.29v-1a2.61,2.61,0,0,0-.54-1.73,1.78,1.78,0,0,0-1.42-.65,1.68,1.68,0,0,0-1.36.61,2.54,2.54,0,0,0-.53,1.7,2.86,2.86,0,0,0,.66,1.86,16.61,16.61,0,0,0,2.63,2.24c1.45,1.07,2.54,1.94,3.27,2.6a7.61,7.61,0,0,1,1.72,2.21,6.28,6.28,0,0,1,.61,2.88,6.47,6.47,0,0,1-1.89,4.9,6.85,6.85,0,0,1-5,1.83A7.58,7.58,0,0,1,528.43,110.33Z" transform="translate(0 0)"/><path class="cls-3" d="M557.18,86.48a.4.4,0,0,1,.12.29v3.4a.41.41,0,0,1-.42.42h-4.37a.16.16,0,0,0-.18.18v19.66a.41.41,0,0,1-.12.3.4.4,0,0,1-.29.12h-4.1a.41.41,0,0,1-.42-.42V90.77a.16.16,0,0,0-.18-.18H543a.4.4,0,0,1-.29-.12.42.42,0,0,1-.13-.3v-3.4a.45.45,0,0,1,.42-.42h13.86A.42.42,0,0,1,557.18,86.48Z" transform="translate(0 0)"/><path class="cls-3" d="M582.54,86.35h4.06a.43.43,0,0,1,.3.13.4.4,0,0,1,.12.29v23.66a.41.41,0,0,1-.12.3.42.42,0,0,1-.3.12h-4.1a.4.4,0,0,1-.29-.12.38.38,0,0,1-.13-.3V94.72c0-.09,0-.14-.07-.14s-.09,0-.14.1l-2.73,4.84c-.11.18-.21.28-.28.28s-.16-.1-.28-.28l-2.73-4.84a.17.17,0,0,0-.14-.1s-.07,0-.07.14v15.71a.41.41,0,0,1-.42.42h-4.09a.41.41,0,0,1-.42-.42V86.77a.4.4,0,0,1,.12-.29.42.42,0,0,1,.3-.13h4a.58.58,0,0,1,.53.29l3.11,5.56q.11.14.21,0l3-5.56A.54.54,0,0,1,582.54,86.35Z" transform="translate(0 0)"/><path class="cls-3" d="M592.18,110.73a.41.41,0,0,1-.12-.3V86.77a.4.4,0,0,1,.12-.29.42.42,0,0,1,.3-.13h4.09a.42.42,0,0,1,.3.13.4.4,0,0,1,.12.29v23.66a.41.41,0,0,1-.42.42h-4.09A.41.41,0,0,1,592.18,110.73Z" transform="translate(0 0)"/><path class="cls-3" d="M614.9,90.47a.44.44,0,0,1-.3.12h-7.32c-.11,0-.17.06-.17.18V96.3a.15.15,0,0,0,.17.17h4.2a.41.41,0,0,1,.42.42v3.39a.41.41,0,0,1-.42.42h-4.2c-.11,0-.17.06-.17.18v5.56c0,.12.06.18.17.18h7.32a.44.44,0,0,1,.3.12.41.41,0,0,1,.12.3v3.39a.41.41,0,0,1-.12.3.44.44,0,0,1-.3.12h-12a.4.4,0,0,1-.29-.12.38.38,0,0,1-.13-.3V86.77a.37.37,0,0,1,.13-.29.41.41,0,0,1,.29-.13h12a.45.45,0,0,1,.3.13.4.4,0,0,1,.12.29v3.4A.41.41,0,0,1,614.9,90.47Z" transform="translate(0 0)"/><path class="cls-3" d="M621.37,109.16a7.29,7.29,0,0,1-1.91-5.27V86.77a.37.37,0,0,1,.13-.29.41.41,0,0,1,.29-.13H624a.45.45,0,0,1,.3.13.4.4,0,0,1,.12.29v17.61a2.79,2.79,0,0,0,.56,1.82,1.77,1.77,0,0,0,1.47.7,1.72,1.72,0,0,0,1.45-.7,2.9,2.9,0,0,0,.54-1.82V86.77a.37.37,0,0,1,.13-.29.41.41,0,0,1,.29-.13h4.1a.45.45,0,0,1,.3.13.4.4,0,0,1,.12.29v17.12a7.29,7.29,0,0,1-1.91,5.27,7.4,7.4,0,0,1-10.08,0Z" transform="translate(0 0)"/><path class="cls-3" d="M637.77,110.72a.45.45,0,0,1,0-.36l4.76-11.65a.37.37,0,0,0,0-.21l-4.76-11.65a.41.41,0,0,1,0-.21c0-.19.12-.29.35-.29h4.2a.44.44,0,0,1,.46.35l2.34,6.73c0,.06.06.1.11.1s.08,0,.1-.1l2.35-6.73a.44.44,0,0,1,.45-.35h4.17c.16,0,.27.05.31.14a.45.45,0,0,1,0,.36L647.81,98.5a.38.38,0,0,0,0,.21l4.76,11.65a.41.41,0,0,1,0,.21c0,.19-.12.28-.35.28h-4.17a.43.43,0,0,1-.45-.34l-2.35-6.69c0-.07-.06-.1-.1-.1s-.08,0-.11.1l-2.38,6.69a.43.43,0,0,1-.45.34h-4.17C637.92,110.85,637.81,110.81,637.77,110.72Z" transform="translate(0 0)"/><path class="cls-3" d="M669.46,103a.41.41,0,0,1-.12-.3v-1.11a5,5,0,0,1,.71-2.82,12,12,0,0,1,2.09-2.26,11.29,11.29,0,0,0,1.64-1.7,2.92,2.92,0,0,0,.53-1.76,2.79,2.79,0,0,0-.55-1.81,1.72,1.72,0,0,0-1.41-.68,2,2,0,0,0-1.61.72,2.86,2.86,0,0,0-.6,1.9v.56q0,.39-.42.39l-4.09-.18a.41.41,0,0,1-.42-.42v-.35a7.43,7.43,0,0,1,.91-3.72,6.25,6.25,0,0,1,2.55-2.52,7.76,7.76,0,0,1,3.78-.89,6.42,6.42,0,0,1,6.83,6.82,7.15,7.15,0,0,1-.44,2.64,5.94,5.94,0,0,1-1.05,1.8,14.85,14.85,0,0,1-1.59,1.54,10.26,10.26,0,0,0-1.49,1.51,2.45,2.45,0,0,0-.47,1.54v.8a.41.41,0,0,1-.12.3.45.45,0,0,1-.3.13h-4.06A.42.42,0,0,1,669.46,103Zm.37,7.19a2.65,2.65,0,0,1-.77-2,2.61,2.61,0,0,1,.77-2,2.68,2.68,0,0,1,2-.75,2.71,2.71,0,0,1,2,.77,2.67,2.67,0,0,1,.77,2,2.75,2.75,0,0,1-.77,2,2.68,2.68,0,0,1-2,.79A2.62,2.62,0,0,1,669.83,110.15Z" transform="translate(0 0)"/></g></g></svg>