<svg xmlns="http://www.w3.org/2000/svg" viewBox="0 0 516.8 710.5"><defs><style>.cls-1{fill:#939ece;}</style></defs><g id="Calque_2" data-name="Calque 2"><g id="Calque_1-2" data-name="Calque 1"><path class="cls-1" d="M439,118.86a584.38,584.38,0,0,1-61.18,53.6,85.39,85.39,0,0,0-26.08,104.23l5.91,12.59a23.19,23.19,0,0,1-4.57,26.2L346,322.61l-151.8-151.8,7.13-7.12a23.17,23.17,0,0,1,26.2-4.58L240.11,165A85.39,85.39,0,0,0,344.33,139a586.63,586.63,0,0,1,53.6-61.19c69.07-69.07,84-54.14,89.63-48.52S508.11,49.79,439,118.86ZM296.3,372.29,144.51,220.49l37.61-37.61,151.8,151.8ZM248.45,425A44.5,44.5,0,0,0,244,410.85c-14.19-27.71-56.38-40.74-97.19-53.34C92.88,340.86,57.39,327.7,60.2,300l65-65L281.82,391.61Zm256-412.63c-33-33-80.91,6-123.42,48.52a610.2,610.2,0,0,0-55.83,63.75,61.42,61.42,0,0,1-74.94,18.79l-12.58-5.92a47.15,47.15,0,0,0-53.27,9.31L171.26,160l-52.1,52.1a11.87,11.87,0,0,0-3.48,8.31L49.5,286.54a4.87,4.87,0,0,0-.56.28l-4.24,4.24c-.09.19-.21.36-.29.56L2.5,333.54a8.54,8.54,0,0,0,0,12.07l41.55,41.55a8.57,8.57,0,0,0,6,2.5H61.66L62,401.85a8.56,8.56,0,0,0,2.49,5.78l61.4,61.4a8.56,8.56,0,0,0,8.74,2.06l16.83-5.61-5.86,16.34a8.54,8.54,0,0,0,2,8.91L171.2,514.3a8.52,8.52,0,0,0,12.07,0l36.24-36.24,18.42-18.42,6.93-6.93L266.58,431l29.86-29.86a11.92,11.92,0,0,0,8.32-3.49l52.09-52.1L370,332.38a47.13,47.13,0,0,0,9.31-53.26l-5.92-12.6a61.42,61.42,0,0,1,18.8-74.94,608.83,608.83,0,0,0,63.74-55.82C498.45,93.25,537.46,45.34,504.46,12.34Z"/><path class="cls-1" d="M215.85,671.25a39.25,39.25,0,0,1-78.5,0c0-39.25,39.25-98.13,39.25-98.13S215.85,632,215.85,671.25Z"/></g></g></svg>