<svg xmlns="http://www.w3.org/2000/svg" viewBox="0 0 282.23 282.23"><defs><style>.cls-1{fill:#fff;}</style></defs><g id="Calque_2" data-name="Calque 2"><g id="Calque_1-2" data-name="Calque 1"><path class="cls-1" d="M200.78,167.83c-14.23,14.22-36.41,18.5-47.76,19.77.58-11.86,3.57-35.47,17.83-49.7s36.64-17.28,47.75-17.83C218,131.19,215,153.57,200.78,167.83ZM144,201.89a6.45,6.45,0,0,0,1.81.34c-.43,1.06-.85,2.07-1.23,3.2C144.43,204.3,144.25,203.12,144,201.89Zm-62.58-8.21C67.17,179.43,64.19,157,63.63,145.92c11.12.56,33.44,3.52,47.74,17.83s18.5,36.43,19.77,47.76C119.34,211,95.75,208,81.44,193.68Zm144.68-87.77s-1.12-.08-3.06-.08c-9.41,0-41.72,1.6-62.19,22.07-16.24,16.23-20.6,40.66-21.73,55.31-3.62-10.18-9.16-20.83-17.8-29.45-20.47-20.48-52.79-22.07-62.2-22.07-1.93,0-3,.07-3,.07a7.07,7.07,0,0,0-6.66,6.66c-.1,1.66-2,41.25,22,65.23,20.48,20.49,54.53,22.09,64.46,22.09,2,0,3.18-.07,3.18-.07a1.92,1.92,0,0,0,.32-.09,171.7,171.7,0,0,0-3,28.42,7.06,7.06,0,1,0,14.11,0c0-16.93,5.59-44.83,12-53.51,14-2.45,33.91-8.35,48.25-22.69,24-24,22.11-63.57,22-65.23A7,7,0,0,0,226.12,105.91Z"/><path class="cls-1" d="M141.11,268.11a127,127,0,1,1,127-127A127.14,127.14,0,0,1,141.11,268.11ZM141.11,0C63.3,0,0,63.3,0,141.11S63.3,282.23,141.11,282.23s141.12-63.31,141.12-141.12S218.92,0,141.11,0Z"/></g></g></svg>