<?xml version="1.0" encoding="UTF-8"?><svg xmlns="http://www.w3.org/2000/svg" xmlns:xlink="http://www.w3.org/1999/xlink" viewBox="0 0 501.9 248.29"><defs><style>.e{fill:none;}.f{fill:#69a341;}.g{fill:#2f3a7d;}.h{clip-path:url(#d);}</style><clipPath id="d"><rect class="e" y="0" width="501.9" height="248.29"/></clipPath></defs><g id="a"/><g id="b"><g id="c"><g><polygon class="g" points="117.17 0 109.71 18.5 128.8 18.5 113.51 56.69 136.19 56.69 151.48 18.5 170.58 18.5 177.96 0 117.17 0"/><polygon class="g" points="441.11 0 433.65 18.5 452.74 18.5 437.45 56.69 460.13 56.69 475.42 18.5 494.52 18.5 501.9 0 441.11 0"/><polygon class="g" points="380.84 0 358.09 56.69 411.35 56.69 416.79 42.96 381.36 42.96 385.54 32.82 409.41 32.82 412.99 23.87 389.34 23.87 393 13.73 428.5 13.73 434.02 0 380.84 0"/><polygon class="g" points="356 0 345.19 26.93 329.08 0 313.04 0 290.29 56.69 308.19 56.69 318.93 29.76 335.04 56.69 351.16 56.69 373.83 0 356 0"/><path class="g" d="M257.4,13.73h25.06l-3.73,10.14h-24.99l3.65-10.14ZM245.24,0l-22.75,56.69h17.9l5.74-14.32h17.38l4.62,7.76-2.68,6.56h17.9l6.64-16.71-3.43-5.67,7.98-5.67,8.88-22.08-3.95-6.56h-54.23Z"/><polygon class="g" points="184.97 0 162.22 56.69 215.48 56.69 220.92 42.96 185.49 42.96 189.67 32.82 213.54 32.82 217.12 23.87 193.47 23.87 197.13 13.73 232.63 13.73 238.15 0 184.97 0"/><polygon class="g" points="22.75 0 0 56.69 17.9 56.69 40.58 0 22.75 0"/><polygon class="g" points="91.88 0 81.07 26.93 64.96 0 48.92 0 26.17 56.69 44.07 56.69 54.81 29.76 70.92 56.69 87.03 56.69 109.71 0 91.88 0"/><path class="g" d="M344.6,121.76h-60.86l-1.84,4.65h60.86l1.83-4.65Zm-5.7-30.35l-1.85,4.65h17.68l1.83-4.65h-17.67Zm12.84,12.24l1.83-4.65h-17.7l-1.85,4.65h17.71Zm-4.15,10.52h-60.85l-1.84,4.65h60.85l1.83-4.65Zm-39.86-7.59h-17.99l-1.84,4.65h60.84l1.83-4.65h-17.72l-.94,2.36h-25.14l.95-2.36Zm3.05-7.59h-18.03l-1.84,4.65h18.01l1.87-4.65Zm3.05-7.59h-18.08l-1.84,4.65h18.05l1.87-4.65Zm45.73-7.59h-60.81l-1.84,4.65h60.82l1.83-4.65Zm2.99-7.59h-60.8l-1.84,4.65h60.81l1.83-4.65Zm1.16-2.94l1.54-3.91h-60.79l-1.55,3.91h60.8Z"/><path class="g" d="M480.2,121.76h-60.86l-1.84,4.65h60.86l1.83-4.65Zm-5.71-30.35l-1.85,4.65h17.68l1.83-4.65h-17.67Zm12.84,12.24l1.83-4.65h-17.7l-1.85,4.65h17.71Zm-4.15,10.52h-60.85l-1.84,4.65h60.85l1.83-4.65Zm-39.86-7.59h-17.99l-1.84,4.65h60.84l1.83-4.65h-17.72l-.94,2.36h-25.14l.95-2.36Zm3.05-7.59h-18.03l-1.84,4.65h18.01l1.87-4.65Zm3.05-7.59h-18.08l-1.84,4.65h18.05l1.87-4.65Zm45.73-7.59h-60.81l-1.84,4.65h60.82l1.83-4.65Zm2.99-7.59h-60.8l-1.84,4.65h60.81l1.83-4.65Zm1.16-2.94l1.54-3.91h-60.79l-1.55,3.91h60.8Z"/><path class="g" d="M412.4,121.76h-60.86l-1.84,4.65h60.86l1.83-4.65Zm-5.71-30.35l-1.85,4.65h17.68l1.83-4.65h-17.67Zm12.84,12.24l1.83-4.65h-17.7l-1.85,4.65h17.71Zm-4.15,10.52h-60.85l-1.84,4.65h60.85l1.83-4.65Zm-39.86-7.59h-17.99l-1.84,4.65h60.84l1.83-4.65h-17.72l-.94,2.36h-25.14l.95-2.36Zm3.05-7.59h-18.03l-1.84,4.65h18.01l1.87-4.65Zm3.05-7.59h-18.08l-1.84,4.65h18.05l1.87-4.65Zm45.73-7.59h-60.81l-1.84,4.65h60.82l1.83-4.65Zm2.99-7.59h-60.8l-1.84,4.65h60.81l1.83-4.65Zm1.16-2.94l1.54-3.91h-60.79l-1.55,3.91h60.8Z"/><path class="g" d="M276.81,121.76h-60.83l-1.87,4.65h60.86l1.85-4.65Zm3.01-7.59h-60.79l-1.87,4.65h60.82l1.85-4.65Zm-39.92-7.59h-17.82l-1.87,4.65h17.78l1.92-4.65Zm45.99-7.59h-60.76l-1.87,4.65h17.85l.03-.08h42.96l1.78-4.57Zm-15.96-4.38h-43.04l-.58,1.44h60.72l1.82-4.65h-17.75l-1.17,3.21Zm21.87-10.8h-60.66l-.7,1.83h42.74l-1.03,2.83h17.83l1.82-4.65Zm2.96-7.59h-60.73l-1.77,4.65h60.68l1.82-4.65Zm1.14-2.94l1.52-3.91h-60.79l-1.49,3.91h60.76Z"/><rect class="f" y="203.17" width="501.9" height="24.67"/><rect class="g" y="232.99" width="501.9" height="5.07"/><rect class="g" y="243.22" width="501.9" height="5.07"/><g class="h"><path class="f" d="M492.55,177.82c2.46,0,4.45-.69,5.97-2.08,1.51-1.39,2.27-3.25,2.27-5.58,0-1.26-.24-2.36-.71-3.29-.48-.94-1.13-1.78-1.96-2.52-.83-.74-2.07-1.72-3.72-2.93-1.23-.9-2.05-1.59-2.46-2.06-.41-.47-.62-.97-.62-1.48,0-.44,.1-.78,.29-1.04,.19-.26,.46-.39,.79-.39s.6,.12,.81,.36c.2,.24,.31,.56,.31,.94v1c0,.18,.05,.32,.15,.42,.1,.1,.24,.15,.42,.15h5.97c.18,0,.32-.05,.42-.15,.1-.1,.15-.24,.15-.42v-.85c0-1.51-.34-2.85-1.02-4s-1.64-2.05-2.89-2.69c-1.25-.64-2.69-.96-4.33-.96s-3.05,.32-4.29,.96c-1.25,.64-2.21,1.54-2.89,2.69-.68,1.15-1.02,2.49-1.02,4s.31,2.76,.92,3.89c.62,1.13,1.34,2.07,2.17,2.81,.83,.74,1.89,1.56,3.18,2.46,1.31,.92,2.17,1.6,2.58,2.02,.41,.42,.62,.85,.62,1.29,0,.36-.1,.65-.31,.88-.21,.23-.46,.35-.77,.35s-.57-.13-.77-.38c-.21-.26-.31-.59-.31-1v-.85c0-.18-.05-.32-.15-.42-.1-.1-.24-.15-.42-.15h-6.01c-.18,0-.32,.05-.42,.15-.1,.1-.15,.24-.15,.42v1.19c0,1.41,.34,2.66,1.02,3.75,.68,1.09,1.64,1.94,2.87,2.56s2.67,.92,4.31,.92m-15.13-21.64v-5.04c0-.18-.05-.32-.15-.42-.1-.1-.25-.15-.42-.15h-14.24c-.18,0-.32,.05-.42,.15-.1,.1-.15,.24-.15,.42v25.8c0,.18,.05,.32,.15,.42,.1,.1,.24,.15,.42,.15h14.24c.18,0,.32-.05,.42-.15,.1-.1,.15-.24,.15-.42v-5.04c0-.18-.05-.32-.15-.42-.1-.1-.25-.15-.42-.15h-7.35c-.15,0-.23-.08-.23-.23v-3.74c0-.15,.08-.23,.23-.23h3.81c.18,0,.32-.05,.42-.15,.1-.1,.16-.24,.16-.42v-5.04c0-.18-.05-.32-.16-.42-.1-.1-.24-.15-.42-.15h-3.81c-.15,0-.23-.08-.23-.23v-3.7c0-.15,.08-.23,.23-.23h7.35c.18,0,.32-.05,.42-.15,.1-.1,.15-.24,.15-.42m-37.38,21.33h14.4c.18,0,.32-.05,.42-.15,.1-.1,.15-.24,.15-.42v-5.04c0-.18-.05-.32-.15-.42-.1-.1-.24-.15-.42-.15h-7.51c-.15,0-.23-.08-.23-.23v-19.94c0-.18-.05-.32-.15-.42-.1-.1-.24-.15-.42-.15h-6.08c-.18,0-.32,.05-.42,.15-.1,.1-.15,.24-.15,.42v25.8c0,.18,.05,.32,.15,.42,.1,.1,.24,.15,.42,.15m-16.48-6.2h-.65c-.15,0-.23-.08-.23-.23v-4.62c0-.15,.08-.23,.23-.23h.69c.49,0,.88,.24,1.17,.71,.3,.48,.44,1.11,.44,1.91s-.15,1.4-.46,1.83c-.31,.42-.71,.64-1.19,.64m-.65-14.55h.19c1.15,0,1.73,.72,1.73,2.16s-.58,2.16-1.73,2.16h-.19c-.15,0-.23-.08-.23-.23v-3.85c0-.15,.08-.23,.23-.23m9.55,13.17c0-2.72-.94-4.8-2.81-6.24-.08-.08-.05-.17,.08-.27,1.46-1.15,2.19-2.91,2.19-5.27,0-2.54-.79-4.44-2.37-5.7-1.58-1.26-3.77-1.89-6.56-1.89h-6.97c-.18,0-.32,.05-.42,.15-.1,.1-.15,.24-.15,.42v25.8c0,.18,.05,.32,.15,.42,.1,.1,.24,.15,.42,.15h8.12c2.41,0,4.4-.65,5.97-1.96,1.57-1.31,2.35-3.18,2.35-5.62m-34.84-1.85l.92-6.93c.03-.1,.06-.15,.12-.15s.09,.05,.12,.15l1.04,6.93c.05,.15-.01,.23-.19,.23h-1.81c-.13,0-.19-.08-.19-.23m4.12,9.43h6.2c.36,0,.54-.15,.54-.46v-.15l-5.47-25.83c-.08-.33-.3-.5-.65-.5h-7.01c-.36,0-.58,.17-.65,.5l-5.47,25.83c-.08,.41,.09,.62,.5,.62h6.04c.39,0,.59-.18,.62-.54l.38-2.89c0-.05,.02-.1,.08-.15,.05-.05,.12-.08,.19-.08h3.39c.08,0,.14,.03,.19,.08s.08,.1,.08,.15l.42,2.89c.02,.36,.23,.54,.62,.54m-28.41-20.75c.59,0,1.06,.21,1.41,.64,.35,.42,.52,1.03,.52,1.83s-.18,1.37-.54,1.79c-.36,.42-.82,.64-1.39,.64h-.5c-.15,0-.23-.08-.23-.23v-4.43c0-.15,.08-.23,.23-.23h.5Zm2.54,20.75h6.27c.36,0,.54-.15,.54-.46,0-.08-.01-.14-.04-.19l-3.12-10.9c-.03-.13,.01-.23,.12-.31,.92-.69,1.63-1.6,2.12-2.71,.49-1.12,.73-2.38,.73-3.79,0-1.67-.33-3.15-1-4.45-.67-1.3-1.6-2.31-2.79-3.04-1.19-.73-2.56-1.1-4.1-1.1h-8.66c-.18,0-.32,.05-.42,.15-.1,.1-.15,.24-.15,.42v25.8c0,.18,.05,.32,.15,.42,.1,.1,.24,.15,.42,.15h6.08c.18,0,.32-.05,.42-.15,.1-.1,.15-.24,.15-.42v-9.55c0-.15,.05-.23,.15-.23,.05,0,.1,.06,.15,.19l2.35,9.66c.08,.33,.28,.5,.62,.5m-26.14,.31c1.64,0,3.09-.35,4.35-1.04,1.26-.69,2.23-1.67,2.93-2.93,.69-1.26,1.04-2.71,1.04-4.35v-18.36c0-.18-.05-.32-.15-.42-.1-.1-.24-.15-.42-.15h-6.08c-.18,0-.32,.05-.42,.15-.1,.1-.15,.24-.15,.42v19.06c0,.44-.1,.78-.29,1.04-.19,.26-.46,.38-.79,.38s-.6-.13-.81-.38c-.21-.26-.31-.6-.31-1.04v-19.06c0-.18-.05-.32-.15-.42-.1-.1-.24-.15-.42-.15h-6.08c-.18,0-.32,.05-.42,.15-.1,.1-.15,.24-.15,.42v18.36c0,1.64,.35,3.09,1.04,4.35,.69,1.26,1.67,2.23,2.92,2.93,1.26,.69,2.72,1.04,4.39,1.04m-25.02-6.74v-14.09c0-.15,.08-.23,.23-.23h.5c.46,0,.83,.18,1.12,.54,.28,.36,.42,.83,.42,1.42v10.59c-.03,.56-.18,1.03-.46,1.39-.28,.36-.63,.55-1.04,.58l-.54,.04c-.15,0-.23-.08-.23-.23m-6.66,6.43h7.58c1.69,0,3.19-.32,4.49-.96,1.3-.64,2.3-1.55,3.02-2.71,.72-1.17,1.08-2.51,1.08-4.02v-11.55c0-1.51-.36-2.85-1.08-4.02-.72-1.17-1.73-2.07-3.02-2.71-1.3-.64-2.79-.96-4.49-.96h-7.58c-.18,0-.32,.05-.42,.15-.1,.1-.15,.24-.15,.42v25.8c0,.18,.05,.32,.15,.42,.1,.1,.24,.15,.42,.15m-21.33-26.95h-16.67c-.18,0-.32,.05-.42,.15-.1,.1-.15,.24-.15,.42v5.04c0,.18,.05,.32,.15,.42,.1,.1,.24,.15,.42,.15h4.43c.15,0,.23,.08,.23,.23v19.94c0,.18,.05,.32,.15,.42,.1,.1,.24,.15,.42,.15h6.08c.18,0,.32-.05,.42-.15,.1-.1,.15-.24,.15-.42v-19.94c0-.15,.08-.23,.23-.23h4.54c.18,0,.32-.05,.42-.15,.1-.1,.15-.24,.15-.42v-5.04c0-.18-.05-.32-.15-.42-.1-.1-.24-.15-.42-.15m-24.02,5.62v-5.04c0-.18-.05-.32-.15-.42-.1-.1-.24-.15-.42-.15h-14.24c-.18,0-.32,.05-.42,.15-.1,.1-.15,.24-.15,.42v25.8c0,.18,.05,.32,.15,.42,.1,.1,.24,.15,.42,.15h14.24c.18,0,.32-.05,.42-.15,.1-.1,.15-.24,.15-.42v-5.04c0-.18-.05-.32-.15-.42-.1-.1-.24-.15-.42-.15h-7.35c-.15,0-.23-.08-.23-.23v-3.74c0-.15,.08-.23,.23-.23h3.81c.18,0,.32-.05,.42-.15,.1-.1,.15-.24,.15-.42v-5.04c0-.18-.05-.32-.15-.42-.1-.1-.24-.15-.42-.15h-3.81c-.15,0-.23-.08-.23-.23v-3.7c0-.15,.08-.23,.23-.23h7.35c.18,0,.32-.05,.42-.15,.1-.1,.15-.24,.15-.42m-53.05,21.33h6.12c.15,0,.29-.04,.42-.13,.13-.09,.21-.21,.23-.37l1.58-5.24c.05-.1,.11-.15,.17-.15s.11,.05,.13,.15l1.58,5.24c.02,.15,.1,.28,.23,.37,.13,.09,.27,.13,.42,.13h6.08c.33,0,.5-.13,.5-.38,0-.1-.01-.19-.04-.27l-5.04-12.67c-.05-.1-.05-.21,0-.31l5.04-12.67c.08-.21,.07-.37-.02-.48-.09-.11-.24-.17-.44-.17h-6.12c-.15,0-.29,.04-.42,.14-.13,.09-.21,.21-.23,.37l-1.54,5.27c-.03,.1-.07,.15-.13,.15s-.12-.05-.17-.15l-1.54-5.27c-.03-.15-.1-.28-.23-.37-.13-.09-.27-.14-.42-.14h-6.16c-.33,0-.5,.13-.5,.39,0,.1,.01,.19,.04,.27l5.04,12.67c.05,.1,.05,.21,0,.31l-5.04,12.67c-.08,.21-.07,.37,.02,.48,.09,.11,.24,.17,.44,.17m-15.82,.31c1.64,0,3.09-.35,4.35-1.04,1.26-.69,2.23-1.67,2.93-2.93,.69-1.26,1.04-2.71,1.04-4.35v-18.36c0-.18-.05-.32-.15-.42-.1-.1-.24-.15-.42-.15h-6.08c-.18,0-.32,.05-.42,.15-.1,.1-.15,.24-.15,.42v19.06c0,.44-.1,.78-.29,1.04-.19,.26-.46,.38-.79,.38s-.6-.13-.81-.38c-.21-.26-.31-.6-.31-1.04v-19.06c0-.18-.05-.32-.15-.42-.1-.1-.24-.15-.42-.15h-6.08c-.18,0-.32,.05-.42,.15-.1,.1-.15,.24-.15,.42v18.36c0,1.64,.35,3.09,1.04,4.35,.69,1.26,1.67,2.23,2.93,2.93,1.26,.69,2.72,1.04,4.39,1.04m-26.1-9.74l.92-6.93c.03-.1,.06-.15,.12-.15s.09,.05,.11,.15l1.04,6.93c.05,.15-.01,.23-.19,.23h-1.81c-.13,0-.19-.08-.19-.23m4.12,9.43h6.2c.36,0,.54-.15,.54-.46v-.15l-5.47-25.83c-.08-.33-.29-.5-.65-.5h-7.01c-.36,0-.58,.17-.65,.5l-5.47,25.83c-.08,.41,.09,.62,.5,.62h6.04c.38,0,.59-.18,.62-.54l.38-2.89c0-.05,.03-.1,.08-.15,.05-.05,.12-.08,.19-.08h3.39c.08,0,.14,.03,.19,.08,.05,.05,.08,.1,.08,.15l.42,2.89c.03,.36,.23,.54,.62,.54m-19.6-21.33v-5.04c0-.18-.05-.32-.15-.42-.1-.1-.24-.15-.42-.15h-14.25c-.18,0-.32,.05-.42,.15-.1,.1-.15,.24-.15,.42v25.8c0,.18,.05,.32,.15,.42,.1,.1,.24,.15,.42,.15h14.25c.18,0,.32-.05,.42-.15,.1-.1,.15-.24,.15-.42v-5.04c0-.18-.05-.32-.15-.42-.1-.1-.24-.15-.42-.15h-7.35c-.15,0-.23-.08-.23-.23v-3.74c0-.15,.08-.23,.23-.23h3.81c.18,0,.32-.05,.42-.15s.15-.24,.15-.42v-5.04c0-.18-.05-.32-.15-.42-.1-.1-.24-.15-.42-.15h-3.81c-.15,0-.23-.08-.23-.23v-3.7c0-.15,.08-.23,.23-.23h7.35c.18,0,.32-.05,.42-.15,.1-.1,.15-.24,.15-.42m-31.3,15.13h-.65c-.15,0-.23-.08-.23-.23v-4.62c0-.15,.08-.23,.23-.23h.69c.49,0,.88,.24,1.18,.71,.29,.48,.44,1.11,.44,1.91s-.15,1.4-.46,1.83c-.31,.42-.71,.64-1.19,.64m-.65-14.55h.19c1.15,0,1.73,.72,1.73,2.16s-.58,2.16-1.73,2.16h-.19c-.15,0-.23-.08-.23-.23v-3.85c0-.15,.08-.23,.23-.23m9.55,13.17c0-2.72-.94-4.8-2.81-6.24-.08-.08-.05-.17,.08-.27,1.46-1.15,2.19-2.91,2.19-5.27,0-2.54-.79-4.44-2.37-5.7-1.58-1.26-3.77-1.89-6.57-1.89h-6.97c-.18,0-.32,.05-.42,.15-.1,.1-.15,.24-.15,.42v25.8c0,.18,.05,.32,.15,.42,.1,.1,.24,.15,.42,.15h8.12c2.41,0,4.4-.65,5.97-1.96,1.56-1.31,2.35-3.18,2.35-5.62m-45.27,7.89c2.46,0,4.45-.69,5.97-2.08,1.51-1.39,2.27-3.25,2.27-5.58,0-1.26-.24-2.36-.71-3.29-.47-.94-1.13-1.78-1.96-2.52-.83-.74-2.07-1.72-3.71-2.93-1.23-.9-2.05-1.59-2.46-2.06-.41-.47-.62-.97-.62-1.48,0-.44,.1-.78,.29-1.04,.19-.26,.46-.39,.79-.39s.6,.12,.81,.36c.21,.24,.31,.56,.31,.94v1c0,.18,.05,.32,.15,.42,.1,.1,.24,.15,.42,.15h5.97c.18,0,.32-.05,.42-.15,.1-.1,.15-.24,.15-.42v-.85c0-1.51-.34-2.85-1.02-4s-1.64-2.05-2.89-2.69c-1.25-.64-2.69-.96-4.33-.96s-3.05,.32-4.29,.96c-1.25,.64-2.21,1.54-2.89,2.69s-1.02,2.49-1.02,4,.31,2.76,.92,3.89c.62,1.13,1.34,2.07,2.18,2.81,.83,.74,1.89,1.56,3.18,2.46,1.31,.92,2.17,1.6,2.58,2.02,.41,.42,.62,.85,.62,1.29,0,.36-.1,.65-.31,.88-.21,.23-.46,.35-.77,.35s-.57-.13-.77-.38c-.21-.26-.31-.59-.31-1v-.85c0-.18-.05-.32-.15-.42-.1-.1-.24-.15-.42-.15h-6.01c-.18,0-.32,.05-.42,.15-.1,.1-.15,.24-.15,.42v1.19c0,1.41,.34,2.66,1.02,3.75,.68,1.09,1.64,1.94,2.87,2.56,1.23,.62,2.67,.92,4.31,.92m-15.13-21.64v-5.04c0-.18-.05-.32-.15-.42-.1-.1-.24-.15-.42-.15h-14.24c-.18,0-.32,.05-.42,.15s-.15,.24-.15,.42v25.8c0,.18,.05,.32,.15,.42,.1,.1,.24,.15,.42,.15h14.24c.18,0,.32-.05,.42-.15s.15-.24,.15-.42v-5.04c0-.18-.05-.32-.15-.42-.1-.1-.24-.15-.42-.15h-7.35c-.15,0-.23-.08-.23-.23v-3.74c0-.15,.08-.23,.23-.23h3.81c.18,0,.32-.05,.42-.15s.15-.24,.15-.42v-5.04c0-.18-.05-.32-.15-.42-.1-.1-.24-.15-.42-.15h-3.81c-.15,0-.23-.08-.23-.23v-3.7c0-.15,.08-.23,.23-.23h7.35c.18,0,.32-.05,.42-.15,.1-.1,.15-.24,.15-.42m-23.06-5.62h-16.67c-.18,0-.32,.05-.42,.15-.1,.1-.15,.24-.15,.42v5.04c0,.18,.05,.32,.15,.42,.1,.1,.24,.15,.42,.15h4.43c.15,0,.23,.08,.23,.23v19.94c0,.18,.05,.32,.15,.42,.1,.1,.24,.15,.42,.15h6.08c.18,0,.32-.05,.42-.15,.1-.1,.15-.24,.15-.42v-19.94c0-.15,.08-.23,.23-.23h4.54c.18,0,.32-.05,.42-.15,.1-.1,.15-.24,.15-.42v-5.04c0-.18-.05-.32-.15-.42-.1-.1-.24-.15-.42-.15m-30.99,26.95h6.08c.18,0,.32-.05,.42-.15,.1-.1,.15-.24,.15-.42v-25.8c0-.18-.05-.32-.15-.42-.1-.1-.24-.15-.42-.15h-6.08c-.18,0-.32,.05-.42,.15-.1,.1-.15,.24-.15,.42v25.8c0,.18,.05,.32,.15,.42,.1,.1,.24,.15,.42,.15m-15.75,.31c2.46,0,4.45-.69,5.97-2.08,1.51-1.39,2.27-3.25,2.27-5.58,0-1.26-.24-2.36-.71-3.29-.48-.94-1.13-1.78-1.96-2.52-.83-.74-2.07-1.72-3.72-2.93-1.23-.9-2.05-1.59-2.46-2.06-.41-.47-.62-.97-.62-1.48,0-.44,.1-.78,.29-1.04,.19-.26,.45-.39,.79-.39s.6,.12,.81,.36c.21,.24,.31,.56,.31,.94v1c0,.18,.05,.32,.15,.42,.1,.1,.24,.15,.42,.15h5.97c.18,0,.32-.05,.42-.15,.1-.1,.15-.24,.15-.42v-.85c0-1.51-.34-2.85-1.02-4-.68-1.15-1.64-2.05-2.89-2.69-1.25-.64-2.69-.96-4.33-.96s-3.05,.32-4.29,.96c-1.24,.64-2.21,1.54-2.89,2.69-.68,1.15-1.02,2.49-1.02,4s.31,2.76,.92,3.89c.62,1.13,1.34,2.07,2.17,2.81,.83,.74,1.89,1.56,3.18,2.46,1.31,.92,2.17,1.6,2.58,2.02,.41,.42,.62,.85,.62,1.29,0,.36-.1,.65-.31,.88-.21,.23-.46,.35-.77,.35s-.56-.13-.77-.38c-.2-.26-.31-.59-.31-1v-.85c0-.18-.05-.32-.15-.42-.1-.1-.24-.15-.42-.15H1.99c-.18,0-.32,.05-.42,.15-.1,.1-.16,.24-.16,.42v1.19c0,1.41,.34,2.66,1.02,3.75,.68,1.09,1.64,1.94,2.87,2.56,1.23,.62,2.67,.92,4.31,.92"/></g></g></g></g></svg>