<svg xmlns="http://www.w3.org/2000/svg" viewBox="0 0 82 27.95"><defs><style>.cls-1{fill:#ffa077;}.cls-2{fill:#24584d;}</style></defs><g id="Calque_2" data-name="Calque 2"><g id="Calque_1-2" data-name="Calque 1"><path class="cls-1" d="M12.37,5.8H.91a.71.71,0,0,0-.35.07.83.83,0,0,0-.3.2.77.77,0,0,0-.19.3A.83.83,0,0,0,0,6.75v7.32a1.07,1.07,0,0,0,.14.49,1.07,1.07,0,0,0,.39.34A1.11,1.11,0,0,0,1,15a1,1,0,0,0,.49-.22L6,10.81a.92.92,0,0,1,.63-.24.87.87,0,0,1,.63.24l4.49,3.94a1.07,1.07,0,0,0,.47.22.91.91,0,0,0,.9-.41,1,1,0,0,0,.14-.49V6.75A.9.9,0,0,0,13,6.07.89.89,0,0,0,12.37,5.8Z"/><path class="cls-1" d="M11.88,19,7.19,14.86a.87.87,0,0,0-1.1,0L1.4,19c-.75.65-.26,2.1.71,1.88a27.55,27.55,0,0,0,4.17-2,.83.83,0,0,1,.72,0,27.66,27.66,0,0,0,4.18,2C12.15,21.05,12.63,19.6,11.88,19Z"/><path class="cls-1" d="M6.65,22.35h0a1.89,1.89,0,0,0-1.9,1.89,1.93,1.93,0,0,0,.55,1.35,1.9,1.9,0,1,0,1.35-3.24Z"/><path class="cls-2" d="M29.74,11.29q-.58-.15-1.35-.3a7.81,7.81,0,0,0-1.67-.16,6.73,6.73,0,0,0-1,.07,4.11,4.11,0,0,0-.85.16V22.62H20.62V8.3a21.53,21.53,0,0,1,2.72-.76,14.68,14.68,0,0,1,3.49-.36h.83l1,.11a5.14,5.14,0,0,1,1,.18,4,4,0,0,1,.84.24Z"/><path class="cls-2" d="M30.31,15.17a9.37,9.37,0,0,1,.62-3.52,7.49,7.49,0,0,1,1.63-2.52,6.59,6.59,0,0,1,2.31-1.52,6.93,6.93,0,0,1,2.69-.52,6.71,6.71,0,0,1,5.1,2,8.12,8.12,0,0,1,1.87,5.79v.82a3.25,3.25,0,0,1-.06.79H34.71A2.81,2.81,0,0,0,36,18.59a5,5,0,0,0,2.93.78,12.83,12.83,0,0,0,2.32-.21,8.92,8.92,0,0,0,1.85-.53l.58,3.48a7.22,7.22,0,0,1-.92.34c-.42.12-.85.23-1.28.31s-1,.16-1.51.21a14.66,14.66,0,0,1-1.62.09,9.55,9.55,0,0,1-3.55-.61,7,7,0,0,1-2.5-1.7,6.56,6.56,0,0,1-1.47-2.49A9.82,9.82,0,0,1,30.31,15.17Zm10.07-1.64a4.21,4.21,0,0,0-.19-1.06,2.63,2.63,0,0,0-.49-.92,2.53,2.53,0,0,0-.83-.66,2.58,2.58,0,0,0-1.25-.26,3,3,0,0,0-1.24.24,2.48,2.48,0,0,0-.86.65,2.53,2.53,0,0,0-.53.93,5,5,0,0,0-.27,1.08Z"/><path class="cls-2" d="M82,7.5c-.86,2.92-1.77,5.65-2.71,8.2s-2,5-3.08,7.42A15.7,15.7,0,0,1,75,25.32a6.74,6.74,0,0,1-1.32,1.5,4.73,4.73,0,0,1-1.63.86,7.54,7.54,0,0,1-2.11.27,9.79,9.79,0,0,1-3.26-.59l.75-3.43a6.55,6.55,0,0,0,2.27.41,2.45,2.45,0,0,0,1.76-.59A5.13,5.13,0,0,0,72.51,22c-1-1.94-2-4.11-2.94-6.49a81.24,81.24,0,0,1-2.76-8h4.55c.19.75.41,1.56.67,2.43s.53,1.75.82,2.64.59,1.76.88,2.61.59,1.61.86,2.3c.25-.7.51-1.46.78-2.31s.53-1.71.79-2.6.51-1.77.76-2.64.45-1.69.65-2.43Z"/><path class="cls-2" d="M65.41,18.85a6.17,6.17,0,0,1-1.34.36,8.44,8.44,0,0,1-1.42.14,2,2,0,0,1-1.91-.81,4.28,4.28,0,0,1-.48-2.16V11.05h5.15V7.49H60.26V6.68a6.94,6.94,0,0,0-13.87,0V22.62h4.29V11.05h3.41V7.49H50.68V6.68A2.65,2.65,0,1,1,56,6.35a1.82,1.82,0,0,1,0,.33v9.76a12.07,12.07,0,0,0,.27,2.68,5,5,0,0,0,1,2.05,4.66,4.66,0,0,0,1.84,1.32A7.81,7.81,0,0,0,62,23a11.14,11.14,0,0,0,2.3-.22A12.66,12.66,0,0,0,66,22.19Z"/><path class="cls-1" d="M12.37,5.8H.91a.71.71,0,0,0-.35.07.83.83,0,0,0-.3.2.77.77,0,0,0-.19.3A.83.83,0,0,0,0,6.75v7.32a1.07,1.07,0,0,0,.14.49,1.07,1.07,0,0,0,.39.34A1.11,1.11,0,0,0,1,15a1,1,0,0,0,.49-.22L6,10.81a.92.92,0,0,1,.63-.24.87.87,0,0,1,.63.24l4.49,3.94a1.07,1.07,0,0,0,.47.22.91.91,0,0,0,.9-.41,1,1,0,0,0,.14-.49V6.75A.9.9,0,0,0,13,6.07.89.89,0,0,0,12.37,5.8Z"/><path class="cls-1" d="M11.88,19,7.19,14.86a.87.87,0,0,0-1.1,0L1.4,19c-.75.65-.26,2.1.71,1.88a27.55,27.55,0,0,0,4.17-2,.83.83,0,0,1,.72,0,27.66,27.66,0,0,0,4.18,2C12.15,21.05,12.63,19.6,11.88,19Z"/><path class="cls-1" d="M6.65,22.35h0a1.89,1.89,0,0,0-1.9,1.89,1.93,1.93,0,0,0,.55,1.35,1.9,1.9,0,1,0,1.35-3.24Z"/><path class="cls-2" d="M29.74,11.29q-.58-.15-1.35-.3a7.81,7.81,0,0,0-1.67-.16,6.73,6.73,0,0,0-1,.07,4.11,4.11,0,0,0-.85.16V22.62H20.62V8.3a21.53,21.53,0,0,1,2.72-.76,14.68,14.68,0,0,1,3.49-.36h.83l1,.11a5.14,5.14,0,0,1,1,.18,4,4,0,0,1,.84.24Z"/><path class="cls-2" d="M30.31,15.17a9.37,9.37,0,0,1,.62-3.52,7.49,7.49,0,0,1,1.63-2.52,6.59,6.59,0,0,1,2.31-1.52,6.93,6.93,0,0,1,2.69-.52,6.71,6.71,0,0,1,5.1,2,8.12,8.12,0,0,1,1.87,5.79v.82a3.25,3.25,0,0,1-.06.79H34.71A2.81,2.81,0,0,0,36,18.59a5,5,0,0,0,2.93.78,12.83,12.83,0,0,0,2.32-.21,8.92,8.92,0,0,0,1.85-.53l.58,3.48a7.22,7.22,0,0,1-.92.34c-.42.12-.85.23-1.28.31s-1,.16-1.51.21a14.66,14.66,0,0,1-1.62.09,9.55,9.55,0,0,1-3.55-.61,7,7,0,0,1-2.5-1.7,6.56,6.56,0,0,1-1.47-2.49A9.82,9.82,0,0,1,30.31,15.17Zm10.07-1.64a4.21,4.21,0,0,0-.19-1.06,2.63,2.63,0,0,0-.49-.92,2.53,2.53,0,0,0-.83-.66,2.58,2.58,0,0,0-1.25-.26,3,3,0,0,0-1.24.24,2.48,2.48,0,0,0-.86.65,2.53,2.53,0,0,0-.53.93,5,5,0,0,0-.27,1.08Z"/><path class="cls-2" d="M82,7.5c-.86,2.92-1.77,5.65-2.71,8.2s-2,5-3.08,7.42A15.7,15.7,0,0,1,75,25.32a6.74,6.74,0,0,1-1.32,1.5,4.73,4.73,0,0,1-1.63.86,7.54,7.54,0,0,1-2.11.27,9.79,9.79,0,0,1-3.26-.59l.75-3.43a6.55,6.55,0,0,0,2.27.41,2.45,2.45,0,0,0,1.76-.59A5.13,5.13,0,0,0,72.51,22c-1-1.94-2-4.11-2.94-6.49a81.24,81.24,0,0,1-2.76-8h4.55c.19.75.41,1.56.67,2.43s.53,1.75.82,2.64.59,1.76.88,2.61.59,1.61.86,2.3c.25-.7.51-1.46.78-2.31s.53-1.71.79-2.6.51-1.77.76-2.64.45-1.69.65-2.43Z"/><path class="cls-2" d="M65.41,18.85a6.17,6.17,0,0,1-1.34.36,8.44,8.44,0,0,1-1.42.14,2,2,0,0,1-1.91-.81,4.28,4.28,0,0,1-.48-2.16V11.05h5.15V7.49H60.26V6.68a6.94,6.94,0,0,0-13.87,0V22.62h4.29V11.05h3.41V7.49H50.68V6.68A2.65,2.65,0,1,1,56,6.35a1.82,1.82,0,0,1,0,.33v9.76a12.07,12.07,0,0,0,.27,2.68,5,5,0,0,0,1,2.05,4.66,4.66,0,0,0,1.84,1.32A7.81,7.81,0,0,0,62,23a11.14,11.14,0,0,0,2.3-.22A12.66,12.66,0,0,0,66,22.19Z"/></g></g></svg>