<svg xmlns="http://www.w3.org/2000/svg" xmlns:xlink="http://www.w3.org/1999/xlink" viewBox="0 0 366.18 127.5"><defs><style>.cls-1{fill:none;}.cls-2{clip-path:url(#clip-path);}.cls-3{fill:#303880;}.cls-4{fill:#af1d1f;}</style><clipPath id="clip-path" transform="translate(0 0)"><rect class="cls-1" width="366.18" height="127.5"/></clipPath></defs><g id="Calque_2" data-name="Calque 2"><g id="Calque_1-2" data-name="Calque 1"><g id="Illustration_9" data-name="Illustration 9"><g class="cls-2"><polygon class="cls-3" points="85.61 0 80.17 13.49 94.1 13.49 82.95 41.34 99.48 41.34 110.64 13.49 124.56 13.49 129.95 0 85.61 0"/><polygon class="cls-3" points="321.85 0 316.41 13.49 330.33 13.49 319.18 41.34 335.72 41.34 346.87 13.49 360.8 13.49 366.18 0 321.85 0"/><polygon class="cls-3" points="277.9 0 261.31 41.34 300.15 41.34 304.12 31.33 278.28 31.33 281.32 23.93 298.73 23.93 301.34 17.41 284.1 17.41 286.76 10.01 312.66 10.01 316.68 0 277.9 0"/><polygon class="cls-3" points="259.79 0 251.9 19.64 240.15 0 228.45 0 211.86 41.34 224.92 41.34 232.75 21.7 244.5 41.34 256.25 41.34 272.79 0 259.79 0"/><path class="cls-3" d="M187.87,10h18.28l-2.72,7.4H185.21ZM179,0,162.42,41.34h13.05l4.19-10.44h12.68l3.37,5.65-2,4.79h13.06l4.84-12.18L209.14,25,215,20.89l6.48-16.1L218.55,0Z" transform="translate(0 0)"/><polygon class="cls-3" points="135.06 0 118.47 41.34 157.31 41.34 161.28 31.33 135.44 31.33 138.49 23.93 155.89 23.93 158.5 17.41 141.26 17.41 143.93 10.01 169.82 10.01 173.84 0 135.06 0"/><polygon class="cls-3" points="16.76 0 0.17 41.34 13.22 41.34 29.76 0 16.76 0"/><polygon class="cls-3" points="67.17 0 59.29 19.64 47.54 0 35.84 0 19.25 41.34 32.31 41.34 40.14 21.7 51.89 41.34 63.64 41.34 80.17 0 67.17 0"/><path class="cls-3" d="M251.47,88.79H207.08l-1.34,3.4h44.39Zm-4.16-22.13L246,70.05h12.89l1.34-3.39Zm9.36,8.93,1.34-3.4H245.1l-1.35,3.4Zm-3,7.67H209.27l-1.34,3.39h44.38Zm-29.07-5.53H211.46l-1.34,3.39h44.37l1.34-3.39H242.9l-.68,1.71H223.89Zm2.22-5.54H213.65l-1.34,3.4h13.13ZM229,66.66H215.84l-1.35,3.39h13.17Zm33.35-5.54H218l-1.34,3.4H261Zm2.18-5.53H220.21L218.87,59h44.34Zm.84-2.14,1.13-2.85H222.19l-1.13,2.85Z" transform="translate(0 0)"/><path class="cls-3" d="M350.36,88.79H306l-1.34,3.4H349Zm-4.17-22.13-1.35,3.39h12.9l1.34-3.39Zm9.37,8.93,1.34-3.4H344l-1.35,3.4Zm-3,7.67H308.16l-1.34,3.39H351.2Zm-29.07-5.53H310.35L309,81.12h44.37l1.34-3.39H341.79l-.68,1.71H322.78Zm2.22-5.54H312.54l-1.34,3.4h13.13Zm2.22-5.53H314.73l-1.35,3.39h13.17Zm33.35-5.54H316.91l-1.34,3.4h44.35Zm2.18-5.53H319.1L317.76,59H362.1Zm.84-2.14,1.13-2.85H321.07L320,53.45Z" transform="translate(0 0)"/><path class="cls-3" d="M300.91,88.79H256.53l-1.34,3.4h44.38Zm-4.16-22.13-1.35,3.39h12.9l1.33-3.39Zm9.37,8.93,1.33-3.4h-12.9l-1.35,3.4Zm-3,7.67H258.72l-1.34,3.39h44.37ZM274,77.73H260.91l-1.35,3.39h44.37l1.34-3.39H292.35l-.69,1.71H273.33Zm2.22-5.54H263.09l-1.34,3.4h13.13Zm2.23-5.53H265.28l-1.34,3.39H277.1Zm33.34-5.54H267.47l-1.34,3.4h44.35ZM314,55.59H269.66L268.32,59h44.34Zm.84-2.14L316,50.6H271.63l-1.13,2.85Z" transform="translate(0 0)"/><path class="cls-3" d="M202,88.79H157.67l-1.37,3.4h44.39Zm2.2-5.53H159.9l-1.37,3.39h44.35Zm-29.11-5.53h-13l-1.36,3.39h13Zm33.53-5.54h-44.3L163,75.59h13l0-.06h31.33ZM197,69H165.63l-.42,1h44.28l1.32-3.39H197.87ZM213,61.12H168.74l-.51,1.33H199.4l-.75,2.07h13Zm2.16-5.53H170.84L169.55,59H213.8Zm.83-2.14,1.11-2.85H172.74l-1.08,2.85Z" transform="translate(0 0)"/><g class="cls-2"><path class="cls-4" d="M144.35,112.12H147s-.44-7.48-7.92-7.48c-5.71,0-7.32,4-7.32,11.87,0,8.21,2.49,11,7.62,11,6.3,0,7.83-7.18,7.83-7.18h-2.24s-1.64,3.81-4.27,3.81-2.64-4.39-2.64-8.06-.15-7.91,2.78-7.91c2.58,0,3.55,4,3.55,4" transform="translate(0 0)"/></g><polygon class="cls-4" points="42.98 126.56 48.31 104.64 53.99 104.64 58.86 126.56 55.63 126.61 52.76 112.44 51.83 112.44 49.6 126.56 42.98 126.56"/><polygon class="cls-4" points="49.42 119.71 56.16 119.71 56.16 123.11 49.13 123.11 49.42 119.71"/><rect class="cls-4" y="123.21" width="13.3" height="3.4"/><rect class="cls-4" y="104.64" width="5.86" height="21.97"/><rect class="cls-4" x="88.53" y="104.64" width="13.3" height="3.4"/><rect class="cls-4" x="88.53" y="123.21" width="13.3" height="3.4"/><rect class="cls-4" x="88.53" y="104.64" width="5.86" height="21.97"/><rect class="cls-4" x="92.69" y="113.93" width="5.86" height="3.4"/><rect class="cls-4" x="154.93" y="104.64" width="13.3" height="3.4"/><rect class="cls-4" x="154.93" y="123.21" width="13.3" height="3.4"/><rect class="cls-4" x="154.93" y="104.64" width="5.86" height="21.97"/><rect class="cls-4" x="159.09" y="113.93" width="5.86" height="3.4"/><polygon class="cls-4" points="29.84 113.91 27.85 113.91 26.44 104.64 29.84 104.64 29.84 113.91"/><g class="cls-2"><path class="cls-4" d="M78,112.12h2.61s.81-7.48-7.91-7.48c-5.72,0-7.33,4-7.33,11.87,0,8.21,2.49,11,7.63,11,7.83,0,7.83-8.47,7.83-8.47l-3-.66s.27,5.76-3.49,5.76c-2.64,0-2.64-4.39-2.64-8.06s-.15-7.91,2.78-7.91,3.55,4,3.55,4" transform="translate(0 0)"/></g><rect class="cls-4" x="73.97" y="115.63" width="6.8" height="3.4"/><rect class="cls-4" x="110.66" y="104.64" width="5.63" height="21.97"/><rect class="cls-4" x="120.59" y="104.64" width="3.37" height="21.97"/><polygon class="cls-4" points="116.3 104.64 122.2 126.56 119.66 126.61 113.59 104.64 116.3 104.64"/><rect class="cls-4" x="191.82" y="104.64" width="6.1" height="22.86"/><g class="cls-2"><path class="cls-4" d="M196.92,124.56h3c4.14,0,4.17-6.29,4.17-8.62s-.12-8-4.36-8H196.4l1.52-3.26h2.52c4.8,0,7.12,5.47,7.12,11s-1.37,11.91-7.87,11.91H197Z" transform="translate(0 0)"/></g><rect class="cls-4" x="219.08" y="104.64" width="6.1" height="16.48"/><rect class="cls-4" x="231.7" y="104.64" width="3.51" height="16.48"/><g class="cls-2"><path class="cls-4" d="M225.18,117.17v4c0,1.89.85,3.77,3.11,3.77s3.41-1.22,3.41-3.77v-4.24l3.51,2v2.26c0,2.45-1.46,6.38-7.63,6.38s-8.5-2.94-8.5-6.38v-4.47Z" transform="translate(0 0)"/></g><rect class="cls-4" x="309.19" y="104.64" width="5.86" height="21.97"/><rect class="cls-4" x="304.88" y="104.64" width="14.48" height="3.35"/><rect class="cls-4" x="326.87" y="104.64" width="5.86" height="15.84"/><rect class="cls-4" x="339" y="104.64" width="3.37" height="15.84"/><g class="cls-2"><path class="cls-4" d="M332.73,116.68v3.8c0,1.81.81,3.62,3,3.62s3.28-1.17,3.28-3.62v-4.07l3.37,1.9v2.17c0,2.36-1.4,6.13-7.33,6.13s-8.17-2.82-8.17-6.13v-4.3Z" transform="translate(0 0)"/></g><rect class="cls-4" x="260.9" y="104.64" width="13.3" height="3.4"/><rect class="cls-4" x="260.9" y="104.64" width="5.86" height="21.97"/><rect class="cls-4" x="265.06" y="113.93" width="5.86" height="3.4"/><rect class="cls-4" x="281.46" y="104.64" width="5.86" height="15.84"/><rect class="cls-4" x="293.59" y="104.64" width="3.37" height="15.84"/><g class="cls-2"><path class="cls-4" d="M287.32,116.68v3.8c0,1.81.81,3.62,3,3.62s3.28-1.17,3.28-3.62v-4.07l3.37,1.9v2.17c0,2.36-1.4,6.13-7.33,6.13s-8.17-2.82-8.17-6.13v-4.3Z" transform="translate(0 0)"/></g><rect class="cls-4" x="350.28" y="104.64" width="5.86" height="21.97"/><g class="cls-2"><path class="cls-4" d="M355.18,114.53h4.23c1.65,0,2.62-1.09,2.62-3.33s-.79-3.42-3.42-3.42h-3.93l1.46-3.14h4.15c2.42,0,5.12,2.56,5.12,6.22s-1.84,6.5-5.37,6.5h-4.75Z" transform="translate(0 0)"/></g><polygon class="cls-4" points="361.12 116.03 364.63 126.56 361.41 126.61 357.74 116.03 361.12 116.03"/></g></g></g></g></svg>