<svg xmlns="http://www.w3.org/2000/svg" viewBox="0 0 161.37 159.46"><defs><style>.cls-1{fill:#3a4257;}</style></defs><g id="Calque_2" data-name="Calque 2"><g id="Calque_1-2" data-name="Calque 1"><polygon class="cls-1" points="0.78 67.33 0.72 68.18 17.01 74.58 0.05 78.94 0 79.79 17.84 83.14 17.86 82.81 3.77 80.2 18.26 76.39 18.36 74.77 4.27 69.22 18.76 68.35 18.89 66.22 0.78 67.33"/><path class="cls-1" d="M9.25,55.07a3.91,3.91,0,0,0,.64,3.62,7.93,7.93,0,0,0,4.19,2.73,7.33,7.33,0,0,0,4.74.31,3.79,3.79,0,0,0,2.4-2.51,3.91,3.91,0,0,0-.64-3.62,8,8,0,0,0-4.19-2.74,7.39,7.39,0,0,0-4.74-.31,3.82,3.82,0,0,0-2.4,2.52m12.18,4.18A6.35,6.35,0,0,1,18.58,63a6.14,6.14,0,0,1-5,.12,6.78,6.78,0,0,1-4.2-3.23A6.06,6.06,0,0,1,9.05,55a6.27,6.27,0,0,1,2.84-3.71A6.16,6.16,0,0,1,17,51.2a6.8,6.8,0,0,1,4.19,3.24,6.1,6.1,0,0,1,.29,4.81"/><path class="cls-1" d="M25.6,49.19c-.68,1.34-1.46,2-2.35,2a1.09,1.09,0,0,1-.47-.09l-15.71-8,.82-1.61,15.55,7.92a1.9,1.9,0,0,0,1.15.26.91.91,0,0,0,.66-.35l.17-.23.36-.71.19.09Z"/><path class="cls-1" d="M31.35,48.39q1.07,1.7.39,2.7a5.35,5.35,0,0,1-.84.95l-.18-.11a4,4,0,0,0,.72-.8,2.2,2.2,0,0,0-.22-2.55l-2.64-4.35,0,0L15.2,41.12l1-1.51,11.14,2.62-4.61-7.79a2.58,2.58,0,0,0-.9-1,1.51,1.51,0,0,0-1.18-.29l0-.21a.82.82,0,0,1,.41,0,1.41,1.41,0,0,1,.5.08l.34.18a3.72,3.72,0,0,1,1,1L28.71,44Z"/><path class="cls-1" d="M41.18,30.1A4.75,4.75,0,0,0,43,27.56a2.75,2.75,0,0,0-.08-2.25l-5.54-7.17a8.26,8.26,0,0,0-3,1.29A3.84,3.84,0,0,0,32.73,23a9.08,9.08,0,0,0,2.14,4.66q3.56,4.61,6.31,2.48m-7.73-1.37a7.54,7.54,0,0,1-1.89-5.09,6.17,6.17,0,0,1,2.73-4.42A6.83,6.83,0,0,1,37.19,18l-4.33-5.6,1.43-1.1L45,25.06a1.85,1.85,0,0,0,.93.73.87.87,0,0,0,.74,0l.26-.13.63-.49.12.17-1.24,1a2.4,2.4,0,0,1-1.55.61,1.36,1.36,0,0,1-1-.38l-.29-.33-.25-.32a4.4,4.4,0,0,1-.3,2.25,5,5,0,0,1-1.7,2.19q-4.23,3.11-7.83-1.55"/><path class="cls-1" d="M49.93,11.35a2.89,2.89,0,0,0-2.67,0,3.42,3.42,0,0,0-1.76,2.32,6.56,6.56,0,0,0,.29,3.83l6.63-3.32a6.1,6.1,0,0,0-2.49-2.84M46.43,19a7.74,7.74,0,0,0,3.1,3.69,3.48,3.48,0,0,0,3.3,0A12.82,12.82,0,0,0,56.58,20l.15.13a12.66,12.66,0,0,1-3.8,2.79,5.83,5.83,0,0,1-4.45.5,6.32,6.32,0,0,1-3.58-3.53,6.91,6.91,0,0,1-.71-5.23,5.7,5.7,0,0,1,3.07-3.52A5.21,5.21,0,0,1,51,10.67a4.69,4.69,0,0,1,3,2.69c0,.08.07.16.11.23L45.86,17.7A12.52,12.52,0,0,0,46.43,19"/><path class="cls-1" d="M62.39,6.61A3.71,3.71,0,0,0,61,6.44a6.39,6.39,0,0,0-1.39.17l-.52.15A2.66,2.66,0,0,0,57.33,8a2.2,2.2,0,0,0-.16,1.64,2,2,0,0,0,.92,1.22,3.57,3.57,0,0,0,1.55.48l1.88.21c.68.09,1.32.19,1.92.31a3.62,3.62,0,0,1,1.64.81,3.54,3.54,0,0,1,1.09,1.78,2.82,2.82,0,0,1-.23,2.22,4.28,4.28,0,0,1-1.5,1.62,8.94,8.94,0,0,1-2.08.9,5.72,5.72,0,0,1-4.1,0l.1-.19a3.7,3.7,0,0,0,1.7.33,6.61,6.61,0,0,0,2-.26,3.67,3.67,0,0,0,2.17-1.51,2.63,2.63,0,0,0,.37-2.28,2.77,2.77,0,0,0-1.29-1.71A5.1,5.1,0,0,0,61.21,13c-.76-.08-1.53-.14-2.3-.21a5.31,5.31,0,0,1-2.09-.62,2.45,2.45,0,0,1-1.21-1.48,2.67,2.67,0,0,1,0-1.7,2.45,2.45,0,0,1,.94-1.2,7.89,7.89,0,0,1,2.39-1.16,6.19,6.19,0,0,1,3.54-.19Z"/><path class="cls-1" d="M66,2a1,1,0,0,1-.43-.71,1.14,1.14,0,0,1,.17-.83A1.11,1.11,0,0,1,67.31.21a1.07,1.07,0,0,1,.45.72,1.06,1.06,0,0,1-.19.81,1.14,1.14,0,0,1-.73.44A1.05,1.05,0,0,1,66,2m4.63,15.19A2.44,2.44,0,0,1,69,17a1.37,1.37,0,0,1-.73-.82l-.1-.42L66.35,4.87l1.78-.3L70,15.46a1.88,1.88,0,0,0,.48,1.08.86.86,0,0,0,.64.32h.32l.78-.13,0,.2Z"/><path class="cls-1" d="M78.27,16.31a4.8,4.8,0,0,0,2.93-1,2.75,2.75,0,0,0,1.26-1.86l-.24-9.08a8.61,8.61,0,0,0-3.16-.69,3.84,3.84,0,0,0-3.4,1.88,9.2,9.2,0,0,0-1,5c.1,3.88,1.31,5.78,3.63,5.72m-5.44-5.67a7.6,7.6,0,0,1,1.48-5.22,6.18,6.18,0,0,1,4.82-1.95A14.73,14.73,0,0,1,84,4.18l.34,12.43c.09,4.08-1.63,6.17-5.18,6.27a7.19,7.19,0,0,1-5.07-1.77l.17-.16a7.4,7.4,0,0,0,4.89,1.72c2.37-.06,3.5-2.07,3.39-6l-.07-2.55a4.38,4.38,0,0,1-1.58,1.64,5.06,5.06,0,0,1-2.65.77q-5.25,0-5.42-5.88"/><path class="cls-1" d="M97.12,18.55a2.43,2.43,0,0,1-1.49-.76,1.33,1.33,0,0,1-.39-1l.06-.44L96.86,8.4c.26-1.33.09-2.24-.53-2.75a3,3,0,0,0-1.26-.51,4.13,4.13,0,0,0-3.16.7,3.64,3.64,0,0,0-1.74,2l-1.77,9-1.76-.34L89.13,3.86l1.77.35-.57,2.88a5.18,5.18,0,0,1,2-1.72,4,4,0,0,1,2.74-.44,8,8,0,0,1,2.2.71,2.61,2.61,0,0,1,1.13,1,3.14,3.14,0,0,1,.23,2.15l-1.55,7.9a1.89,1.89,0,0,0,.06,1.18,1,1,0,0,0,.52.54l.26.1.79.16,0,.2Z"/><polygon class="cls-1" points="106.63 21.72 106.35 21.54 117.9 7.53 118.61 7.99 114.25 24.94 127.72 13.77 128.43 14.22 120.67 30.63 118.86 29.48 125.09 16.37 113.43 26.04 112.06 25.17 115.72 10.63 106.63 21.72"/><path class="cls-1" d="M135.11,27.56a3.92,3.92,0,0,0-3.49-1.19,8,8,0,0,0-4.41,2.36,7.41,7.41,0,0,0-2.55,4,3.82,3.82,0,0,0,1,3.32,3.88,3.88,0,0,0,3.48,1.18,8,8,0,0,0,4.42-2.36,7.35,7.35,0,0,0,2.55-4,3.81,3.81,0,0,0-1-3.32m-9.53,8.66a6.34,6.34,0,0,1-1.88-4.28A6.15,6.15,0,0,1,126,27.45a6.78,6.78,0,0,1,4.86-2.12,6,6,0,0,1,4.35,2.06,6.29,6.29,0,0,1,1.88,4.28,6.11,6.11,0,0,1-2.32,4.49,6.77,6.77,0,0,1-4.85,2.12,6.07,6.07,0,0,1-4.36-2.06"/><path class="cls-1" d="M132.37,44.71c-.85-1.25-1.05-2.26-.62-3a.87.87,0,0,1,.31-.36l14.59-9.9,1,1.49L133.22,42.7a1.93,1.93,0,0,0-.78.89.86.86,0,0,0,0,.74l.11.27.45.66-.17.11Z"/><path class="cls-1" d="M130.29,50.11c-1.33.07-2.19-.25-2.56-1a5.92,5.92,0,0,1-.42-1.2l.18-.1a4.23,4.23,0,0,0,.35,1,2.2,2.2,0,0,0,2.34,1l5.09-.2v0l9.21-10.19.83,1.6-7.69,8.49,9.06-.27A2.5,2.5,0,0,0,148,49a1.48,1.48,0,0,0,.82-.88l.21.06a.89.89,0,0,1-.15.38,1.37,1.37,0,0,1-.32.4,1.75,1.75,0,0,1-.32.21,3.5,3.5,0,0,1-1.4.38l-11.42.36Z"/><path class="cls-1" d="M141.54,67.57a4.82,4.82,0,0,0,1.38,2.79,2.8,2.8,0,0,0,2,1l9-1.4a8.15,8.15,0,0,0,.31-3.22,3.88,3.88,0,0,0-2.3-3.14,9.29,9.29,0,0,0-5.13-.37c-3.83.6-5.57,2.05-5.21,4.33m4.93-6.11a7.59,7.59,0,0,1,5.37.81,6.13,6.13,0,0,1,2.55,4.52,6.72,6.72,0,0,1-.29,3.14l7-1.09.28,1.78-17.24,2.7a1.81,1.81,0,0,0-1.08.47.91.91,0,0,0-.33.66v.29l.13.79-.21,0L142.39,74a2.42,2.42,0,0,1,.21-1.66,1.33,1.33,0,0,1,.83-.72l.43-.09.4-.07a4.39,4.39,0,0,1-1.82-1.35,4.91,4.91,0,0,1-1.1-2.54q-.69-5.2,5.13-6.12"/><path class="cls-1" d="M153.76,84.29A2.89,2.89,0,0,0,155,81.94a3.41,3.41,0,0,0-1.18-2.66,6.48,6.48,0,0,0-3.49-1.59l-.29,7.4a6,6,0,0,0,3.69-.8m-5-6.77a7.87,7.87,0,0,0-4.73.94,3.48,3.48,0,0,0-1.6,2.88A12.68,12.68,0,0,0,143,86l-.18.07a12.66,12.66,0,0,1-.62-4.67,5.89,5.89,0,0,1,1.71-4.15,6.3,6.3,0,0,1,4.82-1.43,6.91,6.91,0,0,1,4.92,1.89,5.76,5.76,0,0,1,1.61,4.39,5.26,5.26,0,0,1-1.4,3.5,4.67,4.67,0,0,1-3.79,1.29h-.25l.35-9.18a13.1,13.1,0,0,0-1.43-.13"/><path class="cls-1" d="M151.88,97.53a3.45,3.45,0,0,0,.84-1.17,5.86,5.86,0,0,0,.53-1.3c.07-.3.1-.47.11-.52a2.68,2.68,0,0,0-.25-2.12,2.2,2.2,0,0,0-1.36-.93,2,2,0,0,0-1.51.22,3.47,3.47,0,0,0-1.17,1.12c-.33.48-.7,1-1.1,1.55s-.8,1.06-1.2,1.53a3.7,3.7,0,0,1-1.5,1,3.61,3.61,0,0,1-2.08.09,2.81,2.81,0,0,1-1.83-1.28,4.3,4.3,0,0,1-.7-2.09,8.49,8.49,0,0,1,.22-2.26,5.79,5.79,0,0,1,2-3.59L143,88a3.79,3.79,0,0,0-1.11,1.32,6.84,6.84,0,0,0-.73,1.86,3.76,3.76,0,0,0,.27,2.63,2.64,2.64,0,0,0,1.82,1.42,2.72,2.72,0,0,0,2.12-.3,5.17,5.17,0,0,0,1.55-1.51l1.3-1.91A5,5,0,0,1,149.75,90a2.44,2.44,0,0,1,1.88-.35,2.76,2.76,0,0,1,1.5.81,2.5,2.5,0,0,1,.6,1.4,8.41,8.41,0,0,1-.15,2.66A6.09,6.09,0,0,1,152,97.69Z"/><path class="cls-1" d="M154.17,102.91a1.13,1.13,0,0,1,1.46.52,1,1,0,0,1,.05.84,1.06,1.06,0,0,1-.56.63,1.09,1.09,0,0,1-.85,0,1,1,0,0,1-.62-.56,1.06,1.06,0,0,1,0-.84,1,1,0,0,1,.55-.63M138.63,99.6a2.52,2.52,0,0,1,1-1.36,1.43,1.43,0,0,1,1.07-.24l.42.13,10.41,3.68-.6,1.69-10.41-3.68a1.92,1.92,0,0,0-1.18-.1.89.89,0,0,0-.59.41l-.15.27-.27.75-.19-.07Z"/><path class="cls-1" d="M135.71,106.7a4.85,4.85,0,0,0-.53,3.06,2.78,2.78,0,0,0,1,2l8.06,4.18a8.35,8.35,0,0,0,2.13-2.43,3.86,3.86,0,0,0,0-3.89,9.22,9.22,0,0,0-3.91-3.33q-5.17-2.67-6.77.41m7.6-2a7.52,7.52,0,0,1,3.84,3.82,6.16,6.16,0,0,1-.61,5.16,14.74,14.74,0,0,1-3,3.93l-11-5.72q-5.43-2.84-3-7.57a7.19,7.19,0,0,1,4-3.58l.06.23a7.32,7.32,0,0,0-3.87,3.45q-1.64,3.15,3.62,5.87l2.26,1.17a4.35,4.35,0,0,1-.67-2.17,5.11,5.11,0,0,1,.61-2.7c1.69-3.06,4.28-3.7,7.77-1.89"/><path class="cls-1" d="M124.65,122.14a2.49,2.49,0,0,1,1.39-.94,1.41,1.41,0,0,1,1.08.15l.35.27,6.2,5.18c1,.87,1.93,1.16,2.67.86a3.12,3.12,0,0,0,1.06-.86,4.12,4.12,0,0,0,.9-3.1,3.58,3.58,0,0,0-.94-2.5l-7-5.87,1.16-1.38,9.86,8.26-1.15,1.38L138,121.71a5.22,5.22,0,0,1,.55,2.57,4.12,4.12,0,0,1-.93,2.62,8.29,8.29,0,0,1-1.69,1.59,2.65,2.65,0,0,1-1.42.51,3.23,3.23,0,0,1-2-.83L126.32,123a1.9,1.9,0,0,0-1.07-.51.87.87,0,0,0-.71.19l-.23.18-.51.62-.16-.14Z"/><polygon class="cls-1" points="117.3 128.96 117.6 128.8 124.27 145.68 123.53 146.09 110.8 134.07 114.07 151.26 113.32 151.67 102.72 136.94 104.59 135.91 113.06 147.71 110.24 132.82 111.66 132.05 122.62 142.28 117.3 128.96"/><path class="cls-1" d="M98.45,151a3.9,3.9,0,0,0,2.72-2.47,8,8,0,0,0,.07-5A7.29,7.29,0,0,0,99,139.39a3.81,3.81,0,0,0-3.41-.68,3.88,3.88,0,0,0-2.72,2.47,8,8,0,0,0-.07,5A7.29,7.29,0,0,0,95,150.35a3.78,3.78,0,0,0,3.41.69m-3-12.52a6.33,6.33,0,0,1,4.66.42,6.12,6.12,0,0,1,2.8,4.21,6.75,6.75,0,0,1-.49,5.27,6.06,6.06,0,0,1-3.91,2.81,6.28,6.28,0,0,1-4.66-.43,6.1,6.1,0,0,1-2.8-4.2,6.75,6.75,0,0,1,.49-5.27,6,6,0,0,1,3.91-2.81"/><path class="cls-1" d="M84.72,140.38c1.51-.14,2.49.16,3,.91a1,1,0,0,1,.17.45l1.65,17.55-1.8.17-1.63-17.37a1.89,1.89,0,0,0-.4-1.12.87.87,0,0,0-.64-.36l-.29,0-.79.08,0-.21Z"/><path class="cls-1" d="M81,136c.58-1.2,1.27-1.8,2.08-1.78a5.5,5.5,0,0,1,1.26.21v.21a4,4,0,0,0-1-.18A2.2,2.2,0,0,0,81.21,136L79,140.51h0l4.48,13-1.79,0-3.74-10.83-4.13,8.07a2.56,2.56,0,0,0-.34,1.28,1.5,1.5,0,0,0,.39,1.14l-.16.15a.84.84,0,0,1-.26-.32,1.26,1.26,0,0,1-.2-.46,2.77,2.77,0,0,1,0-.39,3.73,3.73,0,0,1,.34-1.41l5.18-10.17Z"/><path class="cls-1" d="M60.29,137.38a4.75,4.75,0,0,0-3.1-.15,2.77,2.77,0,0,0-1.86,1.27L52.22,147a8.07,8.07,0,0,0,2.67,1.83,3.83,3.83,0,0,0,3.85-.49A9.11,9.11,0,0,0,61.55,144q2-5.46-1.26-6.65m3,7.27a7.46,7.46,0,0,1-3.3,4.3,6.13,6.13,0,0,1-5.19.05,6.81,6.81,0,0,1-2.61-1.78l-2.44,6.65L48,153.25l6-16.39a1.83,1.83,0,0,0,.11-1.17.88.88,0,0,0-.42-.61l-.25-.15-.75-.27.07-.19,1.48.54a2.46,2.46,0,0,1,1.35,1,1.38,1.38,0,0,1,.23,1.07l-.13.42-.14.39a4.32,4.32,0,0,1,2.07-.94,5,5,0,0,1,2.75.26q4.89,1.94,2.86,7.46"/><path class="cls-1" d="M39.75,140a2.89,2.89,0,0,0,1.43,2.25,3.41,3.41,0,0,0,2.9.25,6.54,6.54,0,0,0,3.09-2.29l-6.35-3.83A6,6,0,0,0,39.75,140m8.35-1.14a7.93,7.93,0,0,0,1.47-4.59,3.52,3.52,0,0,0-1.75-2.8,12.64,12.64,0,0,0-4.32-1.71l0-.19a12.65,12.65,0,0,1,4.39,1.71,5.87,5.87,0,0,1,2.81,3.5,6.3,6.3,0,0,1-1.08,4.91,6.93,6.93,0,0,1-4,3.4,5.74,5.74,0,0,1-4.62-.71,5.2,5.2,0,0,1-2.39-2.92,4.66,4.66,0,0,1,.7-3.94,2.53,2.53,0,0,1,.13-.22L47.29,140a11.3,11.3,0,0,0,.81-1.19"/><path class="cls-1" d="M29.07,132a3.63,3.63,0,0,0,.62,1.3,5.73,5.73,0,0,0,.89,1.08l.4.36a2.66,2.66,0,0,0,2,.79,2.18,2.18,0,0,0,1.47-.74,2,2,0,0,0,.54-1.43,3.8,3.8,0,0,0-.42-1.57c-.27-.52-.54-1.08-.83-1.7s-.55-1.22-.76-1.79a3.58,3.58,0,0,1-.2-1.82,3.5,3.5,0,0,1,.92-1.87,2.81,2.81,0,0,1,2-1,4.22,4.22,0,0,1,2.17.4,9,9,0,0,1,1.88,1.27,5.86,5.86,0,0,1,2.19,3.47l-.22,0a3.81,3.81,0,0,0-.62-1.61,6.46,6.46,0,0,0-1.28-1.53,3.7,3.7,0,0,0-2.43-1,2.59,2.59,0,0,0-2.12.91,2.73,2.73,0,0,0-.77,2,5.38,5.38,0,0,0,.58,2.09c.35.68.7,1.37,1.06,2a5.27,5.27,0,0,1,.59,2.1,2.46,2.46,0,0,1-.6,1.82,2.73,2.73,0,0,1-1.43.92,2.46,2.46,0,0,1-1.51-.15,8.56,8.56,0,0,1-2.27-1.4,6.19,6.19,0,0,1-2-2.9Z"/><path class="cls-1" d="M33.62,119.35a2.49,2.49,0,0,1,.73,1.51,1.39,1.39,0,0,1-.31,1l-.31.31-8.24,7.35-1.2-1.34,8.24-7.35a1.92,1.92,0,0,0,.66-1,.88.88,0,0,0-.07-.71l-.17-.26-.53-.6.16-.14Zm-10.38,12a1,1,0,0,1-.37.74,1.08,1.08,0,0,1-.79.29,1,1,0,0,1-.76-.36,1.08,1.08,0,0,1-.28-.8,1.07,1.07,0,0,1,.37-.76,1,1,0,0,1,.79-.28,1.14,1.14,0,0,1,.76.38,1.07,1.07,0,0,1,.28.79"/><path class="cls-1" d="M28.81,113.38a4.8,4.8,0,0,0-2.41-1.94,2.81,2.81,0,0,0-2.25-.08l-7.55,5a8.45,8.45,0,0,0,1.1,3,3.83,3.83,0,0,0,3.4,1.87,9.11,9.11,0,0,0,4.81-1.82q4.83-3.23,2.9-6.12M26.91,121a7.54,7.54,0,0,1-5.2,1.53,6.14,6.14,0,0,1-4.22-3,14.71,14.71,0,0,1-2-4.52l10.33-6.9q5.12-3.39,8.07,1a7.13,7.13,0,0,1,1.2,5.23l-.22-.06a7.42,7.42,0,0,0-1.15-5.05q-2-3-6.9.33L24.7,111a4.39,4.39,0,0,1,2.23.46A5,5,0,0,1,29,113.29q2.81,4.44-2.09,7.71"/><path class="cls-1" d="M20.66,96.24a2.45,2.45,0,0,1,.15,1.67,1.41,1.41,0,0,1-.66.87l-.4.18-7.54,2.91q-1.89.72-2,1.92a3.15,3.15,0,0,0,.24,1.34,4.08,4.08,0,0,0,2.27,2.29,3.55,3.55,0,0,0,2.65.39l8.52-3.28.65,1.68-12,4.62-.64-1.68,2.73-1.05a5.26,5.26,0,0,1-2.51-.77,4,4,0,0,1-1.84-2.08A7.87,7.87,0,0,1,9.66,103a2.57,2.57,0,0,1,.24-1.48,3.14,3.14,0,0,1,1.69-1.34l7.52-2.9a1.93,1.93,0,0,0,1-.69.91.91,0,0,0,.18-.71l-.06-.29-.28-.74.19-.08Z"/><path class="cls-1" d="M105.66,66q0-5.77-1.52-8.16t-5.78-2.37a13.43,13.43,0,0,0-10.1,4.75Q83.84,65,83.84,68.77v33.77H77.2V66q0-5.77-1.51-8.16t-6.45-2.37q-4.93,0-9.35,4.56t-4.78,8.44v34.05H48.47V55.11h6.64V65.83a18.73,18.73,0,0,1,5.59-7.59,13.66,13.66,0,0,1,9.11-3.51,28.63,28.63,0,0,1,8,.91A7.3,7.3,0,0,1,82,58.43a10.15,10.15,0,0,1,1.52,3.32,21.59,21.59,0,0,1,.28,4,18.81,18.81,0,0,1,5.51-7.54,12.79,12.79,0,0,1,8.53-3.47,28.7,28.7,0,0,1,7.31.76,14.26,14.26,0,0,1,4.12,1.71A5.84,5.84,0,0,1,111.4,60a11.39,11.39,0,0,1,.81,2.94c.06.76.09,1.84.09,3.23V95.81a7,7,0,0,0,1.09,4.22,3.29,3.29,0,0,0,2.23,1.56l1,.19h2.94v.76h-5.78a9,9,0,0,1-5.93-1.71,5,5,0,0,1-2.13-3.41l-.1-1.61Z"/></g></g></svg>