<svg xmlns="http://www.w3.org/2000/svg" viewBox="0 0 246.12 32.82"><defs><style>.cls-1{fill:#e2001a;}</style></defs><g id="Calque_2" data-name="Calque 2"><g id="Calque_1-2" data-name="Calque 1"><path class="cls-1" d="M170.91,28.15s5.62-18.62,6.25-20.51H192c-9.83,11.14-17.93,20-21.06,20.51m27.39.11c-3.15,0-2.22-2.44-2.22-2.44,2.42-8.65,5.24-18.43,7.58-25.82H178a9.22,9.22,0,0,0-5.49,1.35,9.27,9.27,0,0,0-2.94,4.82c-1.5,4.5-2.64,7.85-3.41,10.08A36.17,36.17,0,0,0,164,26.79a9.61,9.61,0,0,0,.1,1.47H132.67L152.6,0h-9.26L123.67,28.26h-.16c-.56,0-.49-.7-.44-1.11l1.29-13q.58-5.91.58-9.67Q124.94,0,119,0H112.5l-2.44,7.64h7L115.5,28.26H79.87a22.37,22.37,0,0,0,2.86-3.08A34.3,34.3,0,0,0,88,16.43,29.59,29.59,0,0,0,90.29,6.31q0-3.55-1.65-5C87.62.44,85.88,0,83.44,0H55.18L51.27,7.64H82a23.12,23.12,0,0,1-3.62,11.51c-4,6.66-6.26,9.15-9.89,9.15l-.43,0,0,0h-.17c-2.66-.33-3.62-3-3.62-8.35a22.93,22.93,0,0,1,2.19-8.68H58.34a29.65,29.65,0,0,0-1.69,9.39,13.47,13.47,0,0,0,2,7.64H35.47c-4.57,0-5.59-4.11-5.59-6.16s.77-5,2.31-8.94S34.5,6.29,34.5,4.23Q34.5,0,28.55,0H17S10.22-.08,8.18,5.76C7.31,8.26,7,9.33,7,9.33L0,32.82H8L15.56,7.64H25.89q-2,5.67-2.61,7.67a26.53,26.53,0,0,0-1.55,8,8,8,0,0,0,4.7,7.6,20.3,20.3,0,0,0,9.33,1.87H170.09q5.24,0,11-4.45a83.94,83.94,0,0,0,8.79-8.54,23.3,23.3,0,0,0-1.4,5.92q0,7.06,10.07,7.07H243.4l2.72-4.56Z"/></g></g></svg>