<?xml version="1.0" encoding="utf-8"?>
<!-- Generator: Adobe Illustrator 24.2.1, SVG Export Plug-In . SVG Version: 6.00 Build 0)  -->
<svg version="1.1" id="Calque_1" xmlns:sketch="http://www.bohemiancoding.com/sketch/ns"
	 xmlns="http://www.w3.org/2000/svg" xmlns:xlink="http://www.w3.org/1999/xlink" x="0px" y="0px" viewBox="0 0 164 43"
	 style="enable-background:new 0 0 164 43;" xml:space="preserve">
<style type="text/css">
	.st0{fill-rule:evenodd;clip-rule:evenodd;fill:#87C4E0;}
	.st1{fill-rule:evenodd;clip-rule:evenodd;fill:#1D2A36;}
</style>
<desc>Created with Sketch.</desc>
<g id="Page-1" sketch:type="MSPage">
	<g id="Home-page" transform="translate(-276.000000, -2711.000000)" sketch:type="MSArtboardGroup">
		<g id="Growing" transform="translate(0.000000, 2569.000000)" sketch:type="MSLayerGroup">
			<g id="belighted" transform="translate(276.000000, 142.000000)" sketch:type="MSShapeGroup">
				<path id="Fill-3" class="st0" d="M15.9,18.2c0-3.5-2.3-5.9-5.1-5.9c-2.7,0-5,2.3-5,5.9v0.1c0,3.5,2.3,5.9,5,5.9
					C13.6,24.2,15.9,21.9,15.9,18.2L15.9,18.2L15.9,18.2z M12.3,29.3c-3.1,0-5.1-1.5-6.5-3.2v2.8H0V0h5.9v10.7
					c1.4-2,3.4-3.4,6.5-3.4c4.8,0,9.4,3.9,9.4,11v0.1C21.8,25.4,17.3,29.3,12.3,29.3L12.3,29.3L12.3,29.3z"/>
				<path id="Fill-4" class="st0" d="M32.9,12.2c-2.4,0-4,1.8-4.5,4.5h8.9C36.9,14,35.4,12.2,32.9,12.2 M42.9,20.5H28.5
					c0.6,2.7,2.4,4.2,5.1,4.2c2,0,3.4-0.6,5-2.2l3.4,3c-1.9,2.5-4.7,4-8.5,4c-6.2,0-10.8-4.5-10.8-11v-0.1c0-6.1,4.2-11,10.3-11
					c6.9,0,10.1,5.5,10.1,11.5V19C43,19.6,42.9,19.9,42.9,20.5"/>
				<path id="Fill-5" class="st1" d="M44.9,28.9h5.9V0h-5.9V28.9L44.9,28.9z"/>
				<path id="Fill-6" class="st1" d="M54.2,7.7h5.9v21.2h-5.9V7.7L54.2,7.7z M54.1,0h6.2v5.3h-6.2V0L54.1,0z"/>
				<path id="Fill-7" class="st1" d="M78.2,17.3c0-2.9-2.2-4.9-5.1-4.9c-2.9,0-5,2-5,4.9v0.1c0,2.9,2.2,4.9,5,4.9
					C76,22.3,78.2,20.3,78.2,17.3L78.2,17.3L78.2,17.3z M72.4,35.4c-3.4,0-6.5-0.8-9.2-2.2l2-4.5c2.1,1.2,4.3,1.9,7,1.9
					c4,0,5.9-2,5.9-5.8v-1c-1.7,2.1-3.6,3.4-6.8,3.4c-4.8,0-9.2-3.6-9.2-9.9v-0.1c0-6.3,4.5-9.9,9.2-9.9c3.2,0,5.1,1.4,6.7,3.2V7.8
					H84v16.4C84,32.2,80.1,35.4,72.4,35.4L72.4,35.4L72.4,35.4z"/>
				<path id="Fill-8" class="st1" d="M115.4,29.2c-3.6,0-6-1.5-6-6.4V12.8h-2.5V7.7h2.5V2.3h5.9v5.4h4.9v5.1h-4.9v9.1
					c0,1.4,0.6,2.1,1.9,2.1c1.1,0,2.1-0.3,2.9-0.8V28C118.8,28.8,117.4,29.2,115.4,29.2"/>
				<path id="Fill-9" class="st1" d="M130.6,12.2c-2.4,0-4,1.8-4.5,4.5h8.9C134.7,14,133.1,12.2,130.6,12.2 M140.7,20.5h-14.4
					c0.6,2.7,2.4,4.2,5.1,4.2c2,0,3.4-0.6,5-2.2l3.4,3c-1.9,2.5-4.7,4-8.5,4c-6.2,0-10.8-4.5-10.8-11v-0.1c0-6.1,4.2-11,10.3-11
					c6.9,0,10.1,5.5,10.1,11.5V19C140.7,19.6,140.7,19.9,140.7,20.5"/>
				<path id="Fill-10" class="st1" d="M157.7,18.2c0-3.5-2.3-5.9-5-5.9c-2.7,0-5.1,2.3-5.1,5.9v0.1c0,3.5,2.3,5.9,5.1,5.9
					C155.5,24.2,157.7,21.9,157.7,18.2L157.7,18.2L157.7,18.2z M157.7,28.9v-3c-1.4,2-3.4,3.4-6.5,3.4c-4.8,0-9.4-3.9-9.4-11v-0.1
					c0-7.1,4.5-11,9.4-11c3.1,0,5.1,1.5,6.5,3.2V0h5.9v28.9H157.7L157.7,28.9z"/>
				<path id="Fill-11" class="st1" d="M99.9,28.9V17.1c0-2.9-1.3-4.3-3.6-4.3c-2.2,0-3.7,1.5-3.7,4.3v11.8h-5.9V0h5.9v10.7
					c1.4-1.8,3.1-3.4,6.1-3.4c4.5,0,7,3,7,7.9v13.7H99.9L99.9,28.9z"/>
				<path id="Fill-12" class="st0" d="M2.7,31.2c6.7,5.4,16.4,13.3,38,0.8c-6.5,6.7-21.6,17.5-40,4.2C3.5,34.3,2.7,32.2,2.7,31.2"/>
			</g>
		</g>
	</g>
</g>
</svg>
