<svg xmlns="http://www.w3.org/2000/svg" viewBox="0 0 909.21 560.33"><defs><style>.cls-1{fill:#e7bd82;}</style></defs><g id="Calque_2" data-name="Calque 2"><g id="Calque_1-2" data-name="Calque 1"><path class="cls-1" d="M446,436.74c-6,3.32-12.61,6-18.58,8.63,19.25-26.55,29.2-58.4,29.2-91.59s-9.95-65-29.2-91.59c6,2.66,12.61,6,18.58,8.63,39.16,19.91,74.34,48.45,102.88,83C521,388.29,485.83,416.17,446,436.74Zm-398.88-83a335.64,335.64,0,0,1,102.88-83c6-3.32,12.61-6,18.58-8.63-19.25,26.55-29.2,58.41-29.2,91.59s10,65,29.2,91.59c-6-2.65-12.61-6-18.58-8.63C110.17,416.17,75,388.29,47.12,353.78ZM592,341.17c-33.19-44.47-77.65-81.63-126.77-107.52a350,350,0,0,0-79.64-29.86c-28.54-6.64-57.74-10.62-87.61-10.62a351.41,351.41,0,0,0-87.61,10.62,338.7,338.7,0,0,0-79.64,29.86A360.27,360.27,0,0,0,4,341.17a20.92,20.92,0,0,0,0,24.56c33.19,44.47,77.65,81.63,126.77,107.52a350,350,0,0,0,79.64,29.86c28.54,6.64,57.74,10.62,87.61,10.62a351.88,351.88,0,0,0,87.61-10.62,338.7,338.7,0,0,0,79.64-29.86A360.27,360.27,0,0,0,592,365.73C597.33,359.09,597.33,348.47,592,341.17Z"/><path class="cls-1" d="M783.57,272.38,759.22,248a69.31,69.31,0,1,0-98-98l-24.36-24.35A103.75,103.75,0,1,1,783.57,272.38Z"/><path class="cls-1" d="M698.94,560.33A104,104,0,0,1,595.1,456.49h34.61a69.23,69.23,0,1,0,138.45,0,197.7,197.7,0,0,1,58.29-140.72A163.37,163.37,0,0,0,874.6,199.51c0-91.15-73.74-164.9-164.39-164.9S545.82,108.36,545.82,199H511.21c0-109.74,89.27-199,199-199s199,89.27,199,199a198,198,0,0,1-58.28,141.23,163.25,163.25,0,0,0-48.15,116.25A104,104,0,0,1,698.94,560.33Z"/></g></g></svg>