<?xml version="1.0" encoding="utf-8"?>
<!-- Generator: Adobe Illustrator 26.0.3, SVG Export Plug-In . SVG Version: 6.00 Build 0)  -->
<svg version="1.1" id="Calque_1" xmlns="http://www.w3.org/2000/svg" xmlns:xlink="http://www.w3.org/1999/xlink" x="0px" y="0px"
	 viewBox="0 0 909.2 560.3" style="enable-background:new 0 0 909.2 560.3;" xml:space="preserve">
<style type="text/css">
	.st0{fill:#B1B1B0;}
</style>
<g id="Calque_2_00000147938491288817463930000005424652545125426329_">
	<g id="Calque_1-2">
		<path class="st0" d="M446,436.7c-6,3.3-12.6,6-18.6,8.6c19.2-26.5,29.2-58.4,29.2-91.6s-10-65-29.2-91.6c6,2.7,12.6,6,18.6,8.6
			c39.2,19.9,74.3,48.5,102.9,83C521,388.3,485.8,416.2,446,436.7z M47.1,353.7c28.5-34.2,63.4-62.4,102.9-83c6-3.3,12.6-6,18.6-8.6
			c-19.2,26.5-29.2,58.4-29.2,91.6s10,65,29.2,91.6c-6-2.6-12.6-6-18.6-8.6C110.2,416.2,75,388.3,47.1,353.7L47.1,353.7z M592,341.2
			c-33.2-44.5-77.7-81.6-126.8-107.5c-25.2-13.2-52-23.2-79.6-29.9c-28.5-6.6-57.7-10.6-87.6-10.6c-29.5-0.2-59,3.4-87.6,10.6
			c-27.7,6.6-54.5,16.6-79.6,29.9C80.7,259.1,37.3,295.9,4,341.2c-5.3,7.3-5.3,17.2,0,24.6c33.2,44.5,77.7,81.6,126.8,107.5
			c25.2,13.2,52,23.2,79.6,29.9c28.5,6.6,57.7,10.6,87.6,10.6c29.5,0.2,59-3.4,87.6-10.6c27.7-6.6,54.5-16.6,79.6-29.9
			c50-25.5,93.4-62.3,126.7-107.5C597.3,359.1,597.3,348.5,592,341.2z"/>
		<path class="st0" d="M783.6,272.4L759.2,248c27.6-26.5,28.5-70.4,1.9-98c-26.5-27.6-70.4-28.5-98-1.9c-0.7,0.6-1.3,1.3-1.9,1.9
			l-24.4-24.3c40.2-40.8,105.9-41.4,146.7-1.2s41.4,105.9,1.2,146.7C784.4,271.6,784,272,783.6,272.4z"/>
		<path class="st0" d="M698.9,560.3c-57.3-0.1-103.8-46.5-103.8-103.8h34.6c-0.5,38.2,30.2,69.6,68.4,70.1
			c38.2,0.5,69.6-30.2,70.1-68.4c0-0.6,0-1.1,0-1.7C768,403.7,789,353,826.4,315.8c30.9-30.8,48.3-72.6,48.2-116.3
			c0-91.2-73.7-164.9-164.4-164.9S545.8,108.4,545.8,199h-34.6c0-109.7,89.3-199,199-199s199,89.3,199,199
			c0.2,53-20.7,103.8-58.3,141.2c-30.9,30.8-48.3,72.6-48.2,116.2C802.7,513.8,756.3,560.2,698.9,560.3z"/>
	</g>
</g>
</svg>
