<?xml version="1.0" encoding="UTF-8"?><svg xmlns="http://www.w3.org/2000/svg" viewBox="0 0 596 453.56"><defs><style>.d{fill:#b0b4ae;}</style></defs><g id="a"/><g id="b"><g id="c"><path class="d" d="M362.85,351.67c-3.11,5.59-10.56,8.08-16.15,4.35-1.86-1.24-3.11-2.49-4.35-4.35-1.86-3.73-2.49-8.08,0-11.81,3.11-5.59,10.56-8.08,16.15-4.35,5.59,3.11,8.08,10.56,4.35,16.15Zm-22.37-165.89h0c-3.11-5.59-1.24-13.05,4.35-16.15,5.59-3.11,13.05-1.24,16.15,4.35,3.11,5.59,1.24,13.05-4.35,16.15-5.59,3.11-12.43,1.24-16.15-4.35Zm-34.79,35.42c-1.86-3.73-2.49-8.08,0-11.81,3.11-5.59,10.56-8.08,16.15-4.35,5.59,3.11,8.08,10.56,4.35,16.15-3.11,5.59-10.56,8.08-16.15,4.35-1.86-1.24-3.11-2.49-4.35-4.35Zm190.12,27.96c6.83,0,11.8,4.97,11.8,11.81s-4.97,11.81-11.8,11.81c-4.35,0-8.08-2.49-10.56-5.59-1.24-1.86-1.86-3.73-1.86-6.21,.62-6.21,5.59-11.81,12.43-11.81Zm-168.38,55.92c3.11,5.59,1.24,13.05-4.35,16.15-5.59,3.11-13.05,1.24-16.15-4.35-3.11-5.59-1.24-13.05,4.35-16.15,5.59-3.11,13.05-1.24,16.15,4.35Zm-23.61-29.82c-4.35,0-8.08-2.49-10.56-6.21-1.24-1.86-1.86-3.73-1.86-6.21,0-6.83,4.97-11.81,11.8-11.81s11.81,4.97,11.81,11.81c.62,6.83-4.35,12.43-11.18,12.43Zm190.12,39.76c-3.11,5.59-10.56,8.08-16.15,4.35-1.86-1.24-3.11-2.49-4.35-4.35-1.86-3.73-2.49-8.08,0-11.81,3.11-5.59,10.56-7.46,16.15-4.35,4.97,3.11,7.46,10.56,4.35,16.15Zm-35.42,23.61c3.11,5.59,1.24,13.05-4.35,16.15s-13.05,1.24-16.15-4.35c-3.11-5.59-1.24-13.05,4.35-16.15,5.59-3.11,13.05-1.24,16.15,4.35Zm-45.98,19.26c0,6.83-4.97,11.81-11.81,11.81-4.35,0-8.08-2.49-10.56-6.21-1.24-1.86-1.86-3.73-1.86-6.21,0-6.83,4.97-11.81,11.81-11.81,6.83,.62,12.43,6.21,12.43,12.43Zm-23.61-185.77c-1.24-1.86-1.86-3.73-1.86-6.21,0-6.83,4.97-11.81,11.81-11.81s11.81,4.97,11.81,11.81-4.97,11.81-11.81,11.81c-4.35,.62-8.08-1.86-9.94-5.59Zm47.84,12.43c-1.86-3.73-2.49-8.08,0-11.8,3.11-5.59,10.56-7.46,16.15-4.35,5.59,3.11,8.08,10.56,4.35,16.15-3.11,5.59-10.56,7.46-16.15,4.35-1.86-.62-3.11-2.49-4.35-4.35Zm-24.85,80.77c-1.86,6.83-8.7,11.18-15.53,9.32-6.83-1.86-11.18-8.7-9.32-15.53s8.7-11.18,15.53-9.32c6.83,1.86,11.18,8.7,9.32,15.53Zm80.15-57.78c-3.11-5.59-9.94-7.46-15.53-4.35l-66.48,32.31c-8.08-3.11-17.4-3.11-26.1,1.86-13.67,8.08-18.64,26.1-9.94,39.76,8.08,13.67,26.1,18.64,39.76,9.94,8.08-4.97,13.05-13.05,14.29-21.75l60.27-42.25c5.59-3.73,6.83-10.56,3.73-15.53ZM26.72,262.2c0-10.56,8.7-19.26,19.26-19.26h124.26c-.62,6.21-.62,12.43-.62,18.64s.62,13.05,.62,19.26H45.98c-10.56,.62-19.26-8.08-19.26-18.64Zm147.87-50.95H19.26c-10.56,0-19.26-8.7-19.26-19.26s8.7-19.26,19.26-19.26H180.8c1.86,0,3.73,.62,5.59,.62-4.97,13.05-8.7,24.85-11.81,37.9Zm-115.57,121.16c0-10.56,8.7-19.26,19.26-19.26h96.93c3.11,13.05,6.83,24.85,11.81,37.28-1.86,.62-3.73,1.24-5.59,1.24H78.29c-10.56-.62-19.26-9.32-19.26-19.26Zm487.74-70.21c0,80.77-65.86,146.63-146.63,146.63s-147.25-65.86-147.25-146.63,65.86-146.63,146.63-146.63,147.25,65.24,147.25,146.63Zm-124.26-190.12v-19.26h11.81c6.21,0,10.56-4.97,10.56-10.56V10.56c0-6.21-4.97-10.56-10.56-10.56h-68.35c-6.21,0-10.56,4.97-10.56,10.56v31.69c0,6.21,4.97,10.56,10.56,10.56h11.81v19.26c-36.04,4.35-68.97,18.64-96.3,39.76l-10.56-10.56,1.24-1.24c4.35-4.35,4.35-11.18,0-15.53l-15.53-15.53c-4.35-4.35-11.18-4.35-15.53,0l-34.79,34.79c-4.35,4.35-4.35,11.18,0,15.53l15.53,15.53c4.35,4.35,11.18,4.35,15.53,0l1.24-1.24,10.56,10.56c-25.47,32.31-41.01,73.32-41.01,118.05,0,105.62,85.74,191.37,191.37,191.37s191.37-85.74,191.37-191.37c0-44.73-15.53-85.74-41.01-118.05l10.56-10.56,1.24,1.24c4.35,4.35,11.18,4.35,15.53,0l15.53-15.53c4.35-4.35,4.35-11.18,0-15.53l-34.79-34.79c-4.35-4.35-11.18-4.35-15.53,0l-15.53,15.53c-4.35,4.35-4.35,11.18,0,15.53l1.24,1.24-10.56,10.56c-26.1-21.12-59.03-35.42-95.06-39.76Z"/></g></g></svg>