<svg xmlns="http://www.w3.org/2000/svg" viewBox="0 0 511.69 488.31"><defs><style>.cls-1{fill:#2b2c83;}</style></defs><g id="Calque_2" data-name="Calque 2"><g id="Calque_1-2" data-name="Calque 1"><path class="cls-1" d="M36.93,88,49.36,99.13c-7.56,7.24-11.89,11.55-20.47,21.18L43.15,133c4.68-5.42,8.35-9.53,14.1-16.5l11.89,10.62c-6.27,6.5-9.94,10.61-14.79,15.87l6,5.39A195.29,195.29,0,0,0,80.75,164.7L62.48,185.18A195,195,0,0,0,44,166.8L20.36,145.71A194.21,194.21,0,0,0,0,129.43Z"/><path class="cls-1" d="M87.2,80.33A195.29,195.29,0,0,0,72.62,58.72l46.87-28.09,8.2,13.68c-6.52,3.5-16.88,9-25.63,14.27l9.88,16.5c8.15-4.89,14.51-9.1,18.21-11.6l8,13.28c-3.94,2.09-10.66,5.71-18.81,10.59l10.37,17.3,9.35-5.6a187.24,187.24,0,0,0,16.84-11.6l8.38,14-48.59,29.11a196.74,196.74,0,0,0-12.17-23.06Z"/><path class="cls-1" d="M200.56,40.82a16.8,16.8,0,0,0,2.93-.29c7-1.27,10.68-4.9,9.49-11.48-1.12-6.23-6.21-9.37-12.91-8.16a19.36,19.36,0,0,0-3,.77ZM209,3.55C225.4.72,236.72,10,239,22.69a24.94,24.94,0,0,1-9.94,24.2c14.73,20.94,20.09,29.51,24.19,33.77L223.83,86c-6.93-12.69-13.26-23.35-17.36-30.24l-3.12.57,3.8,21.12a74.68,74.68,0,0,0,2.83,11l-26.44,4.76a195.29,195.29,0,0,0-3.22-25.87L174.7,36.18a192.72,192.72,0,0,0-6-25.37Z"/><path class="cls-1" d="M310.28,4.35c6.4,16.67,12.55,33.4,18.3,50.29l.23,0L332.94,36a195.31,195.31,0,0,0,4.25-25.72l19,4.2a194.57,194.57,0,0,0-7,25.11l-6.84,30.92a196.41,196.41,0,0,0-4.25,25.72L319,92c-9.62-22.18-14.72-36-18.64-47.12l-.23,0-3.44,15.57a193.55,193.55,0,0,0-4.25,25.73l-19.92-4.41a194.57,194.57,0,0,0,7-25.11l6.84-30.92A196.71,196.71,0,0,0,290.59,0Z"/><path class="cls-1" d="M425.62,49.56a195.53,195.53,0,0,0-14.31,21.8L395.39,98.73A194.91,194.91,0,0,0,383.52,122l-23.72-13.8a195.17,195.17,0,0,0,14.3-21.8L390,59A195.42,195.42,0,0,0,401.9,35.77Z"/><path class="cls-1" d="M479.32,92.3c-4,17.4-8.29,34.71-13,51.93l.16.17,13.87-13.16a195,195,0,0,0,17.91-19l13.4,14.12a194.94,194.94,0,0,0-19.85,16.91l-23,21.79A196.05,196.05,0,0,0,451,184.06l-13.48-14.21c4.43-23.77,8-38.11,10.91-49.48l-.16-.17-11.57,11a194.66,194.66,0,0,0-17.91,18.94l-14.05-14.8a195.09,195.09,0,0,0,19.85-16.9l23-21.8a195,195,0,0,0,17.91-19Z"/><path class="cls-1" d="M282.41,444.87c1,10.57-4.34,21.88.94,29.68,16.21-2.63,35.78-1.91,49-7.55-13.77-3.13-28.19-5.38-35.34-15.07-2.13-2.9-1.86-6.48-5.18-8.95a70.69,70.69,0,0,1-9.42,1.89M159,426.49c-5.6,7.13-16.23,9.22-20.73,17.44,11.12,13.22,19,29.71,37.69,35.33-2-14.75-15.41-25.7-8.48-43.34-2.27-3.7-5.73-6.21-8.48-9.43M311.15,319.56c-22.67,51.76-44.8,102.16-66.9,152.63-1.25,2.85-5.72,7.82-2.83,10.37,4.68.83,5.5-5.58,6.6-8,24.66-54.5,49-110.1,73.49-163.95-5.8-6.48-7.59,2.63-10.36,9m-18.84-8.49c-1.19,1.33-3.59,1.45-5.19,2.36,2.69,10.35,4.3,21.77,7.07,32,5.85-13.77,12.21-27,17.9-41-3.45-5.81-10.57-8-20.73-7.06.22,4.57,2,9.3.95,13.65m-26.39-4.71a99.41,99.41,0,0,1,20.26,0c-.1-3.19-.67-5.93-.94-8.94A134.59,134.59,0,0,1,264,296c.55,3.53.47,7.68,1.88,10.36m57.95-24c-4.1-.92-8.62,1-12.72.47-5.69-.77-12-3.55-17.9-5.19-6.56-1.81-13.24-4.24-18.38-6.12-7.17,4.77-14.13,9.74-20.73,15.08,13.5,9.05,35.63.58,52.3,5.65,8.73,2.65,11.22,13.91,22.14,12.72,3.56-4.6,7.75-8.58,8.48-16-4.94.34-8.72-5.6-13.19-6.59m-51.82-29.68c3.52,4.33,4.37,11.33,8.94,14.61-.33-16.63-4.35-33.66-8-48.53-1.49-1-2.55-2.48-4.24-3.3-.44,13.87,6.74,23.23,3.3,37.22m-9-25.45c-.66-4.5.7-9.71-.94-13.65-1.9-4.6-10.2-8.14-12.72-11.78-6.4,1.06-13.36-.19-19.78,1.88s-9.16,12.3-11.78,19.79c-1.11,3.17-2.92,6.12-3.77,9-1.43,4.74-1.42,10.65-2.83,16-1.29,4.94-4.19,9.59-5.18,13.66-1.65,6.82-.72,13.59-2.82,18.85-1.34,3.33-4,5.67-4.72,8.47-.82,3.18,0,7.82-.47,10.84-.71,4.34-5.42,9.87-2.83,15.08,1.89,2.66,5.13,1.85,8.49,3.29,3,1.3,4.93,4.46,8,5.19,4.09,1,8.13-.06,11.78,1.41,3.24,1.3,5.8,4.59,8.95,5.18,2,.38,4.27-.67,6.13-.47,4.65.5,8.53,4.56,13.66,3.3,4-3.19,1.47-9,2.35-13.66.82-4.36,4.65-7.81,4.72-13.2.05-4.13-2.09-6.83-1.42-11.77-4.12-.75-6.75-3-9.89-4.71-9.07,8.44-16.78-9.41-20.73-17.9s-6.94-19.87-7.54-27.8c-1-13.68,3.77-31,13.2-32.51,8.81-1.46,17.75,6,22.61,10.84,4.38,4.38,6.91,9,10.36,13.66,0-3.47-2.31-5.44-2.83-9m87.16,18.38c1.68-3.77,3.44-8.74,5.65-11.78,3.51-4.84,11-6.2,14.6-10.36,5.12-5.94,5.81-16.3,2.83-21.67-6.09-11-27.65-9.06-33.91,0-2.27,3.27-4.81,9.86-1.89,15.07,5.05-.43,4.32-6.37,6.12-9.42,4.5-7.62,24.58-10.08,25.44,2.35.73,10.49-9.83,11.89-15.07,17-5.53,5.33-8.5,16-12.73,25.44s-9,19.33-11.3,26.85c1.32.88,2.3,2.1,4.24,2.36,6-11.39,10.75-24,16-35.81m-74.44-68.31c-.9,3.74-2.81,10.6.94,12.72,1.3-3.94,4.57-7.71,4.24-11.77-1.32-.31-2.85-1.73-5.18-.95M273.93,165c-6.58-1.61-13.1-2.3-18.37-.94-2.73,1.5-2.06,6.11-5.19,7.07-2.48.75-3.53-1.64-6.12-.94-5.51,3.28.44,8.82.47,13.66,0,4.39-2.52,7.63-3.3,11.78,2.21.4,6.34-.55,9,0,1.95.4,4.3,3.4,6.6,4.23,7.41,2.67,17.35-.17,17.16-4.9-.06-1.62-2.53-3.51-4.44-4.05-3.86-1.07-10.28.29-13.23-1.36,1.39-4,9.79-1.92,12.76-4.29,1.09-3.3-.25-9,1.41-11.77,3.74-3.26,8.55-1.21,11.78,0,3.64-5.82-3.1-7.17-8.48-8.49M289,175.4c-5.09,11.71-7.21,26.4-20.26,30.15,1.31,4.83,8.7,6.56,10.83,12.24,1.29,3.43,1.06,8.78,2.36,13.67a193.59,193.59,0,0,1,5.65,38.16c12.66,2.35,21.73,9.17,36.75,6.59,4.51-7.95,8.18-17.72,12.25-26.85s7.15-19.12,13.19-25.44c3.42-3.59,15.12-7.11,14.13-13.66-.58-3.86-8.85-6.22-13.66-2.36-5.45,4.37-2.62,12.77-9.9,14.14-13.07,2.45-10-15.72-5.65-22.62,10.59-16.89,44-12.25,45.7,8,1,11.39-4.46,19.19-10.84,23.56-2.39,1.63-6.07,2-8.48,4.71-2.06,2.28-4,7.49-5.65,11.3-5.3,12.11-9.32,22.64-15.55,34.86,8,9.5-2,22.18-7.53,28.27-1.75.31-2.81,1.28-5.19.94-6.88,14.71-14,31.4-21.19,47.59-3.78,8.43-7.05,12-6.6,22.61.75,17.68-.21,41.29-1.41,58,2.38,9.65,10.19,15.9,21.2,18.84,7,1.88,18.95,1.38,19.78,8,.69,5.56-5.58,8.43-10.83,9.43-14.93,2.83-31.62,3.71-47.59,5.18-8.24-5.9-5.36-22.8-3.77-33.92-2.47-2.4-5.28-4.44-6.12-8.48-5.85,10.68-11.75,25.33-17.9,39.1-1.88,4.21-4.15,10.17-8,10.84-3.7.65-8.58-2-9.42-3.77-2.14-4.5,3.15-13.38,5.18-17.9,5.32-11.86,9.12-21.09,14.6-33.45,2.18-4.91,7.3-12.26,7.54-16.49.26-4.45-3.26-10.55-4.24-14.13-4-14.85-5.53-29.89-9.42-44.76-6.31,10.92-10,21.79-17.9,30.62-8.37,9.33-19.6,16.63-29.68,24.5s-19.16,16.83-28.74,25c-3.55,12.37,1.85,18,5.66,27.33,2.45,6,8,19.18-1,20.73-6.3,1.08-16-5.87-19.78-8.95-4.2-3.49-8.94-10.18-13.67-16-3.64-4.52-12.56-11.66-12.71-17-.3-10.29,19.94-14.38,24-22.62,1.39-8.92,8.2-17.86,13.19-25.91,8.27-13.34,17.66-24.48,29.68-33.45,1-12.69,2.18-25.14,5.66-35.33-2.57-3.51-10-3-13.2-7.54-4.78-6.86.42-14,1.42-19.78.24-1.36-.3-4.91,0-7.54.53-4.81,4.39-9.15,6.12-14.6,1.67-5.24.49-11.83,2.35-17.91.83-2.67,2.87-4.92,3.78-7.53,2.41-6.95,2.07-14.07,3.77-20.26.83-3.06,2.69-6.44,3.76-9.42,4.19-11.66,7.24-25.2,22.61-25,1.66-4.26,4.43-8.32,4.25-13.19-.14-3.6-3.55-6.58-2.36-10.84-11.09-16.08,2.55-29.85,17.9-31.56,11.06-1.24,25.14,1.3,31.57,6.59,3.26,2.7,6,6.73,9.42,9.9,4.21,3.88,7.51,7.57,7.06,11.78-.6,5.57-6.79,7.82-13.18,5.65"/><path class="cls-1" d="M266.71,171c.94,1.53.7,4.47.15,4.43-3.57-1.73-7.69-1.84-12.25-1.89-.23-6.5,9.82-6.08,12.1-2.54"/><path class="cls-1" d="M271.33,195c-5,6.2-9.53,2.12-9.87-1.12,1.79-1.41,9.9.3,9.87,1.12"/></g></g></svg>