<svg xmlns="http://www.w3.org/2000/svg" viewBox="0 0 93.42 89.68"><defs><style>.cls-1{fill:#af1918;}</style></defs><g id="Calque_2" data-name="Calque 2"><g id="ÉåÉCÉÑÅ__1" data-name="ÉåÉCÉÑÅ[_1"><path class="cls-1" d="M41.44,0c-15,1-26.28,5.91-33.38,14.51C-1.18,25.73,0,39.22.13,40.81V87.63a2.05,2.05,0,0,0,2.05,2.05h39.4a2,2,0,0,0,2-2.05V37a2,2,0,0,0-2-2H23.06C25.53,19.22,40.9,19,41.58,19a2,2,0,0,0,2-2.05V2.05a2.05,2.05,0,0,0-2.18-2Z"/><path class="cls-1" d="M91.38,19a2,2,0,0,0,2-2.05V2.05a2.05,2.05,0,0,0-2.18-2C76.19,1,65,5.91,57.87,14.51c-9.25,11.22-8.11,24.71-7.93,26.3V87.63a2,2,0,0,0,2,2.05h39.4a2,2,0,0,0,2-2.05V37a2,2,0,0,0-2-2H72.86C75.33,19.22,90.7,19,91.38,19Z"/></g></g></svg>