<?xml version="1.0" encoding="utf-8"?>
<!-- Generator: Adobe Illustrator 26.0.3, SVG Export Plug-In . SVG Version: 6.00 Build 0)  -->
<svg version="1.1" id="Calque_1" xmlns="http://www.w3.org/2000/svg" xmlns:xlink="http://www.w3.org/1999/xlink" x="0px" y="0px"
	 viewBox="0 0 93.4 89.7" style="enable-background:new 0 0 93.4 89.7;" xml:space="preserve">
<style type="text/css">
	.st0{fill:#69A341;}
</style>
<g id="Calque_2_00000023270813443580399230000000878230176913626272_">
	<g id="ÉåÉCÉÑÅ__1">
		<path class="st0" d="M41.4,0c-15,1-26.3,5.9-33.4,14.5C-1.2,25.7,0,39.2,0.1,40.8v46.8c0,1.1,0.9,2.1,2,2.1c0,0,0,0,0,0h39.4
			c1.1,0,2-0.9,2-2c0,0,0,0,0-0.1V37c0-1.1-0.9-2-2-2H23.1c2.5-15.8,17.8-16,18.5-16c1.1,0,2-0.9,2-2c0,0,0,0,0-0.1V2
			C43.6,0.9,42.6,0,41.4,0C41.5,0,41.4,0,41.4,0L41.4,0z"/>
		<path class="st0" d="M91.4,19c1.1,0,2-0.9,2-2c0,0,0,0,0-0.1V2c0-1.1-1-2-2.1-2c0,0-0.1,0-0.1,0C76.2,1,65,5.9,57.9,14.5
			c-9.2,11.2-8.1,24.7-7.9,26.3v46.8c0,1.1,0.8,2,1.9,2c0,0,0,0,0.1,0h39.4c1.1,0,2-0.9,2-2c0,0,0,0,0-0.1V37c0-1.1-0.9-2-2-2H72.9
			C75.3,19.2,90.7,19,91.4,19z"/>
	</g>
</g>
</svg>
