<svg xmlns="http://www.w3.org/2000/svg" xmlns:xlink="http://www.w3.org/1999/xlink" viewBox="0 0 608.44 110.18"><defs><style>.cls-1{fill:none;}.cls-2{clip-path:url(#clip-path);}.cls-3{fill:#303880;}.cls-4{fill:#af1d1f;}</style><clipPath id="clip-path" transform="translate(0 0)"><rect class="cls-1" width="608.44" height="110.18"/></clipPath></defs><g id="Calque_2" data-name="Calque 2"><g id="Calque_1-2" data-name="Calque 1"><g id="Illustration_10" data-name="Illustration 10"><g class="cls-2"><polygon class="cls-3" points="193.45 0 188.75 11.65 200.78 11.65 191.15 35.69 205.43 35.69 215.05 11.65 227.07 11.65 231.72 0 193.45 0"/><polygon class="cls-3" points="397.4 0 392.7 11.65 404.72 11.65 395.1 35.69 409.37 35.69 419 11.65 431.02 11.65 435.67 0 397.4 0"/><polygon class="cls-3" points="359.45 0 345.13 35.69 378.66 35.69 382.09 27.05 359.78 27.05 362.41 20.66 377.44 20.66 379.69 15.03 364.81 15.03 367.11 8.64 389.46 8.64 392.94 0 359.45 0"/><polygon class="cls-3" points="343.81 0 337.01 16.95 326.86 0 316.77 0 302.44 35.69 313.71 35.69 320.48 18.74 330.62 35.69 340.76 35.69 355.04 0 343.81 0"/><path class="cls-3" d="M281.73,8.64h15.78L295.17,15H279.43ZM274.08,0,259.76,35.69H271l3.61-9h10.95l2.91,4.89-1.69,4.13h11.27l4.18-10.52L300.1,21.6l5-3.57,5.59-13.9L308.22,0Z" transform="translate(0 0)"/><polygon class="cls-3" points="236.14 0 221.81 35.69 255.34 35.69 258.77 27.05 236.47 27.05 239.1 20.66 254.12 20.66 256.38 15.03 241.49 15.03 243.79 8.64 266.14 8.64 269.62 0 236.14 0"/><polygon class="cls-3" points="134.01 0 119.68 35.69 130.96 35.69 145.23 0 134.01 0"/><polygon class="cls-3" points="177.53 0 170.72 16.95 160.58 0 150.48 0 136.16 35.69 147.43 35.69 154.19 18.74 164.34 35.69 174.48 35.69 188.75 0 177.53 0"/><path class="cls-3" d="M336.63,76.66H298.32l-1.16,2.93h38.32ZM333,57.55l-1.16,2.93H343l1.16-2.93Zm8.09,7.7,1.15-2.93H331.14L330,65.25Zm-2.61,6.63H300.21l-1.16,2.93h38.31Zm-25.1-4.78H302.1L300.94,70h38.31l1.15-2.93H329.24l-.59,1.48H312.83Zm1.92-4.78H304l-1.16,2.93h11.33Zm1.92-4.77H305.87l-1.15,2.93h11.36Zm28.79-4.78H307.76l-1.15,2.93h38.28ZM347.93,48H309.65l-1.16,2.93h38.29Zm.73-1.85,1-2.46H311.36l-1,2.46Z" transform="translate(0 0)"/><path class="cls-3" d="M422,76.66H383.69l-1.16,2.93h38.32Zm-3.6-19.11-1.16,2.93h11.13l1.16-2.93Zm8.09,7.7,1.15-2.93H416.51l-1.16,2.93Zm-2.61,6.63H385.58l-1.16,2.93h38.31Zm-25.1-4.78H387.47L386.31,70h38.31l1.15-2.93H414.61L414,68.58H398.2Zm1.92-4.78H389.36l-1.16,2.93h11.34Zm1.92-4.77H391.25l-1.16,2.93h11.36Zm28.79-4.78H393.14L392,55.7h38.29ZM433.3,48H395l-1.15,2.93h38.28Zm.73-1.85,1-2.46H396.73l-1,2.46Z" transform="translate(0 0)"/><path class="cls-3" d="M379.32,76.66H341l-1.16,2.93h38.32Zm-3.59-19.11-1.17,2.93H385.7l1.15-2.93Zm8.08,7.7L385,62.32H373.83l-1.17,2.93Zm-2.61,6.63H342.89l-1.15,2.93h38.31ZM356.11,67.1H344.78L343.62,70h38.31l1.16-2.93H371.93l-.59,1.48H355.51ZM358,62.32H346.67l-1.16,2.93h11.34Zm1.91-4.77H348.56l-1.16,2.93h11.37Zm28.79-4.78H350.45l-1.16,2.93h38.29ZM390.62,48H352.34l-1.16,2.93h38.28Zm.72-1.85,1-2.46H354l-1,2.46Z" transform="translate(0 0)"/><path class="cls-3" d="M294,76.66h-38.3l-1.18,2.93h38.31Zm1.89-4.78H257.58l-1.18,2.93h38.29ZM270.72,67.1H259.5L258.32,70h11.19Zm28.95-4.78H261.42l-1.18,2.93h11.24l0,0h27.05Zm-10-2.75h-27.1l-.36.91h38.22l1.15-2.93H290.36Zm13.77-6.8H265.21l-.44,1.15h26.91L291,55.7h11.23ZM305.26,48H267l-1.12,2.93h38.21Zm.72-1.85,1-2.46H268.67l-.94,2.46Z" transform="translate(0 0)"/><g class="cls-2"><path class="cls-4" d="M244.16,96.62h2.25s-.38-6.45-6.83-6.45c-4.93,0-6.33,3.41-6.33,10.24,0,7.08,2.15,9.49,6.59,9.49,5.43,0,6.76-6.2,6.76-6.2h-1.94S243.25,107,241,107s-2.28-3.8-2.28-7-.12-6.83,2.41-6.83c2.22,0,3.06,3.42,3.06,3.42" transform="translate(0 0)"/></g><polygon class="cls-4" points="156.64 109.09 161.25 90.17 166.15 90.17 170.35 109.09 167.57 109.13 165.09 96.89 164.28 96.89 162.36 109.09 156.64 109.09"/><polygon class="cls-4" points="162.21 103.17 168.03 103.17 168.03 106.1 161.95 106.1 162.21 103.17"/><rect class="cls-4" x="119.54" y="106.2" width="11.49" height="2.93"/><rect class="cls-4" x="119.54" y="90.17" width="5.06" height="18.97"/><rect class="cls-4" x="195.97" y="90.17" width="11.49" height="2.93"/><rect class="cls-4" x="195.97" y="106.2" width="11.49" height="2.93"/><rect class="cls-4" x="195.97" y="90.17" width="5.06" height="18.97"/><rect class="cls-4" x="199.56" y="98.18" width="5.06" height="2.93"/><rect class="cls-4" x="253.29" y="90.17" width="11.49" height="2.93"/><rect class="cls-4" x="253.29" y="106.2" width="11.49" height="2.93"/><rect class="cls-4" x="253.29" y="90.17" width="5.06" height="18.97"/><rect class="cls-4" x="256.88" y="98.18" width="5.06" height="2.93"/><polygon class="cls-4" points="145.3 98.16 143.58 98.16 142.37 90.17 145.3 90.17 145.3 98.16"/><g class="cls-2"><path class="cls-4" d="M186.84,96.62h2.25s.7-6.45-6.83-6.45c-4.94,0-6.33,3.41-6.33,10.24,0,7.08,2.15,9.49,6.58,9.49,6.77,0,6.77-7.32,6.77-7.32l-2.62-.56s.24,5-3,5c-2.28,0-2.28-3.8-2.28-7s-.13-6.83,2.4-6.83,3.07,3.42,3.07,3.42" transform="translate(0 0)"/></g><rect class="cls-4" x="183.4" y="99.65" width="5.87" height="2.93"/><rect class="cls-4" x="215.08" y="90.17" width="4.86" height="18.97"/><rect class="cls-4" x="223.65" y="90.17" width="2.91" height="18.97"/><polygon class="cls-4" points="219.94 90.17 225.04 109.09 222.84 109.13 217.61 90.17 219.94 90.17"/><rect class="cls-4" x="285.14" y="90.17" width="5.27" height="19.73"/><g class="cls-2"><path class="cls-4" d="M289.54,107.36h2.56c3.57,0,3.6-5.43,3.6-7.44S295.59,93,291.94,93H289.1l1.31-2.81h2.17c4.15,0,6.15,4.71,6.15,9.45s-1.19,10.28-6.79,10.28h-2.3Z" transform="translate(0 0)"/></g><rect class="cls-4" x="308.68" y="90.17" width="5.26" height="14.23"/><rect class="cls-4" x="319.57" y="90.17" width="3.03" height="14.23"/><g class="cls-2"><path class="cls-4" d="M313.94,101v3.41c0,1.63.73,3.25,2.69,3.25s2.94-1,2.94-3.25v-3.66l3,1.71v2c0,2.12-1.26,5.51-6.58,5.51s-7.34-2.54-7.34-5.51v-3.86Z" transform="translate(0 0)"/></g><rect class="cls-4" x="386.47" y="90.17" width="5.06" height="18.97"/><rect class="cls-4" x="382.74" y="90.17" width="12.5" height="2.89"/><rect class="cls-4" x="401.73" y="90.17" width="5.06" height="13.67"/><rect class="cls-4" x="412.2" y="90.17" width="2.91" height="13.67"/><g class="cls-2"><path class="cls-4" d="M406.79,100.56v3.28c0,1.56.7,3.12,2.58,3.12s2.83-1,2.83-3.12v-3.52l2.91,1.64v1.88c0,2-1.21,5.29-6.33,5.29s-7-2.44-7-5.29v-3.71Z" transform="translate(0 0)"/></g><rect class="cls-4" x="344.78" y="90.17" width="11.48" height="2.93"/><rect class="cls-4" x="344.78" y="90.17" width="5.06" height="18.97"/><rect class="cls-4" x="348.37" y="98.18" width="5.06" height="2.93"/><rect class="cls-4" x="362.53" y="90.17" width="5.06" height="13.67"/><rect class="cls-4" x="373" y="90.17" width="2.91" height="13.67"/><g class="cls-2"><path class="cls-4" d="M367.59,100.56v3.28c0,1.56.7,3.12,2.58,3.12s2.83-1,2.83-3.12v-3.52l2.91,1.64v1.88c0,2-1.21,5.29-6.33,5.29s-7.05-2.44-7.05-5.29v-3.71Z" transform="translate(0 0)"/></g><rect class="cls-4" x="421.94" y="90.17" width="5.06" height="18.97"/><g class="cls-2"><path class="cls-4" d="M426.17,98.7h3.65c1.43,0,2.27-.94,2.27-2.87s-.68-3-3-3h-3.39l1.26-2.7h3.59c2.09,0,4.41,2.2,4.41,5.37s-1.58,5.6-4.63,5.6h-4.1Z" transform="translate(0 0)"/></g><polygon class="cls-4" points="431.3 99.99 434.33 109.09 431.55 109.13 428.38 99.99 431.3 99.99"/><g class="cls-2"><path class="cls-3" d="M89.28,35.28a6.87,6.87,0,0,0,5-1.82,6.49,6.49,0,0,0,1.89-4.9,6.32,6.32,0,0,0-.61-2.89,7.7,7.7,0,0,0-1.71-2.2c-.74-.67-1.83-1.54-3.28-2.61a15.91,15.91,0,0,1-2.62-2.24,2.87,2.87,0,0,1-.67-1.86,2.52,2.52,0,0,1,.53-1.69,1.7,1.7,0,0,1,1.36-.62,1.76,1.76,0,0,1,1.42.65,2.61,2.61,0,0,1,.54,1.73v1a.38.38,0,0,0,.13.3.4.4,0,0,0,.29.12h4a.42.42,0,0,0,.3-.12.41.41,0,0,0,.12-.3v-.84a6.59,6.59,0,0,0-1.87-4.87A7.6,7.6,0,0,0,84.24,12a6.33,6.33,0,0,0-1.85,4.76,7,7,0,0,0,.77,3.33A8.72,8.72,0,0,0,85,22.5a33,33,0,0,0,2.84,2.24A21.45,21.45,0,0,1,90.58,27a2.53,2.53,0,0,1,.7,1.8,2.38,2.38,0,0,1-.56,1.64,1.79,1.79,0,0,1-1.4.63,1.76,1.76,0,0,1-1.4-.66,2.64,2.64,0,0,1-.56-1.75v-.77a.41.41,0,0,0-.12-.3.42.42,0,0,0-.3-.12h-4a.4.4,0,0,0-.29.12.38.38,0,0,0-.13.3v1a6.59,6.59,0,0,0,.84,3.35,5.74,5.74,0,0,0,2.38,2.25,7.58,7.58,0,0,0,3.57.81m-16-.28h4.1a.42.42,0,0,0,.3-.12.41.41,0,0,0,.12-.3V10.92a.41.41,0,0,0-.12-.3.42.42,0,0,0-.3-.12h-4.1a.4.4,0,0,0-.29.12.38.38,0,0,0-.13.3V34.58a.38.38,0,0,0,.13.3.4.4,0,0,0,.29.12M41.9,35h3.74a.4.4,0,0,0,.46-.39L48,21.66c0-.09.06-.14.11-.14s.08.05.1.14l2.06,13a.4.4,0,0,0,.46.39h3.78a.4.4,0,0,0,.46-.39L59.36,11q.07-.45-.39-.45H54.85c-.29,0-.44.13-.46.38L52.6,23.48c0,.1-.05.14-.1.14s-.08,0-.1-.14l-2.07-12.6a.39.39,0,0,0-.45-.38H46.34a.4.4,0,0,0-.46.38L44,23.48c0,.1-.05.14-.1.14s-.08,0-.11-.14l-2-12.6c0-.25-.17-.38-.46-.38H37.06c-.25,0-.38.1-.38.31l0,.14,4.72,23.66a.43.43,0,0,0,.46.39M25.62,31a1.93,1.93,0,0,1-1.56-.68,2.7,2.7,0,0,1-.58-1.8V16.94a2.7,2.7,0,0,1,.58-1.8,1.94,1.94,0,0,1,1.56-.69,2,2,0,0,1,1.57.69,2.61,2.61,0,0,1,.6,1.8V28.56a2.61,2.61,0,0,1-.6,1.8,2,2,0,0,1-1.57.68m0,4.24a7.07,7.07,0,0,0,5.16-1.89,6.69,6.69,0,0,0,1.94-5V17.15a6.69,6.69,0,0,0-1.94-5,7.07,7.07,0,0,0-5.16-1.89,7,7,0,0,0-5.15,1.89,6.75,6.75,0,0,0-1.92,5v11.2a6.75,6.75,0,0,0,1.92,5,7,7,0,0,0,5.15,1.89M8.78,10.92v9.52c0,.12,0,.17-.17.17H5.11c-.12,0-.18-.05-.18-.17V10.92a.41.41,0,0,0-.42-.42H.42a.41.41,0,0,0-.42.42V34.58A.41.41,0,0,0,.42,35H4.51a.41.41,0,0,0,.42-.42V25c0-.11.06-.17.18-.17h3.5a.15.15,0,0,1,.17.17v9.56a.38.38,0,0,0,.13.3A.4.4,0,0,0,9.2,35h4.1a.42.42,0,0,0,.3-.12.41.41,0,0,0,.12-.3V10.92a.41.41,0,0,0-.12-.3.42.42,0,0,0-.3-.12H9.2a.4.4,0,0,0-.29.12.38.38,0,0,0-.13.3" transform="translate(0 0)"/><path class="cls-3" d="M601,110a2.67,2.67,0,0,0,2-.79,2.71,2.71,0,0,0,.77-2,2.68,2.68,0,0,0-.77-2,2.73,2.73,0,0,0-2-.77,2.62,2.62,0,0,0-2.73,2.73,2.71,2.71,0,0,0,.77,2,2.67,2.67,0,0,0,2,.77m-2-7.84H603a.41.41,0,0,0,.3-.12.42.42,0,0,0,.12-.3v-.81a2.54,2.54,0,0,1,.47-1.54,10.3,10.3,0,0,1,1.49-1.5A15.88,15.88,0,0,0,607,96.32a6.19,6.19,0,0,0,1-1.8,7.24,7.24,0,0,0,.44-2.65,6.4,6.4,0,0,0-6.82-6.82,7.82,7.82,0,0,0-3.78.89,6.4,6.4,0,0,0-2.56,2.52,7.5,7.5,0,0,0-.91,3.73v.35a.42.42,0,0,0,.12.3.41.41,0,0,0,.3.12l4.1.17c.28,0,.42-.12.42-.38v-.56a2.89,2.89,0,0,1,.59-1.91,2,2,0,0,1,1.61-.72,1.73,1.73,0,0,1,1.42.69,2.8,2.8,0,0,1,.54,1.8,2.92,2.92,0,0,1-.52,1.77,11.42,11.42,0,0,1-1.65,1.69,12.27,12.27,0,0,0-2.08,2.26,5,5,0,0,0-.72,2.82v1.12a.42.42,0,0,0,.12.3.41.41,0,0,0,.3.12m-24.53,8.05a7.11,7.11,0,0,0,5.07-1.8,6.32,6.32,0,0,0,1.93-4.82V97.09a.42.42,0,0,0-.13-.3.4.4,0,0,0-.29-.12h-6.23a.41.41,0,0,0-.42.42v3.11a.41.41,0,0,0,.42.42h1.54c.11,0,.17.06.17.18v2.8a2.54,2.54,0,0,1-.56,1.7,1.87,1.87,0,0,1-1.5.64,1.84,1.84,0,0,1-1.47-.64,2.49,2.49,0,0,1-.56-1.7V91.7a2.47,2.47,0,0,1,.56-1.7,1.85,1.85,0,0,1,1.47-.65,1.88,1.88,0,0,1,1.5.65,2.52,2.52,0,0,1,.56,1.7v1.4a.42.42,0,0,0,.12.3.41.41,0,0,0,.3.12H581a.4.4,0,0,0,.29-.12.43.43,0,0,0,.13-.3V91.77a6.34,6.34,0,0,0-1.93-4.83,8,8,0,0,0-10.13,0,6.32,6.32,0,0,0-1.91,4.81v11.83a6.34,6.34,0,0,0,1.91,4.82,7.07,7.07,0,0,0,5.06,1.8m-16.7-24.36,0,13.44a.1.1,0,0,1-.09.12q-.09,0-.12-.09l-4.38-13.54a.44.44,0,0,0-.45-.35H548.1a.41.41,0,0,0-.42.42v23.66a.42.42,0,0,0,.12.3.41.41,0,0,0,.3.12h4.06a.41.41,0,0,0,.3-.12.42.42,0,0,0,.12-.3l0-13.44c0-.07,0-.11.08-.12s.1,0,.13.08l4.34,13.55a.44.44,0,0,0,.45.35h4.62a.41.41,0,0,0,.3-.12.42.42,0,0,0,.12-.3V85.82a.41.41,0,0,0-.42-.42h-4.06a.41.41,0,0,0-.42.42M538,109.9h4.1a.4.4,0,0,0,.29-.12.43.43,0,0,0,.13-.3V85.82a.42.42,0,0,0-.13-.3.4.4,0,0,0-.29-.12H538a.41.41,0,0,0-.42.42v23.66a.42.42,0,0,0,.12.3.41.41,0,0,0,.3.12m-19.28,0h4.09a.41.41,0,0,0,.3-.12.42.42,0,0,0,.12-.3v-7a.55.55,0,0,1,.07-.21l1-1.82a.29.29,0,0,1,.14-.08s.08,0,.1.08l3.64,9.17a.46.46,0,0,0,.49.32H533c.23,0,.35-.09.35-.28a.56.56,0,0,0,0-.21l-5.49-13.23a1,1,0,0,1,0-.21l5.18-10.08a.38.38,0,0,0,0-.37.39.39,0,0,0-.33-.12H528.4a.53.53,0,0,0-.49.31l-4.52,9c0,.1-.06.14-.12.13s-.09-.07-.09-.16V85.82a.41.41,0,0,0-.42-.42h-4.09a.41.41,0,0,0-.42.42v23.66a.42.42,0,0,0,.12.3.41.41,0,0,0,.3.12m-13.9-20.27h1.58a2.15,2.15,0,0,1,1.76.86,3.61,3.61,0,0,1,.69,2.33,3.53,3.53,0,0,1-.69,2.29,2.15,2.15,0,0,1-1.76.86h-1.58c-.12,0-.17-.06-.17-.18v-6c0-.12,0-.18.17-.18m4.55,20.27h4.2c.26,0,.39-.12.39-.35l0-.14-3.22-10.33a.13.13,0,0,1,0-.12.35.35,0,0,1,.11-.09,5.91,5.91,0,0,0,2.18-2.45,8,8,0,0,0,.79-3.64,8.64,8.64,0,0,0-.82-3.85,6.14,6.14,0,0,0-2.33-2.6,6.39,6.39,0,0,0-3.43-.93h-7.07a.42.42,0,0,0-.3.12.41.41,0,0,0-.12.3v23.66a.41.41,0,0,0,.42.42h4.1a.4.4,0,0,0,.29-.12.39.39,0,0,0,.13-.3V99.92a.15.15,0,0,1,.17-.17H506c.07,0,.13,0,.18.14l2.69,9.66a.46.46,0,0,0,.49.35m-21.59-4a1.91,1.91,0,0,1-1.56-.68,2.65,2.65,0,0,1-.58-1.8V91.84a2.65,2.65,0,0,1,.58-1.8,1.92,1.92,0,0,1,1.56-.69,2,2,0,0,1,1.57.69,2.61,2.61,0,0,1,.6,1.8v11.62a2.61,2.61,0,0,1-.6,1.8,2,2,0,0,1-1.57.68m0,4.24a7.1,7.1,0,0,0,5.16-1.89,6.73,6.73,0,0,0,1.94-5V92.05a6.73,6.73,0,0,0-1.94-5,7.1,7.1,0,0,0-5.16-1.89A7,7,0,0,0,482.58,87a6.75,6.75,0,0,0-1.92,5v11.2a6.75,6.75,0,0,0,1.92,5,7,7,0,0,0,5.15,1.89m-28-.28h3.75a.39.39,0,0,0,.45-.39l1.86-13c0-.09.05-.14.1-.14s.08,0,.11.14l2.06,13a.4.4,0,0,0,.46.39h3.78a.39.39,0,0,0,.45-.39l4.45-23.66q.06-.45-.39-.45h-4.13c-.28,0-.43.13-.45.38l-1.79,12.6c0,.1-.06.14-.1.14s-.09,0-.11-.14l-2.06-12.6a.4.4,0,0,0-.46-.38h-3.53c-.28,0-.44.13-.46.38l-1.89,12.6c0,.1-.06.14-.1.14s-.09,0-.11-.14l-2-12.6a.4.4,0,0,0-.46-.38h-4.27c-.26,0-.38.1-.38.31l0,.14,4.73,23.66a.41.41,0,0,0,.45.39" transform="translate(0 0)"/></g></g></g></g></g></svg>