<svg xmlns="http://www.w3.org/2000/svg" viewBox="0 0 106 30.06"><defs><style>.cls-1{fill:#33475b;}.cls-2{fill:#ff7a59;}</style></defs><g id="Calque_2" data-name="Calque 2"><g id="Calque_1-2" data-name="Calque 1"><path class="cls-1" d="M11.48,5v8.47H3.69V5H0V25.21H3.69V17h7.79v8.2h3.7V5ZM27,18.67a3.06,3.06,0,1,1-6.11,0V10H17.38v8.67a6.56,6.56,0,0,0,13.11,0V10H27Zm26-7.78a2.18,2.18,0,0,1,2.46-2.34,5.26,5.26,0,0,1,3.31,1.75L61,7.6A7.22,7.22,0,0,0,55.66,5c-3.8,0-6.55,2.22-6.55,5.91,0,6.85,8.37,4.68,8.37,8.51A2.41,2.41,0,0,1,55,21.63c-2.07,0-2.75-1-3.7-2.08l-2.55,2.64a7.53,7.53,0,0,0,6,3c3.61,0,6.52-2.25,6.52-5.78,0-7.6-8.37-5.24-8.37-8.54M104.77,22c-2.07,0-2.66-.89-2.66-2.26V13.63h3.22V10.55h-3.22V6.49l-3.56,1.6V20.46c0,3.17,2.19,4.76,5.18,4.76a7.28,7.28,0,0,0,1.4-.11l.87-3.19c-.39,0-.84,0-1.23,0M40.34,10.1a5.41,5.41,0,0,0-4.12,1.66V5.1H32.71V17.44c0,4.62,3.34,7.79,7.1,7.79a7.7,7.7,0,0,0,7.83-7.56,7.43,7.43,0,0,0-7.3-7.56m0,11.58a4,4,0,1,1,4-4,4,4,0,0,1-4,4h0m38.14-4.21a7.68,7.68,0,0,0-7.82-7.56c-3.76,0-7.1,3.17-7.1,7.79V30.06h3.51V23.39A5.38,5.38,0,0,0,71.17,25a7.42,7.42,0,0,0,7.29-7.56m-3.32,0a4,4,0,0,1-8,0h0a4,4,0,1,1,8,0"/><path class="cls-2" d="M89.81,9.75V6.22a2.69,2.69,0,0,0,1.56-2.44V3.7A2.71,2.71,0,0,0,88.66,1h-.09A2.71,2.71,0,0,0,85.86,3.7h0v.08a2.69,2.69,0,0,0,1.56,2.44V9.75a7.72,7.72,0,0,0-3.65,1.61L74.1,3.83a3.3,3.3,0,0,0,.1-.76,3.06,3.06,0,1,0-3.06,3.05h0a3,3,0,0,0,1.51-.41l9.52,7.41a7.72,7.72,0,0,0,.12,8.69l-2.9,2.9a2.93,2.93,0,0,0-.72-.12,2.52,2.52,0,1,0,2.51,2.52,2.58,2.58,0,0,0-.11-.73l2.86-2.86A7.73,7.73,0,1,0,89.81,9.75m-1.19,11.6a4,4,0,0,1-.22-7.93h.22a4,4,0,0,1,0,7.93"/></g></g></svg>