<svg xmlns="http://www.w3.org/2000/svg" viewBox="0 0 95.85 208.01"><defs><style>.cls-1{fill:#245461;}</style></defs><g id="Calque_2" data-name="Calque 2"><g id="Calque_1-2" data-name="Calque 1"><g id="Calque_2-2" data-name="Calque 2"><g id="Calque_1-2-2" data-name="Calque 1-2"><path class="cls-1" d="M17.26,76.16A17.09,17.09,0,1,0,.18,59.06h0A17.1,17.1,0,0,0,17.26,76.16"/><path class="cls-1" d="M11.71,14.64a7.86,7.86,0,0,1-1.12.57,6.78,6.78,0,0,1-1.39.43,8.31,8.31,0,0,1-1.65.16,7.68,7.68,0,0,1-3.1-.6,7.16,7.16,0,0,1-2.39-1.65,7.64,7.64,0,0,1-1.52-2.4A7.77,7.77,0,0,1,0,8.25,8,8,0,0,1,.57,5.19a7.4,7.4,0,0,1,1.6-2.48A7.45,7.45,0,0,1,7.58.48,7.58,7.58,0,0,1,9.8.79a8.54,8.54,0,0,1,1.88.83l-.45.95a7.9,7.9,0,0,0-1.66-.79,5.89,5.89,0,0,0-2-.31A6.19,6.19,0,0,0,5.06,2,6.64,6.64,0,0,0,3,3.42a6.78,6.78,0,0,0-1.4,2.14A7,7,0,0,0,1.07,8.2a7.15,7.15,0,0,0,.46,2.55,6.09,6.09,0,0,0,1.31,2.11,6.22,6.22,0,0,0,2.05,1.43,6.66,6.66,0,0,0,2.68.51,6.18,6.18,0,0,0,2-.3,7.45,7.45,0,0,0,1.64-.77Z"/><path class="cls-1" d="M19.52,9.7h6.65l.29,1H19.27Zm-3.06,5.93L22.79,0h.11l6.33,15.64H28.07l-5.51-14,.72-.4L17.51,15.63Z"/><path class="cls-1" d="M40.35,8.81l4.16,6.82H43.3L39.13,8.84ZM38.2,8.35A4.71,4.71,0,0,0,40.06,8,2.92,2.92,0,0,0,41.82,6.1,3.86,3.86,0,0,0,42,4.93a3.4,3.4,0,0,0-.24-1.26,3,3,0,0,0-.71-1A3.58,3.58,0,0,0,39.9,1.9a3.76,3.76,0,0,0-1.45-.26H35.92V8.35Zm.13-7.7A5.86,5.86,0,0,1,40,.89a4.82,4.82,0,0,1,1.52.76A3.82,3.82,0,0,1,42.63,3a4,4,0,0,1,.42,1.92,5.06,5.06,0,0,1-.25,1.64A3.89,3.89,0,0,1,42,8,4,4,0,0,1,40.5,9a5.51,5.51,0,0,1-2.24.38H35.9v6.29h-1V.65Z"/><path class="cls-1" d="M49.74,8.18a6.56,6.56,0,0,0,1.93,4.69,6.79,6.79,0,0,0,2.09,1.42,6.64,6.64,0,0,0,5.14,0A6.44,6.44,0,0,0,61,12.87a6.91,6.91,0,0,0,1.43-2.11A6.62,6.62,0,0,0,63,8.16a6.53,6.53,0,0,0-.51-2.58A6.87,6.87,0,0,0,61,3.44,6.65,6.65,0,0,0,58.9,2a6.13,6.13,0,0,0-2.57-.53,6.31,6.31,0,0,0-2.6.54,6.7,6.7,0,0,0-2.1,1.47,6.48,6.48,0,0,0-1.39,2.14,6.79,6.79,0,0,0-.5,2.56Zm-1.05,0a7.54,7.54,0,0,1,.59-3A7.78,7.78,0,0,1,50.9,2.75a7.69,7.69,0,0,1,2.44-1.67,7.8,7.8,0,0,1,6,0,7.69,7.69,0,0,1,2.44,1.67A7.59,7.59,0,0,1,63.44,5.2a7.22,7.22,0,0,1,.6,3,7.22,7.22,0,0,1-.6,3,7.74,7.74,0,0,1-7.08,4.67,7.7,7.7,0,0,1-3-.57,7.49,7.49,0,0,1-2.44-1.6,7.33,7.33,0,0,1-1.65-2.43,7.9,7.9,0,0,1-.59-3"/><polygon class="cls-1" points="70.07 0.65 71.11 0.65 71.11 14.64 79.32 14.64 79.32 15.63 70.07 15.63 70.07 0.65"/><polygon class="cls-1" points="85.04 0.65 94.28 0.65 94.28 1.64 86.07 1.64 86.07 7.59 93.46 7.59 93.46 8.58 86.07 8.58 86.07 14.64 94.58 14.64 94.58 15.63 85.04 15.63 85.04 0.65"/><polygon class="cls-1" points="0.63 34.62 0.63 23.16 0.64 23.16 6.06 31.6 5.37 31.43 10.76 23.16 10.79 23.16 10.79 34.62 9.19 34.62 9.19 27.16 9.28 28.06 5.65 33.72 5.62 33.72 1.91 28.06 2.19 27.23 2.19 34.62 0.63 34.62"/><polygon class="cls-1" points="15.02 23.56 21.7 23.56 21.7 25.26 16.64 25.26 16.64 28.21 21.15 28.21 21.15 29.91 16.64 29.91 16.64 32.92 21.9 32.92 21.9 34.62 15.02 34.62 15.02 23.56"/><polygon class="cls-1" points="24.87 23.56 31.61 23.56 31.61 25.26 29 25.26 29 34.62 27.4 34.62 27.4 25.26 24.87 25.26 24.87 23.56"/><polygon class="cls-1" points="34.4 23.56 41.13 23.56 41.13 25.26 38.53 25.26 38.53 34.62 36.93 34.62 36.93 25.26 34.4 25.26 34.4 23.56"/><path class="cls-1" d="M45.69,30.52h3.43L49.68,32H45.2Zm-2.82,4.1L47.34,23.1h.1L51.9,34.62H50.06L46.9,25.86,48.06,25l-3.6,9.59Z"/><polygon class="cls-1" points="55.06 23.56 58.22 32.23 57.3 32.02 60.25 23.56 62.14 23.56 57.63 35.12 53.15 23.55 55.06 23.56"/><path class="cls-1" d="M66.22,30.52h3.43L70.2,32H65.72Zm-2.82,4.1L67.9,23.1H68l4.45,11.52H70.61l-3.15-8.76L68.62,25,65,34.62Z"/><polygon class="cls-1" points="84.44 35.01 76.71 26.78 77.19 26.99 77.22 34.62 75.59 34.62 75.59 23.18 75.67 23.18 83.26 31.41 82.9 31.29 82.88 23.56 84.48 23.56 84.48 35.02 84.44 35.01"/><polygon class="cls-1" points="88.01 23.56 94.75 23.56 94.75 25.26 92.15 25.26 92.15 34.62 90.54 34.62 90.54 25.26 88.01 25.26 88.01 23.56"/><path class="cls-1" d="M53.43,75.7a10.15,10.15,0,0,1-4.17-.86A9.16,9.16,0,0,1,46,72.45L48.41,69a9.85,9.85,0,0,0,2.47,1.88,4.37,4.37,0,0,0,3.32.41,2.05,2.05,0,0,0,.9-.5,1.24,1.24,0,0,0,.33-.88,1.48,1.48,0,0,0-.56-1.22,4.77,4.77,0,0,0-1.43-.75l-1.87-.61A6.73,6.73,0,0,1,48,64.78a6.31,6.31,0,0,1-1.1-3.59,6.94,6.94,0,0,1,.72-3,6.24,6.24,0,0,1,2.33-2.53,7.65,7.65,0,0,1,4.13-1,13.25,13.25,0,0,1,3.86.5,9.32,9.32,0,0,1,3,1.63l-2.2,3.7A8.67,8.67,0,0,0,57,59.34a4.73,4.73,0,0,0-1.8-.52A2.69,2.69,0,0,0,53.9,59a2.15,2.15,0,0,0-.81.59,1.2,1.2,0,0,0-.29.77,1.51,1.51,0,0,0,.6,1.35,4.41,4.41,0,0,0,1.64.77q1,.27,2,.63a7.68,7.68,0,0,1,2.29,1.23,5.34,5.34,0,0,1,1.47,1.83,5.75,5.75,0,0,1,.52,2.55,7.24,7.24,0,0,1-.85,3.41,6.49,6.49,0,0,1-2.57,2.6,8.59,8.59,0,0,1-4.39,1"/><path class="cls-1" d="M86,75.84a11,11,0,0,1-5.63-1.36,8.86,8.86,0,0,1-3.5-3.75,12.12,12.12,0,0,1-1.21-5.52,10.46,10.46,0,0,1,1.41-5.38A10.81,10.81,0,0,1,80.9,56a10.08,10.08,0,0,1,5.27-1.42A8.86,8.86,0,0,1,92.59,57a12.53,12.53,0,0,1,3.26,7.12L81.73,69l-1.28-3.43,10.21-3.75-1.21.58a4.79,4.79,0,0,0-1.18-2,3.33,3.33,0,0,0-2.55-.88,4,4,0,0,0-2.27.65A4.34,4.34,0,0,0,81.9,62a7,7,0,0,0-.52,2.83,6.89,6.89,0,0,0,.62,3.1,4.33,4.33,0,0,0,1.7,1.87,4.63,4.63,0,0,0,2.41.64A4.91,4.91,0,0,0,88,70.08a10.76,10.76,0,0,0,1.77-1l2.57,4.7a14.32,14.32,0,0,1-3.13,1.44,10.41,10.41,0,0,1-3.18.55"/><path class="cls-1" d="M22.77,101.14l3.45-6.29H32L24.81,105.7ZM22,108.28,18,114.61H12.19L19.37,104Zm11,6.33H26L12,94.85h7.14Z"/><path class="cls-1" d="M50.36,104.53a6.34,6.34,0,0,0,.58,2.78,5.07,5.07,0,0,0,1.58,2,3.7,3.7,0,0,0,2.24.72,4.06,4.06,0,0,0,2.36-.72,4.66,4.66,0,0,0,1.54-2,7.48,7.48,0,0,0,0-5.58,4.68,4.68,0,0,0-1.54-2,3.92,3.92,0,0,0-2.36-.72,3.68,3.68,0,0,0-2.24.72,4.85,4.85,0,0,0-1.58,2,6.43,6.43,0,0,0-.58,2.8m-5.86,0a11.13,11.13,0,0,1,1.31-5.42,9.69,9.69,0,0,1,3.68-3.78,10.65,10.65,0,0,1,5.43-1.37,10.32,10.32,0,0,1,5.4,1.37,9.2,9.2,0,0,1,3.51,3.78,11.82,11.82,0,0,1,1.22,5.42,11.94,11.94,0,0,1-1.22,5.45,9.37,9.37,0,0,1-3.51,3.82,10.24,10.24,0,0,1-5.48,1.4,11.14,11.14,0,0,1-5.34-1.26,9.13,9.13,0,0,1-3.67-3.67,11.68,11.68,0,0,1-1.33-5.74"/><rect class="cls-1" x="52.73" y="124.93" width="5.81" height="35.67"/><path class="cls-1" d="M81.1,150.51a6.63,6.63,0,0,0,.58,2.78,5,5,0,0,0,1.58,2,3.77,3.77,0,0,0,2.24.73,4,4,0,0,0,2.37-.73,4.61,4.61,0,0,0,1.54-2,7.58,7.58,0,0,0,0-5.58,4.71,4.71,0,0,0-1.54-1.94A3.94,3.94,0,0,0,85.5,145a3.77,3.77,0,0,0-2.24.73,5.06,5.06,0,0,0-1.58,1.94A6.6,6.6,0,0,0,81.1,150.51Zm-5.85,0a11.13,11.13,0,0,1,1.31-5.42,9.6,9.6,0,0,1,3.67-3.78,10.6,10.6,0,0,1,5.44-1.38,10.24,10.24,0,0,1,5.4,1.38,9.27,9.27,0,0,1,3.51,3.78,11.82,11.82,0,0,1,1.22,5.42A12,12,0,0,1,94.58,156a9.44,9.44,0,0,1-3.51,3.82,10.33,10.33,0,0,1-5.48,1.4,11,11,0,0,1-5.34-1.27,9,9,0,0,1-3.67-3.66,11.58,11.58,0,0,1-1.33-5.74"/><path class="cls-1" d="M16.09,187.89a6.13,6.13,0,0,0,.67,2.85,5,5,0,0,0,1.8,2,4.62,4.62,0,0,0,2.56.73,6.48,6.48,0,0,0,2.14-.34,4.9,4.9,0,0,0,1.65-1,5.52,5.52,0,0,0,1.23-1.65v-4.83A4.43,4.43,0,0,0,25,184a5.37,5.37,0,0,0-1.73-1.08,5.75,5.75,0,0,0-2.17-.39,4.81,4.81,0,0,0-2.56.7,5.06,5.06,0,0,0-1.8,1.93,5.68,5.68,0,0,0-.67,2.8ZM21,208a11.62,11.62,0,0,1-4.13-.63,10.85,10.85,0,0,1-2.84-1.54q-1.17-.9-2.07-1.71l3.4-4.34a17.69,17.69,0,0,0,2.22,1.83,5.79,5.79,0,0,0,3.34.88A6.36,6.36,0,0,0,23.5,202a4.58,4.58,0,0,0,1.91-1.52,4.08,4.08,0,0,0,.73-2.48v-4.34l.21,1.13a6.27,6.27,0,0,1-2.41,2.69,8.82,8.82,0,0,1-9.11-.23,9.81,9.81,0,0,1-3.34-3.75,11.49,11.49,0,0,1-1.25-5.4,11.25,11.25,0,0,1,1.33-5.54A10.53,10.53,0,0,1,15,178.71a7.92,7.92,0,0,1,4.49-1.4,10,10,0,0,1,4.08.75,6.5,6.5,0,0,1,2.6,1.82l-.21.59.62-2.17H32v19.76a9,9,0,0,1-1.5,5.13,10.4,10.4,0,0,1-4,3.53A11.64,11.64,0,0,1,21,208"/><path class="cls-1" d="M54,199a5.64,5.64,0,0,1-4.11-1.65,6.06,6.06,0,0,1-1.74-4.28V178.3h5.8v12.43a4.25,4.25,0,0,0,.62,2.11,2.07,2.07,0,0,0,1.83.79,3,3,0,0,0,2.22-.95,6.28,6.28,0,0,0,1.46-2.6,12.4,12.4,0,0,0,.51-3.73v-8h5.82v19.76H61.08l-.45-3.62.08.41A8.45,8.45,0,0,1,59.13,197a6.64,6.64,0,0,1-2.26,1.47,7.91,7.91,0,0,1-2.93.52"/><path class="cls-1" d="M86,198.6a11,11,0,0,1-5.63-1.36,8.8,8.8,0,0,1-3.5-3.75A12.08,12.08,0,0,1,75.66,188a10.46,10.46,0,0,1,1.41-5.38,10.81,10.81,0,0,1,3.78-3.82,10,10,0,0,1,5.27-1.43,8.81,8.81,0,0,1,6.42,2.47,12.4,12.4,0,0,1,3.26,7.12l-14.12,4.88-1.28-3.44,10.21-3.75-1.21.59a4.74,4.74,0,0,0-1.18-2.06,3.4,3.4,0,0,0-2.55-.88,3.89,3.89,0,0,0-2.27.66,4.22,4.22,0,0,0-1.49,1.85,7,7,0,0,0-.52,2.83,6.87,6.87,0,0,0,.62,3.09,4.41,4.41,0,0,0,1.7,1.88,4.74,4.74,0,0,0,2.41.63,4.91,4.91,0,0,0,1.85-.36,9.14,9.14,0,0,0,1.77-1l2.57,4.7a14.36,14.36,0,0,1-3.13,1.45,10.45,10.45,0,0,1-3.18.54"/></g></g></g></g></svg>