<?xml version="1.0" encoding="utf-8"?>
<!-- Generator: Adobe Illustrator 25.3.1, SVG Export Plug-In . SVG Version: 6.00 Build 0)  -->
<svg version="1.1" id="Calque_1" xmlns="http://www.w3.org/2000/svg" xmlns:xlink="http://www.w3.org/1999/xlink" x="0px" y="0px"
	 viewBox="0 0 2475.8 807.3" style="enable-background:new 0 0 2475.8 807.3;" xml:space="preserve">
<style type="text/css">
	.st0{fill:#714C6C;}
	.st1{fill:#FFFFFF;}
	.st2{fill:#E91E63;}
	.st3{fill:#FFA000;}
	.st4{fill:#00BFA5;}
</style>
<g id="Calque_2_1_">
	<g id="Colors">
		<g>
			<path class="st0" d="M336.4,12.1C323.2-0.4,302.5,0.2,290,13.3c-6.1,6.6-9.2,14.9-9.2,24.7v257.6c0,20.2-5.8,40-16.6,57.1
				c-11.2,18-26.6,33-44.9,43.7c-18.5,10.9-38.1,16.5-58.2,16.5c-33.1,0-56.6-9.3-71.7-28.6C73.8,364.7,66,334.8,66,295.6V38
				c0-9.8-3.1-18.1-9.2-24.7C50.7,6.6,42,2.9,33,3.1C24,2.9,15.3,6.6,9.2,13.3C3.1,19.9,0,28.2,0,38v265.4
				c0,53.2,12.8,96.1,38,127.5c25.7,32.1,63.5,48.3,112.6,48.3c30.3,0.1,60.1-7.9,86.1-23.3c16.7-9.7,31.6-22.2,44.1-37v1.1
				c0,49.4-12.3,88.7-36.6,116.9s-56.5,41.8-98.4,41.8c-29.1,0-60.4-9.8-93-29l-0.3-0.2c-4.2-2.4-9-3.6-13.9-3.7
				c-6.4,0-12.5,2.2-17.5,6.2c-5.3,4.1-9.1,10-11.2,17.7l-0.1,0.4c-1.6,6.9-1.8,9.2-1.8,10.7c0,12.4,7,23.3,20.8,32.5
				c13.6,9.2,30.8,16.6,51.1,22c21.3,5.5,43.2,8.2,65.1,8.1c38.2,0,72.9-8.7,103.7-26.3c30.7-17.5,55.1-43.5,72.3-77.2
				c17.1-33.4,25.8-74,25.8-120.8V38c0-9.8-3.1-18.1-9.2-24.7C337.2,12.9,336.8,12.5,336.4,12.1z"/>
			<path class="st0" d="M742.7,32.2c-32.3-21-68.7-31.7-108.1-31.7s-76,10.7-108.1,31.7c-32.1,21-57.7,50.1-75.9,86.5
				c-18.1,36.3-27.3,77.2-27.3,121.6s9.2,85.3,27.3,121.6c18.3,36.5,43.8,65.4,76,86.1c32.2,20.7,68.6,31.3,108.1,31.3
				c39.4,0,75.9-10.6,108.1-31.3c32.2-20.7,57.8-49.7,76-86.1c18.1-36.2,27.3-77.2,27.3-121.6s-9.2-85.3-27.4-121.6
				C800.4,82.3,775,53.2,742.7,32.2z M780,240.3c0,33-6.4,63.1-19.1,89.5c-12.6,26-30.2,46.6-52.4,61.2
				c-21.9,14.4-47.6,22-73.9,21.8c-26.1,0.2-51.7-7.5-73.4-22.2c-22-14.9-39.7-35.7-52.6-61.8c-12.9-26.3-19.5-56.1-19.5-88.5
				c0-33,6.5-63.1,19.5-89.4c12.8-26.1,30.6-46.9,52.6-61.8c21.6-14.7,47.2-22.4,73.4-22.2c26.3-0.2,52,7.6,73.8,22.3
				c22.3,14.9,39.9,35.7,52.5,61.7C773.6,177.2,780,207.3,780,240.3z"/>
			<path class="st0" d="M1218.7,32.2c-32.3-21-68.7-31.7-108.1-31.7s-76,10.7-108.1,31.7c-32.1,21-57.7,50.1-75.9,86.5
				c-18.1,36.3-27.3,77.2-27.3,121.6s9.2,85.3,27.3,121.6c18.3,36.5,43.7,65.4,76,86.1c32.3,20.7,68.6,31.3,108.1,31.3
				c39.4,0,75.9-10.6,108.1-31.3c32.2-20.7,57.8-49.7,76-86.1c18.2-36.2,27.3-77.2,27.3-121.6s-9.2-85.3-27.3-121.6
				C1276.4,82.3,1250.8,53.2,1218.7,32.2z M1256,240.3c0,33-6.4,63.1-19.1,89.5c-12.6,26-30.2,46.6-52.4,61.2
				c-21.9,14.4-47.6,22-73.9,21.8c-26.1,0.2-51.7-7.5-73.4-22.2c-22-14.9-39.7-35.7-52.6-61.8c-12.9-26.3-19.5-56.1-19.5-88.5
				c0-33,6.5-63.1,19.5-89.4c12.8-26.1,30.6-46.9,52.6-61.8c21.6-14.7,47.2-22.4,73.4-22.2c26.3-0.2,52,7.6,73.8,22.3
				c22.3,14.9,39.9,35.7,52.5,61.7C1249.6,177.2,1256,207.3,1256,240.3z"/>
			<path class="st0" d="M1659.4,404.1h-199.1l228.2-340.4c5.3-7.8,7.9-15.9,7.9-24c0.1-8.7-2.9-17.2-8.4-23.9c-5.5-7-14-11.1-23-11
				h-245.6c-8.6-0.1-16.9,3.4-22.8,9.6c-6.2,6.3-9.6,14.8-9.4,23.6c-0.2,8.8,3.2,17.3,9.3,23.6c5.9,6.2,14.2,9.7,22.8,9.6h184
				l-227.2,340.1c-5.9,7.1-9.1,16-9,25.2c0,7.8,2.8,15.4,8.3,22.4c5.6,7.5,14.5,11.8,23.9,11.7h260c9.5,0,17.4-3.3,23.5-9.8
				c5.8-6.3,8.8-14.2,8.8-23.4c0-9.2-2.9-17-8.8-23.4S1668.8,404.1,1659.4,404.1z"/>
		</g>
		<g>
			<polygon class="st1" points="1914.5,531.9 1827.1,56.6 1827.1,56.6 1914.5,532 1961.7,523.3 1961.7,523.2 			"/>
			<polygon class="st2" points="1961.7,523.2 1961.7,492.7 1938.5,496.9 1862,80.5 2110,34.9 2132,154.7 2150.3,87.9 2134.1,0.2 
				1827.1,56.6 1914.5,531.9 			"/>
			<path class="st1" d="M2475.8,134.9L2192,57.2C2242.5,71,2475.8,134.9,2475.8,134.9l-127.6,466.3l0,0L2475.8,134.9z"/>
			<polygon class="st1" points="2163.4,159.5 2163.4,159.5 2162.8,155.9 2162.8,155.9 			"/>
			<polygon class="st1" points="2163.4,159.5 2162.8,155.9 2161.8,159.5 			"/>
			
				<rect x="2318.1" y="561.7" transform="matrix(0.2639 -0.9646 0.9646 0.2639 1134.5869 2672.4272)" class="st3" width="0" height="62.3"/>
			<path class="st3" d="M2161,48.7L2161,48.7l31,8.5C2186.5,55.7,2161,48.7,2161,48.7z"/>
			<line class="st3" x1="2162.8" y1="155.9" x2="2162.8" y2="155.9"/>
			<path class="st3" d="M2161,48.7c0,0.1-30.3,110.7-30.3,110.7c0,0,31.1,0,31.1,0l6.4-23.3l0,0l13.8-50.6l256.9,70.3l-111.7,408.4
				l-39.1-10.7v31.1l60.1,16.4l127.5-466.2L2161,48.7z"/>
			<path class="st4" d="M1961.7,159.5v483.4h326.3V159.5H1961.7z M2258.1,612.9h-266.3c0-84.1,0-335.4,0-423.4
				c75.5,0,191.5,0,266.3,0C2258.1,218.4,2258.1,612.9,2258.1,612.9z"/>
			<g>
				<path class="st4" d="M2162.4,320.2c-16-19.3-32.6-30.5-33.9-31.4l-1.8-1.2l-4.4-2.9l0,0l0,0l-6.2,4.1
					c-1.2,0.8-13.6,9.2-27.3,23.8c0,0,0,0,0,0c-17.9,19.1-38,48.7-38.1,85.8c0,12.4,2.2,22.8,6,31.5c0,0,0,0,0,0
					c5.4,12.5,14,21.4,23.5,27.6c6.8,4.4,14.2,7.5,21.3,9.5c3.2,0.9,6.4,1.6,9.4,2l0,26.8l0,0.2l0,3.6c0,2.2,0.6,4.3,1.8,6
					c2,3.1,5.4,5.2,9.4,5.2c0,0,0,0,0,0c1.8,0,3.5-0.4,5-1.2c2-1,3.7-2.6,4.8-4.6c0.1-0.3,0.3-0.5,0.4-0.8c0-0.1,0.1-0.1,0.1-0.2
					c0.6-1.3,0.9-2.8,0.9-4.4v-7.7v-0.2V469c6.4-1,13.3-2.8,20.2-5.8c5-2.2,10-5,14.7-8.5c6.1-4.6,11.6-10.4,15.9-17.7
					c5.9-9.9,9.7-22.5,9.7-38.4C2193.6,366.1,2178.3,339.3,2162.4,320.2z M2175.6,398.6c0,16.7-5,29.7-14.9,38.9
					c-9.2,8.5-20.6,12-27.8,13.4l0.1-83c0-5.8-4.9-10.4-11-10.4c-6.1,0-11,4.6-11,10.4l-0.1,82.9c-6.7-1.4-16.9-4.5-25.6-11.8
					c-0.6-0.5-1.2-1-1.8-1.6c-9.8-9.2-14.8-22.2-14.8-38.9c0-22.9,9.3-45.5,27.5-67.1c7.5-8.9,15.9-16.9,25.1-24
					c0.3-0.2,0.6-0.5,1-0.8c9.5,7.3,18.3,15.7,26,24.9c12.3,14.7,20.5,29.9,24.5,45.3l2.2,12.2
					C2175.4,392.1,2175.6,395.4,2175.6,398.6z"/>
				<polygon class="st4" points="2122.3,284.7 2122.3,284.7 2122.3,284.7 				"/>
			</g>
		</g>
	</g>
</g>
</svg>
