<?xml version="1.0" encoding="utf-8"?>
<!-- Generator: Adobe Illustrator 26.0.1, SVG Export Plug-In . SVG Version: 6.00 Build 0)  -->
<svg version="1.1" id="Calque_1" xmlns="http://www.w3.org/2000/svg" xmlns:xlink="http://www.w3.org/1999/xlink" x="0px" y="0px"
	 viewBox="0 0 366.2 127.5" style="enable-background:new 0 0 366.2 127.5;" xml:space="preserve">
<style type="text/css">
	.st0{fill:#303880;}
	.st1{fill:#69A341;}
</style>
<g id="Calque_2_00000060737930810718598140000016830830628026807202_">
	<g id="Calque_1-2">
		<g id="Illustration_9">
			<g>
				<g>
					<polygon class="st0" points="85.6,0 80.2,13.5 94.1,13.5 82.9,41.3 99.5,41.3 110.6,13.5 124.6,13.5 129.9,0 					"/>
					<polygon class="st0" points="321.9,0 316.4,13.5 330.3,13.5 319.2,41.3 335.7,41.3 346.9,13.5 360.8,13.5 366.2,0 					"/>
					<polygon class="st0" points="277.9,0 261.3,41.3 300.1,41.3 304.1,31.3 278.3,31.3 281.3,23.9 298.7,23.9 301.3,17.4 
						284.1,17.4 286.8,10 312.7,10 316.7,0 					"/>
					<polygon class="st0" points="259.8,0 251.9,19.6 240.1,0 228.4,0 211.9,41.3 224.9,41.3 232.8,21.7 244.5,41.3 256.2,41.3 
						272.8,0 					"/>
					<path class="st0" d="M187.9,10h18.3l-2.7,7.4h-18.2L187.9,10z M179,0l-16.6,41.3h13.1l4.2-10.4h12.7l3.4,5.7l-2,4.8h13.1
						l4.8-12.2l-2.5-4.2l5.9-4.1l6.5-16.1L218.6,0H179z"/>
					<polygon class="st0" points="135.1,0 118.5,41.3 157.3,41.3 161.3,31.3 135.4,31.3 138.5,23.9 155.9,23.9 158.5,17.4 
						141.3,17.4 143.9,10 169.8,10 173.8,0 					"/>
					<polygon class="st0" points="16.8,0 0.2,41.3 13.2,41.3 29.8,0 					"/>
					<polygon class="st0" points="67.2,0 59.3,19.6 47.5,0 35.8,0 19.2,41.3 32.3,41.3 40.1,21.7 51.9,41.3 63.6,41.3 80.2,0 					
						"/>
					<path class="st0" d="M251.5,88.8h-44.4l-1.3,3.4h44.4L251.5,88.8z M247.3,66.7l-1.3,3.4h12.9l1.3-3.4H247.3z M256.7,75.6
						l1.3-3.4h-12.9l-1.4,3.4H256.7z M253.7,83.3h-44.4l-1.3,3.4h44.4L253.7,83.3z M224.6,77.7h-13.1l-1.3,3.4h44.4l1.3-3.4h-12.9
						l-0.7,1.7h-18.3L224.6,77.7z M226.8,72.2h-13.2l-1.3,3.4h13.1L226.8,72.2z M229,66.7h-13.2l-1.4,3.4h13.2L229,66.7z
						 M262.4,61.1H218l-1.3,3.4H261L262.4,61.1z M264.5,55.6h-44.3l-1.3,3.4h44.3L264.5,55.6z M265.4,53.5l1.1-2.8h-44.3l-1.1,2.8
						H265.4z"/>
					<path class="st0" d="M350.4,88.8H306l-1.3,3.4H349L350.4,88.8z M346.2,66.7l-1.4,3.4h12.9l1.3-3.4H346.2z M355.6,75.6l1.3-3.4
						H344l-1.4,3.4H355.6z M352.6,83.3h-44.4l-1.3,3.4h44.4L352.6,83.3z M323.5,77.7h-13.1l-1.4,3.4h44.4l1.3-3.4h-12.9l-0.7,1.7
						h-18.3L323.5,77.7z M325.7,72.2h-13.2l-1.3,3.4h13.1L325.7,72.2z M327.9,66.7h-13.2l-1.4,3.4h13.2L327.9,66.7z M361.3,61.1
						h-44.4l-1.3,3.4h44.4L361.3,61.1z M363.5,55.6h-44.4l-1.3,3.4h44.3L363.5,55.6z M364.3,53.5l1.1-2.8h-44.4l-1.1,2.8L364.3,53.5
						z"/>
					<path class="st0" d="M300.9,88.8h-44.4l-1.3,3.4h44.4L300.9,88.8z M296.8,66.7l-1.4,3.4h12.9l1.3-3.4H296.8z M306.1,75.6
						l1.3-3.4h-12.9l-1.4,3.4H306.1z M303.1,83.3h-44.4l-1.3,3.4h44.4L303.1,83.3z M274,77.7h-13.1l-1.4,3.4h44.4l1.3-3.4h-12.9
						l-0.7,1.7h-18.3L274,77.7z M276.2,72.2h-13.1l-1.3,3.4h13.1L276.2,72.2z M278.5,66.7h-13.2l-1.3,3.4h13.2L278.5,66.7z
						 M311.8,61.1h-44.3l-1.3,3.4h44.4L311.8,61.1z M314,55.6h-44.3l-1.3,3.4h44.3L314,55.6z M314.8,53.5l1.2-2.9h-44.4l-1.1,2.8
						L314.8,53.5z"/>
					<path class="st0" d="M202,88.8h-44.3l-1.4,3.4h44.4L202,88.8z M204.2,83.3h-44.3l-1.4,3.4h44.4L204.2,83.3z M175.1,77.7h-13
						l-1.4,3.4h13L175.1,77.7z M208.6,72.2h-44.3l-1.3,3.4h13v-0.1h31.3L208.6,72.2z M197,69h-31.4l-0.4,1h44.3l1.3-3.4h-12.9
						L197,69z M213,61.1h-44.3l-0.5,1.3h31.2l-0.8,2.1h13L213,61.1z M215.2,55.6h-44.3l-1.3,3.4h44.2L215.2,55.6z M216,53.5l1.1-2.8
						h-44.4l-1.1,2.8H216z"/>
					<g>
						<g>
							<path class="st1" d="M144.4,112.1h2.6c0,0-0.4-7.5-7.9-7.5c-5.7,0-7.3,4-7.3,11.9c0,8.2,2.5,11,7.6,11c6.3,0,7.8-7.2,7.8-7.2
								H145c0,0-1.6,3.8-4.3,3.8s-2.6-4.4-2.6-8.1s-0.1-7.9,2.8-7.9C143.4,108.2,144.4,112.2,144.4,112.1"/>
						</g>
					</g>
					<polygon class="st1" points="43,126.6 48.3,104.6 54,104.6 58.9,126.6 55.6,126.6 52.8,112.4 51.8,112.4 49.6,126.6 					"/>
					<polygon class="st1" points="49.4,119.7 56.2,119.7 56.2,123.1 49.1,123.1 					"/>
					<rect y="123.2" class="st1" width="13.3" height="3.4"/>
					<rect y="104.6" class="st1" width="5.9" height="22"/>
					<rect x="88.5" y="104.6" class="st1" width="13.3" height="3.4"/>
					<rect x="88.5" y="123.2" class="st1" width="13.3" height="3.4"/>
					<rect x="88.5" y="104.6" class="st1" width="5.9" height="22"/>
					<rect x="92.7" y="113.9" class="st1" width="5.9" height="3.4"/>
					<rect x="154.9" y="104.6" class="st1" width="13.3" height="3.4"/>
					<rect x="154.9" y="123.2" class="st1" width="13.3" height="3.4"/>
					<rect x="154.9" y="104.6" class="st1" width="5.9" height="22"/>
					<rect x="159.1" y="113.9" class="st1" width="5.9" height="3.4"/>
					<polygon class="st1" points="29.8,113.9 27.9,113.9 26.4,104.6 29.8,104.6 					"/>
					<g>
						<g>
							<path class="st1" d="M78,112.1h2.6c0,0,0.8-7.5-7.9-7.5c-5.7,0-7.3,4-7.3,11.9c0,8.2,2.5,11,7.6,11c7.8,0,7.8-8.5,7.8-8.5
								l-3-0.7c0,0,0.3,5.8-3.5,5.8c-2.6,0-2.6-4.4-2.6-8.1s-0.2-7.9,2.8-7.9S78,112.2,78,112.1"/>
						</g>
					</g>
					<rect x="74" y="115.6" class="st1" width="6.8" height="3.4"/>
					<rect x="110.7" y="104.6" class="st1" width="5.6" height="22"/>
					<rect x="120.6" y="104.6" class="st1" width="3.4" height="22"/>
					<polygon class="st1" points="116.3,104.6 122.2,126.6 119.7,126.6 113.6,104.6 					"/>
					<rect x="191.8" y="104.6" class="st1" width="6.1" height="22.9"/>
					<g>
						<g>
							<path class="st1" d="M196.9,124.6h3c4.1,0,4.2-6.3,4.2-8.6s-0.1-8-4.4-8h-3.3l1.5-3.3h2.5c4.8,0,7.1,5.5,7.1,11
								s-1.4,11.9-7.9,11.9H197L196.9,124.6z"/>
						</g>
					</g>
					<rect x="219.1" y="104.6" class="st1" width="6.1" height="16.5"/>
					<rect x="231.7" y="104.6" class="st1" width="3.5" height="16.5"/>
					<g>
						<g>
							<path class="st1" d="M225.2,117.2v4c0,1.9,0.9,3.8,3.1,3.8s3.4-1.2,3.4-3.8v-4.2l3.5,2v2.3c0,2.4-1.5,6.4-7.6,6.4
								s-8.5-2.9-8.5-6.4v-4.5L225.2,117.2z"/>
						</g>
					</g>
					<rect x="309.2" y="104.6" class="st1" width="5.9" height="22"/>
					<rect x="304.9" y="104.6" class="st1" width="14.5" height="3.3"/>
					<rect x="326.9" y="104.6" class="st1" width="5.9" height="15.8"/>
					<rect x="339" y="104.6" class="st1" width="3.4" height="15.8"/>
					<g>
						<g>
							<path class="st1" d="M332.7,116.7v3.8c0,1.8,0.8,3.6,3,3.6s3.3-1.2,3.3-3.6v-4.1l3.4,1.9v2.2c0,2.4-1.4,6.1-7.3,6.1
								s-8.2-2.8-8.2-6.1v-4.3L332.7,116.7z"/>
						</g>
					</g>
					<rect x="260.9" y="104.6" class="st1" width="13.3" height="3.4"/>
					<rect x="260.9" y="104.6" class="st1" width="5.9" height="22"/>
					<rect x="265.1" y="113.9" class="st1" width="5.9" height="3.4"/>
					<rect x="281.5" y="104.6" class="st1" width="5.9" height="15.8"/>
					<rect x="293.6" y="104.6" class="st1" width="3.4" height="15.8"/>
					<g>
						<g>
							<path class="st1" d="M287.3,116.7v3.8c0,1.8,0.8,3.6,3,3.6s3.3-1.2,3.3-3.6v-4.1l3.4,1.9v2.2c0,2.4-1.4,6.1-7.3,6.1
								s-8.2-2.8-8.2-6.1v-4.3L287.3,116.7z"/>
						</g>
					</g>
					<rect x="350.3" y="104.6" class="st1" width="5.9" height="22"/>
					<g>
						<g>
							<path class="st1" d="M355.2,114.5h4.2c1.6,0,2.6-1.1,2.6-3.3s-0.8-3.4-3.4-3.4h-3.9l1.5-3.1h4.1c2.4,0,5.1,2.6,5.1,6.2
								s-1.8,6.5-5.4,6.5h-4.8L355.2,114.5z"/>
						</g>
					</g>
					<polygon class="st1" points="361.1,116 364.6,126.6 361.4,126.6 357.7,116 					"/>
				</g>
			</g>
		</g>
	</g>
</g>
</svg>
