<svg width="313" height="24" viewBox="0 0 313 24" fill="none" xmlns="http://www.w3.org/2000/svg">
<path d="M190.039 16.4793C190.039 17.8065 189.707 19.1336 188.93 20.2396C188.154 21.3456 187.156 22.2304 185.715 22.894C184.274 23.5576 182.5 23.8894 180.393 23.8894C178.619 23.8894 176.956 23.6682 175.293 23.2258C173.63 22.7834 172.299 22.1198 171.301 21.3456L174.628 17.3641C175.293 17.6959 175.958 17.917 176.734 18.2488C178.065 18.6912 179.284 18.9124 180.504 18.9124C182.832 18.9124 184.052 18.2488 184.052 17.0323C184.052 16.3687 183.719 15.9263 183.054 15.5945C182.389 15.2627 181.28 14.9309 179.839 14.5991C178.176 14.2673 176.845 13.8249 175.736 13.3825C174.628 12.9401 173.741 12.2765 172.854 11.3917C172.078 10.5069 171.634 9.17973 171.634 7.63134C171.634 6.19356 171.967 4.97696 172.743 3.87097C173.519 2.76498 174.517 1.88019 175.958 1.2166C177.4 0.553002 179.174 0.221212 181.28 0.221212C182.722 0.221212 184.163 0.44241 185.493 0.774207C186.935 1.106 188.154 1.65899 189.152 2.21198L185.715 6.30416C184.163 5.64056 182.611 5.30876 181.169 5.30876C179.95 5.30876 179.063 5.52995 178.508 5.86175C177.954 6.19355 177.621 6.74655 177.621 7.29954C177.621 7.96314 177.954 8.40553 178.619 8.62673C179.284 8.95852 180.393 9.29033 181.835 9.62213C183.498 9.95393 184.828 10.3963 185.937 10.8387C187.046 11.2811 187.933 11.9447 188.82 12.8295C189.596 13.6037 190.039 14.9309 190.039 16.4793ZM312.667 16.4793C312.667 17.8065 312.334 19.1336 311.558 20.2396C310.782 21.3456 309.784 22.2304 308.343 22.894C306.901 23.5576 305.127 23.8894 303.021 23.8894C301.247 23.8894 299.583 23.6682 297.92 23.2258C296.257 22.7834 294.927 22.1198 293.929 21.3456L297.255 17.3641C297.92 17.6959 298.586 17.917 299.362 18.2488C300.692 18.6912 301.912 18.9124 303.131 18.9124C305.46 18.9124 306.679 18.2488 306.679 17.0323C306.679 16.3687 306.347 15.9263 305.682 15.5945C305.016 15.2627 303.908 14.9309 302.466 14.5991C300.803 14.2673 299.473 13.8249 298.364 13.3825C297.255 12.9401 296.368 12.2765 295.481 11.3917C294.705 10.5069 294.261 9.17973 294.261 7.63134C294.261 6.19356 294.594 4.97696 295.37 3.87097C296.146 2.76498 297.144 1.88019 298.586 1.2166C300.027 0.553002 301.801 0.221212 303.908 0.221212C305.349 0.221212 306.79 0.44241 308.121 0.774207C309.562 1.106 310.782 1.65899 311.78 2.21198L308.343 6.30416C306.79 5.64056 305.238 5.30876 303.797 5.30876C302.577 5.30876 301.69 5.52995 301.136 5.86175C300.581 6.19355 300.249 6.74655 300.249 7.29954C300.249 7.96314 300.581 8.40553 301.247 8.62673C301.912 8.95852 303.021 9.29033 304.462 9.62213C306.125 9.95393 307.456 10.3963 308.564 10.8387C309.673 11.2811 310.56 11.9447 311.447 12.8295C312.334 13.6037 312.667 14.9309 312.667 16.4793ZM41.1345 8.95853C41.1345 10.7281 40.691 12.1659 39.9149 13.3825C39.1388 14.5991 38.03 15.5945 36.5886 16.2581C35.1473 16.9217 33.3733 17.2535 31.4884 17.2535H27.7187V23.2258H21.5097V0.3318H31.4884C33.4842 0.3318 35.1473 0.663608 36.5886 1.3272C38.03 1.9908 39.1388 2.98618 39.9149 4.31337C40.8019 5.75116 41.1345 7.29954 41.1345 8.95853ZM34.9255 8.95853C34.9255 7.85254 34.5929 7.07835 33.9276 6.52535C33.2624 5.97236 32.3754 5.64056 31.0449 5.64056H27.6078V12.3871H31.0449C32.2645 12.3871 33.2624 12.0553 33.9276 11.5023C34.5929 10.9493 34.9255 10.0645 34.9255 8.95853ZM61.0919 18.47V23.447H43.6846V0.552995H60.6485V5.52995H49.7827V9.40092H58.431V14.2673H49.7827V18.47H61.0919ZM84.5974 0.552995V23.447H79.4972L69.8511 11.2811V23.447H63.753V0.552995H68.8532L78.4993 12.7189V0.552995H84.5974ZM123.958 18.2488V23.3364H108.546V0.442406H114.755V18.1382H123.958V18.2488ZM150.568 23.447H144.137L142.474 19.023H133.271L131.608 23.447H125.288L134.934 0.552995H141.033L150.568 23.447ZM140.7 14.1567L137.928 6.85715L135.156 14.1567H140.7ZM169.971 16.4793C169.971 17.8065 169.638 19.1336 168.862 20.2396C168.086 21.3456 167.088 22.2304 165.647 22.894C164.205 23.5576 162.431 23.8894 160.325 23.8894C158.551 23.8894 156.888 23.6682 155.225 23.2258C153.561 22.7834 152.231 22.1198 151.233 21.3456L154.559 17.3641C155.225 17.6959 155.89 17.917 156.666 18.2488C157.996 18.6912 159.216 18.9124 160.436 18.9124C162.764 18.9124 163.984 18.2488 163.984 17.0323C163.984 16.3687 163.651 15.9263 162.986 15.5945C162.321 15.2627 161.212 14.9309 159.77 14.5991C158.107 14.2673 156.777 13.8249 155.668 13.3825C154.559 12.9401 153.672 12.2765 152.785 11.3917C152.009 10.5069 151.566 9.17973 151.566 7.63134C151.566 6.19356 151.898 4.97696 152.674 3.87097C153.451 2.76498 154.448 1.88019 155.89 1.2166C157.331 0.553002 159.105 0.221212 161.212 0.221212C162.653 0.221212 164.095 0.44241 165.425 0.774207C166.866 1.106 167.975 1.65899 169.084 2.21198L165.647 6.30416C164.095 5.64056 162.542 5.30876 161.101 5.30876C159.881 5.30876 158.994 5.52995 158.44 5.86175C157.886 6.19355 157.553 6.74655 157.553 7.29954C157.553 7.96314 157.886 8.40553 158.551 8.62673C159.216 8.95852 160.325 9.29033 161.766 9.62213C163.429 9.95393 164.76 10.3963 165.869 10.8387C166.977 11.2811 167.864 11.9447 168.751 12.8295C169.527 13.6037 169.971 14.9309 169.971 16.4793ZM18.9596 11.9447C18.9596 18.47 13.6376 23.8894 6.98509 23.8894C4.3241 23.8894 1.99574 23.0046 0 21.5668L3.99148 16.8111C4.87848 17.3641 5.87635 17.6958 6.98509 17.6958C10.0896 17.6958 12.6397 15.1521 12.6397 12.0553C12.6397 8.95853 10.0896 6.41475 6.98509 6.41475C5.87635 6.41475 4.87848 6.74655 3.99148 7.29954L0 2.54378C1.99574 1.10599 4.43497 0.221212 6.98509 0.221212C13.6376 0.110613 18.9596 5.41935 18.9596 11.9447ZM102.116 16.8111L106.107 21.5668C104.111 23.0046 101.672 23.8894 99.122 23.8894C92.5804 23.8894 87.1475 18.5806 87.1475 11.9447C87.1475 5.41935 92.4695 0 99.122 0C101.783 0 104.111 0.884799 106.107 2.32259L102.116 7.07835C101.229 6.52535 100.231 6.19355 99.122 6.19355C96.0175 6.19355 93.4674 8.73734 93.4674 11.8341C93.4674 14.9309 96.0175 17.4746 99.122 17.4746C100.231 17.6958 101.229 17.3641 102.116 16.8111ZM212.658 23.447L207.779 16.3687C209.221 15.7051 210.218 14.7097 210.995 13.4931C211.771 12.2765 212.214 10.7281 212.214 9.06913C212.214 7.29955 211.771 5.86175 210.995 4.53457C210.218 3.20738 209.11 2.32259 207.668 1.5484C206.227 0.884802 204.453 0.552995 202.568 0.552995H192.589V23.447H198.687V17.4746H201.57L205.673 23.447H212.658ZM198.687 5.64056H202.235C203.455 5.64056 204.453 5.97236 205.118 6.52535C205.783 7.07835 206.116 7.96314 206.116 8.95853C206.116 10.0645 205.783 10.8387 205.118 11.3917C204.453 11.9447 203.566 12.2765 202.235 12.2765H198.687V5.64056ZM226.517 0.110606C233.059 0.110606 238.491 5.41936 238.491 12.0553C238.491 18.6912 233.169 24 226.517 24C219.975 24 214.543 18.6912 214.543 12.0553C214.543 5.41936 219.865 0.110606 226.517 0.110606ZM220.419 11.9447C220.419 15.2627 223.08 17.9171 226.406 17.9171C229.732 17.9171 232.393 15.2627 232.393 11.9447C232.393 8.62673 229.732 5.97236 226.406 5.97236C223.191 5.97236 220.419 8.62673 220.419 11.9447ZM252.24 0.110606C258.782 0.110606 264.214 5.41936 264.214 12.0553C264.214 18.6912 258.892 24 252.24 24C245.698 24 240.265 18.6912 240.265 12.0553C240.265 5.41936 245.698 0.110606 252.24 0.110606ZM246.253 11.9447C246.253 15.2627 248.914 17.9171 252.24 17.9171C255.566 17.9171 258.227 15.2627 258.227 11.9447C258.227 8.62673 255.566 5.97236 252.24 5.97236C248.914 5.97236 246.253 8.62673 246.253 11.9447ZM279.182 15.1521L271.865 0.552995H266.765V23.447H272.197V13.3825L277.63 23.447H280.846L286.278 13.3825V23.447H291.711V0.552995H286.611L279.182 15.1521Z" fill="#7451EB"/>
</svg>
