<svg xmlns="http://www.w3.org/2000/svg" xmlns:xlink="http://www.w3.org/1999/xlink" viewBox="0 0 100.5 70.36"><defs><style>.cls-1{fill:#fff;}.cls-1,.cls-3,.cls-4{fill-rule:evenodd;}.cls-2{mask:url(#mask);}.cls-3{fill:#00a1e0;}.cls-4{fill:#fffffe;}</style><mask id="mask" x="0" y="-0.02" width="100.56" height="70.38" maskUnits="userSpaceOnUse"><g id="b"><path id="a" class="cls-1" d="M.11,0H100.56V70.15H.11Z"/></g></mask></defs><g id="Calque_2" data-name="Calque 2"><g id="Calque_1-2" data-name="Calque 1"><g class="cls-2"><path class="cls-3" d="M41.82,7.66a17.65,17.65,0,0,1,28.25,3.73,21.49,21.49,0,0,1,8.75-1.86,21.86,21.86,0,1,1-4.28,43.3,15.84,15.84,0,0,1-20.75,6.53,18.06,18.06,0,0,1-33.57-.81,16.69,16.69,0,0,1-3.45.35A16.86,16.86,0,0,1,0,42a17.07,17.07,0,0,1,8.38-14.7,19.28,19.28,0,0,1-1.6-7.75,19.52,19.52,0,0,1,35-11.82"/></g><path class="cls-4" d="M14.64,36.47c-.06.16,0,.2,0,.23.19.13.38.23.57.34a6.09,6.09,0,0,0,3,.7c2.06,0,3.34-1.09,3.34-2.86v0c0-1.63-1.44-2.23-2.8-2.65l-.17-.06c-1-.33-1.91-.62-1.91-1.29v0c0-.57.52-1,1.32-1a6,6,0,0,1,2.61.67s.2.13.28-.06l.42-1.13a.2.2,0,0,0-.1-.24,5.89,5.89,0,0,0-3-.79h-.2c-1.89,0-3.21,1.14-3.21,2.77v0c0,1.72,1.46,2.28,2.82,2.67l.22.07c1,.3,1.84.57,1.84,1.26v0c0,.63-.56,1.11-1.45,1.11a5,5,0,0,1-2.66-.76l-.33-.22a.17.17,0,0,0-.28.1l-.4,1.13m30.17,0c-.06.16,0,.19,0,.22a5,5,0,0,0,.58.35,6.13,6.13,0,0,0,3,.7c2.06,0,3.34-1.09,3.34-2.86v0c0-1.64-1.44-2.23-2.79-2.66l-.18,0c-1-.34-1.91-.62-1.91-1.3v0c0-.58.52-1,1.32-1a5.91,5.91,0,0,1,2.62.67s.2.13.27-.07l.42-1.13a.19.19,0,0,0-.1-.23,5.89,5.89,0,0,0-3-.79h-.2c-1.89,0-3.21,1.14-3.21,2.77v0c0,1.72,1.46,2.28,2.81,2.67l.22.06c1,.31,1.85.57,1.85,1.27v0c0,.64-.56,1.12-1.45,1.12a4.88,4.88,0,0,1-2.66-.77l-.34-.21a.18.18,0,0,0-.27.09l-.4,1.13M65.41,33a4.24,4.24,0,0,1-.55,2.34,2.11,2.11,0,0,1-3.34,0A4.28,4.28,0,0,1,61,33a4.25,4.25,0,0,1,.55-2.33,1.82,1.82,0,0,1,1.67-.81,1.86,1.86,0,0,1,1.67.81A4.16,4.16,0,0,1,65.41,33m1.72-1.85a4.2,4.2,0,0,0-.78-1.5,3.67,3.67,0,0,0-1.32-1,4.3,4.3,0,0,0-1.85-.37,4.23,4.23,0,0,0-1.84.37,3.71,3.71,0,0,0-1.33,1,4.2,4.2,0,0,0-.78,1.5,7,7,0,0,0,0,3.7,4.29,4.29,0,0,0,.78,1.5,3.77,3.77,0,0,0,1.33,1,4.38,4.38,0,0,0,1.84.36A4.46,4.46,0,0,0,65,37.35a3.73,3.73,0,0,0,1.32-1,4.29,4.29,0,0,0,.78-1.5,7,7,0,0,0,0-3.7m14.14,4.73a.16.16,0,0,0-.21-.11,3.45,3.45,0,0,1-.81.23,5.45,5.45,0,0,1-.94.07,2.64,2.64,0,0,1-2-.74A3.32,3.32,0,0,1,76.6,33a3.65,3.65,0,0,1,.67-2.27,2.25,2.25,0,0,1,1.91-.84,5.76,5.76,0,0,1,1.82.26s.13.06.2-.12c.15-.42.26-.72.42-1.18,0-.13-.07-.18-.11-.2a7.32,7.32,0,0,0-1.15-.29,9.68,9.68,0,0,0-1.29-.08,4.83,4.83,0,0,0-1.92.36,4,4,0,0,0-1.38,1,4.27,4.27,0,0,0-.84,1.49A6.19,6.19,0,0,0,74.65,33a5,5,0,0,0,1.15,3.43,4.33,4.33,0,0,0,3.39,1.27,6.91,6.91,0,0,0,2.44-.43.17.17,0,0,0,.07-.21l-.42-1.16m3-3.84a3.31,3.31,0,0,1,.47-1.38,1.86,1.86,0,0,1,1.66-.84,1.83,1.83,0,0,1,1.64.84,2.87,2.87,0,0,1,.38,1.38H84.29Zm5.79-1.22a3.73,3.73,0,0,0-.74-1.37,3.5,3.5,0,0,0-1.11-.84,4.37,4.37,0,0,0-1.67-.34,4.53,4.53,0,0,0-1.92.38,3.71,3.71,0,0,0-1.34,1,4.11,4.11,0,0,0-.79,1.51,6.58,6.58,0,0,0-.26,1.86,6.43,6.43,0,0,0,.26,1.86,3.88,3.88,0,0,0,.85,1.48,3.71,3.71,0,0,0,1.47,1,5.79,5.79,0,0,0,2.11.35,5.94,5.94,0,0,0,2.93-.59c.07,0,.13-.1,0-.28l-.38-1.06a.17.17,0,0,0-.22-.1,5.68,5.68,0,0,1-2.39.43,2.39,2.39,0,0,1-2.67-2.63H90.1a.17.17,0,0,0,.17-.15,6.31,6.31,0,0,0-.18-2.51ZM37.64,32.05a3.45,3.45,0,0,1,.48-1.38,1.85,1.85,0,0,1,1.66-.84,1.8,1.8,0,0,1,1.63.84,2.87,2.87,0,0,1,.39,1.38H37.64Zm5.8-1.22a3.73,3.73,0,0,0-.75-1.37,3.47,3.47,0,0,0-1.1-.84,4.37,4.37,0,0,0-1.67-.34,4.61,4.61,0,0,0-1.93.38,3.89,3.89,0,0,0-1.34,1,4.27,4.27,0,0,0-.79,1.51,6.58,6.58,0,0,0-.25,1.86,6.43,6.43,0,0,0,.26,1.86,3.86,3.86,0,0,0,.84,1.48,3.78,3.78,0,0,0,1.47,1,5.85,5.85,0,0,0,2.12.35,6,6,0,0,0,2.93-.59c.06,0,.12-.1.05-.28l-.38-1.06a.17.17,0,0,0-.22-.1,5.78,5.78,0,0,1-2.4.43,2.74,2.74,0,0,1-2-.69,2.77,2.77,0,0,1-.68-1.94h5.84a.17.17,0,0,0,.17-.15,6.11,6.11,0,0,0-.18-2.51Zm-18.39,5a1.16,1.16,0,0,1-.34-.35,1.41,1.41,0,0,1-.17-.75,1.29,1.29,0,0,1,.52-1.13,2.58,2.58,0,0,1,1.69-.42,11.88,11.88,0,0,1,1.58.13V36h0a11.71,11.71,0,0,1-1.57.21,2.63,2.63,0,0,1-1.71-.34Zm2.32-4.1c-.24,0-.54,0-.91,0a5.55,5.55,0,0,0-1.43.19,3.69,3.69,0,0,0-1.22.56,2.77,2.77,0,0,0-.84,1,2.81,2.81,0,0,0-.32,1.35,3,3,0,0,0,.27,1.33,2.58,2.58,0,0,0,.76.91,3.3,3.3,0,0,0,1.19.51,6.62,6.62,0,0,0,1.54.16,10.4,10.4,0,0,0,1.77-.15c.49-.08,1-.18,1.47-.28l.41-.11c.14,0,.13-.19.13-.19V31.65a3.26,3.26,0,0,0-.93-2.57,3.93,3.93,0,0,0-2.67-.81,10.18,10.18,0,0,0-1.57.14,5.6,5.6,0,0,0-1.79.66.17.17,0,0,0-.05.23l.41,1.11a.15.15,0,0,0,.19.1l.1-.05a5.87,5.87,0,0,1,2.53-.59,2.34,2.34,0,0,1,1.44.37c.32.25.48.62.48,1.39v.25l-1-.12Zm46.9-3a.15.15,0,0,0-.08-.21h0a5.33,5.33,0,0,0-1-.17,3,3,0,0,0-1.51.24,2.68,2.68,0,0,0-1,.73v-.71a.16.16,0,0,0-.17-.17H69.06a.16.16,0,0,0-.16.17v8.68a.17.17,0,0,0,.17.18H70.6a.18.18,0,0,0,.18-.18V33A5.1,5.1,0,0,1,71,31.42a2.19,2.19,0,0,1,.51-.85,1.71,1.71,0,0,1,.72-.43A2.3,2.3,0,0,1,73,30a3.58,3.58,0,0,1,.64.07.18.18,0,0,0,.21-.15c.1-.27.39-1.07.44-1.23"/><path class="cls-4" d="M60,24.74a3.75,3.75,0,0,0-.58-.13,4.15,4.15,0,0,0-.79-.07,3.31,3.31,0,0,0-2.46.89A4.81,4.81,0,0,0,55,28.07l-.07.4H53.59a.19.19,0,0,0-.19.17l-.22,1.21c0,.11,0,.19.19.18h1.29l-1.31,7.3A8.79,8.79,0,0,1,53,38.76a2.91,2.91,0,0,1-.41.83,1,1,0,0,1-.53.41,2.07,2.07,0,0,1-.68.1,2.42,2.42,0,0,1-.47-.05,2,2,0,0,1-.32-.1.16.16,0,0,0-.21.09c0,.13-.39,1.07-.43,1.19a.18.18,0,0,0,.09.23,3.88,3.88,0,0,0,.53.15,3.4,3.4,0,0,0,.86.08,4.21,4.21,0,0,0,1.43-.22,2.59,2.59,0,0,0,1.07-.75,3.78,3.78,0,0,0,.76-1.3,11.49,11.49,0,0,0,.51-2L56.52,30h1.91a.19.19,0,0,0,.2-.16l.22-1.22c0-.11,0-.18-.19-.18H56.79a8.48,8.48,0,0,1,.31-1.32,1.68,1.68,0,0,1,.41-.62,1.18,1.18,0,0,1,.49-.3,1.64,1.64,0,0,1,.62-.09,2.21,2.21,0,0,1,.48.05,1.44,1.44,0,0,1,.3.07c.19.06.21,0,.25-.09L60.1,25a.17.17,0,0,0-.11-.21M34,37.34a.17.17,0,0,1-.16.18H32.25a.16.16,0,0,1-.16-.18V24.91a.16.16,0,0,1,.16-.18H33.8a.17.17,0,0,1,.16.18V37.34"/></g></g></svg>