<svg xmlns="http://www.w3.org/2000/svg" viewBox="0 0 204.74 199.19"><defs><style>.cls-1{fill:#fff;}</style></defs><g id="Calque_2" data-name="Calque 2"><g id="Calque_1-2" data-name="Calque 1"><path class="cls-1" d="M170.69,112.12h13.15a7.12,7.12,0,0,1,0,14.23H168.11a6.9,6.9,0,1,0,0,13.79h8.83a7.12,7.12,0,0,1,0,14.23H163.15a6.9,6.9,0,1,0,0,13.79h6.9a7.11,7.11,0,0,1,0,14.22H122c-18.31,0-35.13-2.58-53.66-7.75V87.34A66.82,66.82,0,0,0,79.1,80.23c15.73-12.5,27.58-31,33-52.16l2.59-10.13a4.77,4.77,0,0,1,2.8-3.45,5.37,5.37,0,0,1,4.52,0c8.84,4.1,13.15,10.13,13.15,18.75,0,20.91-12.07,40.31-12.28,40.52a7.28,7.28,0,0,0,0,6.68,7.06,7.06,0,0,0,6,3.67h55a7.11,7.11,0,0,1,0,14.22H170.69a6.9,6.9,0,0,0,0,13.79ZM54.53,180.66a5.24,5.24,0,0,1-5.18,5.17H19a5.24,5.24,0,0,1-5.18-5.17V82.6A5.24,5.24,0,0,1,19,77.43H49.35a5.24,5.24,0,0,1,5.18,5.17ZM204.74,91.22a20.92,20.92,0,0,0-20.9-20.91H140.3c4.1-8.83,8.84-22.63,8.84-37.28,0-13.79-7.54-24.79-21.12-31.25a19.76,19.76,0,0,0-16.38,0,19.39,19.39,0,0,0-10.35,12.5L98.71,24.41C94,42.73,84.05,58.68,70.69,69.24c-1.72,1.29-3.23,2.37-5,3.44A18.84,18.84,0,0,0,49.35,63.2H19a18.86,18.86,0,0,0-19,19v98.06a19,19,0,0,0,19,19H49.35A18.89,18.89,0,0,0,66.6,188c19,5.17,36.42,8,55.38,8h47.85a20.92,20.92,0,0,0,20.91-20.9,20.57,20.57,0,0,0-2.81-10.35,21,21,0,0,0,9.7-17.67,20.67,20.67,0,0,0-2.8-10.35,21,21,0,0,0,9.7-17.67,21.35,21.35,0,0,0-5.39-14A19.53,19.53,0,0,0,204.74,91.22Z"/><circle class="cls-1" cx="34.27" cy="166.87" r="9.05" transform="translate(-136.01 161.88) rotate(-76.72)"/></g></g></svg>