<svg xmlns="http://www.w3.org/2000/svg" xmlns:xlink="http://www.w3.org/1999/xlink" viewBox="0 0 470.46 110.22"><defs><style>.cls-1{fill:none;}.cls-2{clip-path:url(#clip-path);}.cls-3{fill:#303880;}.cls-4{fill:#af1d1f;}</style><clipPath id="clip-path" transform="translate(0 0)"><rect class="cls-1" width="470.46" height="110.22"/></clipPath></defs><g id="Calque_2" data-name="Calque 2"><g id="Calque_1-2" data-name="Calque 1"><g id="Illustration_12" data-name="Illustration 12"><g class="cls-2"><polygon class="cls-3" points="194.76 0 190.05 11.67 202.1 11.67 192.45 35.77 206.76 35.77 216.41 11.67 228.46 11.67 233.12 0 194.76 0"/><polygon class="cls-3" points="399.18 0 394.47 11.67 406.52 11.67 396.87 35.77 411.18 35.77 420.83 11.67 432.88 11.67 437.54 0 399.18 0"/><polygon class="cls-3" points="361.15 0 346.79 35.77 380.4 35.77 383.83 27.11 361.48 27.11 364.11 20.71 379.18 20.71 381.43 15.06 366.51 15.06 368.82 8.66 391.23 8.66 394.71 0 361.15 0"/><polygon class="cls-3" points="345.47 0 338.65 16.99 328.48 0 318.36 0 304.01 35.77 315.3 35.77 322.08 18.78 332.25 35.77 342.41 35.77 356.72 0 345.47 0"/><path class="cls-3" d="M283.25,8.66h15.81l-2.35,6.4H280.94ZM275.58,0,261.22,35.77h11.3l3.62-9h11l2.92,4.9-1.7,4.14h11.3l4.19-10.54-2.17-3.58,5-3.58,5.6-13.93L309.8,0Z" transform="translate(0 0)"/><polygon class="cls-3" points="237.54 0 223.19 35.77 256.8 35.77 260.23 27.11 237.87 27.11 240.51 20.71 255.57 20.71 257.83 15.06 242.91 15.06 245.22 8.66 267.62 8.66 271.11 0 237.54 0"/><polygon class="cls-3" points="135.18 0 120.82 35.77 132.12 35.77 146.43 0 135.18 0"/><polygon class="cls-3" points="178.8 0 171.98 16.99 161.81 0 151.69 0 137.34 35.77 148.63 35.77 155.41 18.78 165.58 35.77 175.74 35.77 190.05 0 178.8 0"/><path class="cls-3" d="M338.28,76.83H299.87l-1.16,2.94h38.41Zm-3.61-19.15-1.16,2.94h11.16l1.15-2.94Zm8.11,7.72,1.16-2.93H332.77L331.6,65.4Zm-2.62,6.65h-38.4L300.6,75H339ZM315,67.26H303.66l-1.16,2.93h38.39l1.16-2.93H330.87l-.6,1.48H314.41Zm1.92-4.79H305.55l-1.16,2.93h11.36Zm1.92-4.79H307.44l-1.16,2.94h11.4Zm28.86-4.79H309.34l-1.16,2.94h38.37Zm1.89-4.79H311.23L310.07,51h38.37Zm.73-1.85,1-2.47H312.94l-1,2.47Z" transform="translate(0 0)"/><path class="cls-3" d="M423.85,76.83H385.44l-1.16,2.94h38.41Zm-3.6-19.15-1.17,2.94h11.16l1.15-2.94Zm8.1,7.72,1.16-2.93H418.34l-1.17,2.93Zm-2.62,6.65H387.34L386.17,75h38.41Zm-25.15-4.79H389.23l-1.16,2.93h38.39l1.16-2.93H416.44l-.6,1.48H400Zm1.92-4.79H391.12L390,65.4h11.36Zm1.92-4.79H393l-1.16,2.94h11.4Zm28.86-4.79H394.91l-1.16,2.94h38.37Zm1.89-4.79H396.8L395.64,51H434Zm.73-1.85,1-2.47H398.51l-1,2.47Z" transform="translate(0 0)"/><path class="cls-3" d="M381.06,76.83h-38.4l-1.16,2.94h38.4Zm-3.6-19.15-1.17,2.94h11.16l1.16-2.94Zm8.1,7.72,1.16-2.93H375.56l-1.17,2.93ZM383,72.05h-38.4L343.39,75h38.4Zm-25.16-4.79H346.44l-1.16,2.93h38.4l1.15-2.93H373.65l-.59,1.48H357.2Zm1.93-4.79H348.34l-1.16,2.93h11.36Zm1.92-4.79H350.23l-1.16,2.94h11.39Zm28.86-4.79H352.12L351,55.83h38.38Zm1.88-4.79H354L352.85,51h38.38Zm.73-1.85,1-2.47H355.72l-1,2.47Z" transform="translate(0 0)"/><path class="cls-3" d="M295.5,76.83H257.11l-1.18,2.94h38.4Zm1.9-4.78H259L257.86,75h38.37Zm-25.19-4.79H261l-1.18,2.93H271Zm29-4.79H262.89l-1.18,2.93H273l0-.05H300.1Zm-10.07-2.76H264l-.37.91H302l1.15-2.94H291.9ZM305,52.89H266.69L266.25,54h27l-.65,1.79h11.25Zm1.87-4.79H268.51L267.39,51h38.3Zm.72-1.85,1-2.47H270.15l-.94,2.47Z" transform="translate(0 0)"/><g class="cls-2"><path class="cls-4" d="M245.58,96.84h2.26s-.38-6.46-6.85-6.46c-4.94,0-6.33,3.42-6.33,10.26,0,7.1,2.15,9.51,6.59,9.51,5.45,0,6.78-6.21,6.78-6.21h-1.94s-1.42,3.3-3.7,3.3-2.28-3.81-2.28-7-.13-6.84,2.41-6.84c2.22,0,3.06,3.42,3.06,3.42" transform="translate(0 0)"/></g><polygon class="cls-4" points="162.48 90.38 157.86 109.34 163.59 109.34 165.52 97.12 166.33 97.12 168.82 109.39 171.61 109.34 167.4 90.38 162.48 90.38"/><polygon class="cls-4" points="163.44 103.41 169.28 103.41 169.28 106.35 163.19 106.35 163.44 103.41"/><rect class="cls-4" x="120.68" y="106.44" width="11.51" height="2.94"/><rect class="cls-4" x="120.68" y="90.37" width="5.07" height="19.01"/><rect class="cls-4" x="197.28" y="90.37" width="11.51" height="2.94"/><rect class="cls-4" x="197.28" y="106.44" width="11.51" height="2.94"/><rect class="cls-4" x="197.28" y="90.37" width="5.07" height="19.01"/><rect class="cls-4" x="200.88" y="98.41" width="5.07" height="2.94"/><rect class="cls-4" x="254.74" y="90.37" width="11.51" height="2.94"/><rect class="cls-4" x="254.74" y="106.44" width="11.51" height="2.94"/><rect class="cls-4" x="254.74" y="90.37" width="5.07" height="19.01"/><rect class="cls-4" x="258.34" y="98.41" width="5.07" height="2.94"/><polygon class="cls-4" points="146.5 98.39 144.77 98.39 143.56 90.38 146.5 90.38 146.5 98.39"/><g class="cls-2"><path class="cls-4" d="M188.13,96.84h2.26s.7-6.46-6.85-6.46c-4.95,0-6.34,3.42-6.34,10.26,0,7.1,2.16,9.51,6.6,9.51,6.78,0,6.78-7.33,6.78-7.33l-2.63-.57s.24,5-3,5c-2.28,0-2.28-3.81-2.28-7s-.13-6.84,2.41-6.84,3.07,3.42,3.07,3.42" transform="translate(0 0)"/></g><rect class="cls-4" x="184.69" y="99.88" width="5.89" height="2.94"/><rect class="cls-4" x="216.43" y="90.37" width="4.88" height="19.01"/><rect class="cls-4" x="225.03" y="90.37" width="2.92" height="19.01"/><polygon class="cls-4" points="218.97 90.38 224.22 109.39 226.42 109.34 221.31 90.38 218.97 90.38"/><rect class="cls-4" x="286.67" y="90.38" width="5.28" height="19.78"/><g class="cls-2"><path class="cls-4" d="M291.07,107.61h2.56c3.59,0,3.62-5.44,3.62-7.46s-.11-7-3.78-7h-2.84l1.31-2.83h2.18c4.16,0,6.16,4.73,6.16,9.48s-1.19,10.3-6.81,10.3h-2.29Z" transform="translate(0 0)"/></g><rect class="cls-4" x="310.25" y="90.38" width="5.28" height="14.26"/><rect class="cls-4" x="321.17" y="90.38" width="3.04" height="14.26"/><g class="cls-2"><path class="cls-4" d="M315.53,101.21v3.42c0,1.63.73,3.26,2.69,3.26s2.95-1.06,2.95-3.26V101l3,1.71v1.95c0,2.12-1.26,5.52-6.6,5.52s-7.36-2.54-7.36-5.52v-3.87Z" transform="translate(0 0)"/></g><rect class="cls-4" x="388.22" y="90.37" width="5.07" height="19.01"/><rect class="cls-4" x="384.49" y="90.38" width="12.53" height="2.9"/><rect class="cls-4" x="403.52" y="90.37" width="5.07" height="13.7"/><rect class="cls-4" x="414.02" y="90.37" width="2.92" height="13.7"/><g class="cls-2"><path class="cls-4" d="M408.59,100.79v3.29c0,1.57.71,3.13,2.59,3.13s2.84-1,2.84-3.13v-3.52l2.91,1.64v1.88c0,2-1.21,5.3-6.34,5.3s-7.07-2.44-7.07-5.3v-3.72Z" transform="translate(0 0)"/></g><rect class="cls-4" x="346.44" y="90.37" width="11.51" height="2.94"/><rect class="cls-4" x="346.44" y="90.37" width="5.07" height="19.01"/><rect class="cls-4" x="350.04" y="98.41" width="5.07" height="2.94"/><rect class="cls-4" x="364.23" y="90.37" width="5.07" height="13.7"/><rect class="cls-4" x="374.72" y="90.37" width="2.92" height="13.7"/><g class="cls-2"><path class="cls-4" d="M369.3,100.79v3.29c0,1.57.7,3.13,2.58,3.13s2.84-1,2.84-3.13v-3.52l2.92,1.64v1.88c0,2-1.21,5.3-6.34,5.3s-7.07-2.44-7.07-5.3v-3.72Z" transform="translate(0 0)"/></g><rect class="cls-4" x="423.78" y="90.37" width="5.07" height="19.01"/><g class="cls-2"><path class="cls-4" d="M428,98.93h3.66c1.43,0,2.27-.94,2.27-2.88s-.68-3-3-3h-3.4l1.26-2.71h3.59c2.1,0,4.43,2.21,4.43,5.38s-1.59,5.62-4.64,5.62h-4.11Z" transform="translate(0 0)"/></g><polygon class="cls-4" points="430.23 100.22 433.41 109.38 436.2 109.34 433.16 100.22 430.23 100.22"/><g class="cls-2"><path class="cls-3" d="M90.37,35.36a6.89,6.89,0,0,0,5-1.82,6.52,6.52,0,0,0,1.89-4.91,6.33,6.33,0,0,0-.61-2.9,7.61,7.61,0,0,0-1.72-2.21c-.73-.67-1.83-1.54-3.28-2.61A15.59,15.59,0,0,1,89,18.66a2.83,2.83,0,0,1-.67-1.86,2.54,2.54,0,0,1,.53-1.7,1.72,1.72,0,0,1,1.37-.61,1.75,1.75,0,0,1,1.42.65,2.61,2.61,0,0,1,.54,1.73v.95a.38.38,0,0,0,.13.3.4.4,0,0,0,.29.12h4a.42.42,0,0,0,.3-.12.41.41,0,0,0,.12-.3V17a6.58,6.58,0,0,0-1.88-4.88A7.59,7.59,0,0,0,85.32,12a6.33,6.33,0,0,0-1.86,4.77,6.89,6.89,0,0,0,.77,3.34,8.75,8.75,0,0,0,1.86,2.42,33.38,33.38,0,0,0,2.84,2.24A21,21,0,0,1,91.67,27a2.58,2.58,0,0,1,.7,1.81,2.44,2.44,0,0,1-.56,1.65,1.83,1.83,0,0,1-1.41.63,1.74,1.74,0,0,1-1.4-.67,2.64,2.64,0,0,1-.56-1.75v-.78a.4.4,0,0,0-.12-.29.39.39,0,0,0-.3-.13H84a.45.45,0,0,0-.42.42v1a6.59,6.59,0,0,0,.84,3.35,5.79,5.79,0,0,0,2.39,2.26,7.59,7.59,0,0,0,3.58.81M74.3,35.08h4.11A.4.4,0,0,0,78.7,35a.38.38,0,0,0,.13-.3V10.94a.37.37,0,0,0-.13-.29.41.41,0,0,0-.29-.13H74.3a.42.42,0,0,0-.3.13.4.4,0,0,0-.12.29V34.66a.41.41,0,0,0,.42.42m-21.5-4a1.92,1.92,0,0,1-1.56-.69,2.67,2.67,0,0,1-.58-1.8V17a2.7,2.7,0,0,1,.58-1.81,1.94,1.94,0,0,1,1.56-.68,2,2,0,0,1,1.58.68A2.7,2.7,0,0,1,55,17V28.63a2.67,2.67,0,0,1-.59,1.8,2,2,0,0,1-1.58.69m0,4.24A7.11,7.11,0,0,0,58,33.47a6.73,6.73,0,0,0,2-5V17.19a6.7,6.7,0,0,0-2-5.05,7.07,7.07,0,0,0-5.17-1.9,7,7,0,0,0-5.16,1.9,6.73,6.73,0,0,0-1.93,5.05V28.42a6.76,6.76,0,0,0,1.93,5,7.07,7.07,0,0,0,5.16,1.89M35.92,10.94v9.55a.15.15,0,0,1-.17.17H32.24c-.12,0-.18-.06-.18-.17V10.94a.4.4,0,0,0-.12-.29.42.42,0,0,0-.3-.13h-4.1a.42.42,0,0,0-.3.13.4.4,0,0,0-.12.29V34.66a.41.41,0,0,0,.42.42h4.1a.41.41,0,0,0,.42-.42V25.08c0-.11.06-.17.18-.17h3.51a.15.15,0,0,1,.17.17v9.58a.38.38,0,0,0,.13.3.4.4,0,0,0,.29.12h4.11a.44.44,0,0,0,.3-.12.41.41,0,0,0,.12-.3V10.94a.4.4,0,0,0-.12-.29.45.45,0,0,0-.3-.13H36.34a.41.41,0,0,0-.29.13.37.37,0,0,0-.13.29M5.23,35.08H9a.4.4,0,0,0,.46-.39l1.86-13c0-.09,0-.14.1-.14s.08.05.11.14l2.07,13a.39.39,0,0,0,.45.39h3.79a.4.4,0,0,0,.46-.39L22.73,11c.05-.3-.08-.46-.38-.46H18.21a.4.4,0,0,0-.46.39L16,23.54c0,.09-.06.14-.1.14s-.09-.05-.11-.14L13.68,10.91a.39.39,0,0,0-.45-.39H9.68a.39.39,0,0,0-.45.39L7.33,23.54c0,.09-.06.14-.1.14s-.09-.05-.11-.14l-2-12.63a.39.39,0,0,0-.45-.39H.39c-.26,0-.39.11-.39.32L0,11,4.77,34.69a.43.43,0,0,0,.46.39" transform="translate(0 0)"/><path class="cls-3" d="M463,110.22a2.75,2.75,0,1,0,0-5.5,2.69,2.69,0,0,0-2,.75,2.62,2.62,0,0,0-.78,2,2.68,2.68,0,0,0,.78,2,2.63,2.63,0,0,0,2,.77m-2-7.85H465a.37.37,0,0,0,.29-.13.38.38,0,0,0,.13-.3v-.8a2.55,2.55,0,0,1,.47-1.55,10.3,10.3,0,0,1,1.49-1.5,16.1,16.1,0,0,0,1.6-1.55,6.12,6.12,0,0,0,1-1.81,7.15,7.15,0,0,0,.44-2.64,6.42,6.42,0,0,0-6.84-6.84,7.77,7.77,0,0,0-3.79.89,6.36,6.36,0,0,0-2.56,2.53,7.47,7.47,0,0,0-.91,3.73v.35a.41.41,0,0,0,.42.42l4.1.18q.42,0,.42-.39V92.4a2.89,2.89,0,0,1,.6-1.91,2,2,0,0,1,1.61-.72,1.71,1.71,0,0,1,1.42.69,2.74,2.74,0,0,1,.55,1.8A2.93,2.93,0,0,1,465,94a11,11,0,0,1-1.65,1.7A11.65,11.65,0,0,0,461.22,98a5,5,0,0,0-.72,2.82v1.12a.41.41,0,0,0,.12.3.38.38,0,0,0,.3.13" transform="translate(0 0)"/></g></g></g></g></g></svg>