<svg xmlns="http://www.w3.org/2000/svg" xmlns:xlink="http://www.w3.org/1999/xlink" viewBox="0 0 691.12 110.18"><defs><style>.cls-1{fill:none;}.cls-2{clip-path:url(#clip-path);}.cls-3{fill:#303880;}.cls-4{fill:#af1d1f;}</style><clipPath id="clip-path" transform="translate(0 0)"><rect class="cls-1" width="691.11" height="110.18"/></clipPath></defs><g id="Calque_2" data-name="Calque 2"><g id="Calque_1-2" data-name="Calque 1"><g id="Illustration_14" data-name="Illustration 14"><g class="cls-2"><polygon class="cls-3" points="228.14 0 223.45 11.65 235.47 11.65 225.84 35.69 240.12 35.69 249.75 11.65 261.77 11.65 266.42 0 228.14 0"/><polygon class="cls-3" points="432.09 0 427.39 11.65 439.41 11.65 429.79 35.69 444.06 35.69 453.69 11.65 465.71 11.65 470.36 0 432.09 0"/><polygon class="cls-3" points="394.14 0 379.82 35.69 413.35 35.69 416.78 27.05 394.47 27.05 397.1 20.66 412.13 20.66 414.38 15.03 399.5 15.03 401.8 8.64 424.15 8.64 427.63 0 394.14 0"/><polygon class="cls-3" points="378.51 0 371.7 16.95 361.56 0 351.46 0 337.14 35.69 348.41 35.69 355.17 18.74 365.31 35.69 375.46 35.69 389.73 0 378.51 0"/><path class="cls-3" d="M316.43,8.64H332.2L329.86,15H314.12ZM308.77,0,294.45,35.69h11.27l3.62-9h10.94l2.91,4.89-1.69,4.13h11.27L337,25.17l-2.16-3.57,5-3.57,5.59-13.9L342.91,0Z" transform="translate(0 0)"/><polygon class="cls-3" points="270.83 0 256.51 35.69 290.04 35.69 293.46 27.05 271.16 27.05 273.79 20.66 288.81 20.66 291.07 15.03 276.18 15.03 278.48 8.64 300.84 8.64 304.31 0 270.83 0"/><polygon class="cls-3" points="168.7 0 154.38 35.69 165.65 35.69 179.92 0 168.7 0"/><polygon class="cls-3" points="212.22 0 205.41 16.95 195.27 0 185.18 0 170.85 35.69 182.12 35.69 188.88 18.74 199.03 35.69 209.17 35.69 223.45 0 212.22 0"/><path class="cls-3" d="M371.33,76.66H333l-1.16,2.93h38.32Zm-3.6-19.11-1.16,2.93H377.7l1.16-2.93Zm8.09,7.7L377,62.32H365.83l-1.16,2.93Zm-2.61,6.63H334.9l-1.16,2.93h38.31Zm-25.1-4.78H336.79L335.63,70h38.31l1.15-2.93H363.93l-.59,1.48H347.52ZM350,62.32H338.68l-1.16,2.93h11.33ZM352,57.55H340.57l-1.16,2.93h11.36Zm28.79-4.78H342.45L341.3,55.7h38.28ZM382.62,48H344.34l-1.15,2.93h38.28Zm.73-1.85,1-2.46H346.05l-1,2.46Z" transform="translate(0 0)"/><path class="cls-3" d="M456.7,76.66H418.38l-1.15,2.93h38.31Zm-3.59-19.11-1.17,2.93h11.13l1.16-2.93Zm8.08,7.7,1.16-2.93H451.21L450,65.25Zm-2.61,6.63H420.27l-1.16,2.93h38.32ZM433.49,67.1H422.16L421,70h38.31l1.15-2.93H449.31l-.59,1.48H432.89Zm1.91-4.78H424.05l-1.16,2.93h11.34Zm1.92-4.77H425.94l-1.16,2.93h11.37Zm28.79-4.78H427.83l-1.16,2.93H465ZM468,48H429.72l-1.16,2.93h38.28Zm.73-1.85,1-2.46H431.42l-1,2.46Z" transform="translate(0 0)"/><path class="cls-3" d="M414,76.66H375.7l-1.16,2.93h38.32Zm-3.59-19.11-1.17,2.93h11.14l1.15-2.93Zm8.09,7.7,1.15-2.93H408.52l-1.17,2.93Zm-2.62,6.63h-38.3l-1.16,2.93h38.31ZM390.8,67.1H379.47L378.32,70h38.3l1.16-2.93H406.62L406,68.58H390.2Zm1.92-4.78H381.36l-1.15,2.93h11.33Zm1.92-4.77H383.25l-1.16,2.93h11.37Zm28.79-4.78H385.14L384,55.7h38.29ZM425.31,48H387l-1.16,2.93h38.28Zm.73-1.85,1-2.46H388.73l-1,2.46Z" transform="translate(0 0)"/><path class="cls-3" d="M328.65,76.66h-38.3l-1.18,2.93h38.32Zm1.9-4.78H292.27l-1.18,2.93h38.29ZM305.41,67.1H294.19L293,70h11.2Zm29-4.78H296.12l-1.18,2.93h11.23l0,0h27.05Zm-10.05-2.75h-27.1l-.36.91h38.23l1.14-2.93H325.05Zm13.77-6.8H299.9l-.43,1.15h26.9l-.64,1.78H337ZM340,48H301.72l-1.11,2.93h38.2Zm.72-1.85,1-2.46H303.36l-.94,2.46Z" transform="translate(0 0)"/><g class="cls-2"><path class="cls-4" d="M278.85,96.62h2.25s-.38-6.45-6.83-6.45c-4.93,0-6.32,3.41-6.32,10.24,0,7.08,2.15,9.49,6.58,9.49,5.43,0,6.76-6.2,6.76-6.2h-1.94s-1.41,3.29-3.69,3.29-2.28-3.8-2.28-7-.12-6.83,2.41-6.83c2.22,0,3.06,3.42,3.06,3.42" transform="translate(0 0)"/></g><polygon class="cls-4" points="191.33 109.09 195.94 90.17 200.84 90.17 205.04 109.09 202.26 109.13 199.78 96.89 198.97 96.89 197.05 109.09 191.33 109.09"/><polygon class="cls-4" points="196.9 103.17 202.72 103.17 202.72 106.1 196.65 106.1 196.9 103.17"/><rect class="cls-4" x="154.23" y="106.2" width="11.49" height="2.93"/><rect class="cls-4" x="154.23" y="90.17" width="5.06" height="18.97"/><rect class="cls-4" x="230.66" y="90.17" width="11.49" height="2.93"/><rect class="cls-4" x="230.66" y="106.2" width="11.49" height="2.93"/><rect class="cls-4" x="230.66" y="90.17" width="5.06" height="18.97"/><rect class="cls-4" x="234.25" y="98.18" width="5.06" height="2.93"/><rect class="cls-4" x="287.98" y="90.17" width="11.48" height="2.93"/><rect class="cls-4" x="287.98" y="106.2" width="11.48" height="2.93"/><rect class="cls-4" x="287.98" y="90.17" width="5.06" height="18.97"/><rect class="cls-4" x="291.58" y="98.18" width="5.06" height="2.93"/><polygon class="cls-4" points="179.99 98.16 178.27 98.16 177.06 90.17 179.99 90.17 179.99 98.16"/><g class="cls-2"><path class="cls-4" d="M221.53,96.62h2.25s.7-6.45-6.83-6.45c-4.94,0-6.33,3.41-6.33,10.24,0,7.08,2.15,9.49,6.59,9.49,6.76,0,6.76-7.32,6.76-7.32l-2.62-.56s.24,5-3,5c-2.28,0-2.28-3.8-2.28-7s-.12-6.83,2.41-6.83,3.06,3.42,3.06,3.42" transform="translate(0 0)"/></g><rect class="cls-4" x="218.09" y="99.65" width="5.87" height="2.93"/><rect class="cls-4" x="249.77" y="90.17" width="4.86" height="18.97"/><rect class="cls-4" x="258.34" y="90.17" width="2.91" height="18.97"/><polygon class="cls-4" points="254.63 90.17 259.73 109.09 257.53 109.13 252.3 90.17 254.63 90.17"/><rect class="cls-4" x="319.84" y="90.17" width="5.27" height="19.73"/><g class="cls-2"><path class="cls-4" d="M324.23,107.36h2.56c3.58,0,3.6-5.43,3.6-7.44S330.28,93,326.63,93h-2.84l1.31-2.81h2.18c4.14,0,6.14,4.71,6.14,9.45s-1.18,10.28-6.79,10.28h-2.29Z" transform="translate(0 0)"/></g><rect class="cls-4" x="343.37" y="90.17" width="5.26" height="14.23"/><rect class="cls-4" x="354.26" y="90.17" width="3.03" height="14.23"/><g class="cls-2"><path class="cls-4" d="M348.63,101v3.41c0,1.63.74,3.25,2.69,3.25s2.94-1,2.94-3.25v-3.66l3,1.71v2c0,2.12-1.26,5.51-6.58,5.51s-7.34-2.54-7.34-5.51v-3.86Z" transform="translate(0 0)"/></g><rect class="cls-4" x="421.16" y="90.17" width="5.06" height="18.97"/><rect class="cls-4" x="417.44" y="90.17" width="12.5" height="2.89"/><rect class="cls-4" x="436.42" y="90.17" width="5.06" height="13.67"/><rect class="cls-4" x="446.89" y="90.17" width="2.91" height="13.67"/><g class="cls-2"><path class="cls-4" d="M441.48,100.56v3.28c0,1.56.7,3.12,2.58,3.12s2.83-1,2.83-3.12v-3.52L449.8,102v1.88c0,2-1.21,5.29-6.33,5.29s-7.05-2.44-7.05-5.29v-3.71Z" transform="translate(0 0)"/></g><rect class="cls-4" x="379.47" y="90.17" width="11.48" height="2.93"/><rect class="cls-4" x="379.47" y="90.17" width="5.06" height="18.97"/><rect class="cls-4" x="383.06" y="98.18" width="5.06" height="2.93"/><rect class="cls-4" x="397.22" y="90.17" width="5.06" height="13.67"/><rect class="cls-4" x="407.69" y="90.17" width="2.91" height="13.67"/><g class="cls-2"><path class="cls-4" d="M402.28,100.56v3.28c0,1.56.7,3.12,2.58,3.12s2.83-1,2.83-3.12v-3.52L410.6,102v1.88c0,2-1.21,5.29-6.33,5.29s-7-2.44-7-5.29v-3.71Z" transform="translate(0 0)"/></g><rect class="cls-4" x="456.64" y="90.17" width="5.06" height="18.97"/><g class="cls-2"><path class="cls-4" d="M460.86,98.7h3.65c1.43,0,2.27-.94,2.27-2.87s-.68-3-3-3h-3.39l1.26-2.7h3.59c2.09,0,4.41,2.2,4.41,5.37s-1.58,5.6-4.63,5.6H461Z" transform="translate(0 0)"/></g><polygon class="cls-4" points="465.99 99.99 469.02 109.09 466.24 109.13 463.07 99.99 465.99 99.99"/><g class="cls-2"><path class="cls-3" d="M131,10.5H117.14a.44.44,0,0,0-.3.12.41.41,0,0,0-.12.3v3.39a.41.41,0,0,0,.12.3.44.44,0,0,0,.3.12h4.2a.16.16,0,0,1,.18.18V34.58a.41.41,0,0,0,.42.42H126a.41.41,0,0,0,.42-.42V14.91a.16.16,0,0,1,.18-.18H131a.41.41,0,0,0,.42-.42V10.92a.41.41,0,0,0-.42-.42m-23.66.42,0,13.44a.1.1,0,0,1-.09.12q-.09,0-.12-.09l-4.38-13.54a.44.44,0,0,0-.45-.35H97.75a.4.4,0,0,0-.29.12.38.38,0,0,0-.13.3V34.58a.38.38,0,0,0,.13.3.4.4,0,0,0,.29.12h4.06a.41.41,0,0,0,.42-.42l0-13.44a.1.1,0,0,1,.09-.12s.09,0,.12.08l4.34,13.55a.44.44,0,0,0,.45.35h4.62a.41.41,0,0,0,.42-.42V10.92a.41.41,0,0,0-.42-.42h-4.06a.4.4,0,0,0-.29.12.38.38,0,0,0-.13.3M92.75,14.31V10.92a.41.41,0,0,0-.12-.3.44.44,0,0,0-.3-.12h-12a.4.4,0,0,0-.29.12.38.38,0,0,0-.13.3V34.58a.38.38,0,0,0,.13.3.4.4,0,0,0,.29.12h12a.44.44,0,0,0,.3-.12.41.41,0,0,0,.12-.3v-3.4a.4.4,0,0,0-.12-.29.45.45,0,0,0-.3-.13H85a.15.15,0,0,1-.17-.17V25a.15.15,0,0,1,.17-.17h4.2a.41.41,0,0,0,.42-.42V21a.4.4,0,0,0-.12-.29.42.42,0,0,0-.3-.13H85a.15.15,0,0,1-.17-.17V14.91c0-.12.06-.18.17-.18h7.32a.44.44,0,0,0,.3-.12.41.41,0,0,0,.12-.3M69.82,10.78l-3,5.56q-.11.15-.21,0l-3.11-5.56A.58.58,0,0,0,63,10.5h-4a.41.41,0,0,0-.42.42V34.58a.41.41,0,0,0,.42.42H63a.41.41,0,0,0,.42-.42V18.86c0-.09,0-.14.07-.14s.1,0,.14.11l2.73,4.83c.12.19.21.28.28.28s.17-.09.28-.28l2.73-4.83c0-.07.1-.11.14-.11s.07.05.07.14V34.58a.38.38,0,0,0,.13.3.4.4,0,0,0,.29.12h4.1a.44.44,0,0,0,.3-.12.41.41,0,0,0,.12-.3V10.92a.41.41,0,0,0-.12-.3.44.44,0,0,0-.3-.12H70.35a.54.54,0,0,0-.53.28m-21.28,0-3,5.56q-.11.15-.21,0l-3.11-5.56a.58.58,0,0,0-.53-.28h-4a.41.41,0,0,0-.42.42V34.58a.41.41,0,0,0,.42.42h4.09a.41.41,0,0,0,.42-.42V18.86c0-.09,0-.14.07-.14s.1,0,.14.11l2.73,4.83c.12.19.21.28.28.28s.17-.09.28-.28l2.73-4.83c.05-.07.1-.11.14-.11s.07.05.07.14V34.58a.38.38,0,0,0,.13.3A.4.4,0,0,0,49,35h4.1a.42.42,0,0,0,.3-.12.41.41,0,0,0,.12-.3V10.92a.41.41,0,0,0-.12-.3.42.42,0,0,0-.3-.12H49.07a.54.54,0,0,0-.53.28M25.41,31a1.93,1.93,0,0,1-1.56-.68,2.7,2.7,0,0,1-.58-1.8V16.94a2.7,2.7,0,0,1,.58-1.8,1.94,1.94,0,0,1,1.56-.69,2,2,0,0,1,1.57.69,2.61,2.61,0,0,1,.6,1.8V28.56a2.61,2.61,0,0,1-.6,1.8,2,2,0,0,1-1.57.68m0,4.24a7.07,7.07,0,0,0,5.16-1.89,6.69,6.69,0,0,0,1.94-5V17.15a6.69,6.69,0,0,0-1.94-5,7.07,7.07,0,0,0-5.16-1.89,7,7,0,0,0-5.15,1.89,6.75,6.75,0,0,0-1.92,5v11.2a6.75,6.75,0,0,0,1.92,5,7,7,0,0,0,5.15,1.89M7,35.28A7,7,0,0,0,12,33.41a6.71,6.71,0,0,0,1.92-5V28a.4.4,0,0,0-.12-.29.42.42,0,0,0-.3-.13l-4.09-.17a.41.41,0,0,0-.42.42v.94a2.34,2.34,0,0,1-.56,1.63A1.94,1.94,0,0,1,7,31a1.91,1.91,0,0,1-1.47-.61,2.34,2.34,0,0,1-.56-1.63V16.73a2.41,2.41,0,0,1,.56-1.65A1.89,1.89,0,0,1,7,14.45a1.92,1.92,0,0,1,1.51.63A2.41,2.41,0,0,1,9,16.73v.91c0,.26.14.38.42.38l4.09-.17a.41.41,0,0,0,.42-.42V17a6.63,6.63,0,0,0-1.9-5A7,7,0,0,0,7,10.22a7,7,0,0,0-5,1.85A6.6,6.6,0,0,0,0,17V28.38a6.71,6.71,0,0,0,1.91,5A6.88,6.88,0,0,0,7,35.28" transform="translate(0 0)"/><path class="cls-3" d="M683.63,110a2.64,2.64,0,0,0,2-.79,2.71,2.71,0,0,0,.77-2,2.64,2.64,0,0,0-2.76-2.73,2.64,2.64,0,0,0-2,.76,2.61,2.61,0,0,0-.77,2,2.64,2.64,0,0,0,2.73,2.77m-2-7.84h4.06A.4.4,0,0,0,686,102a.43.43,0,0,0,.13-.3v-.81a2.47,2.47,0,0,1,.47-1.54,9.8,9.8,0,0,1,1.49-1.5,15.88,15.88,0,0,0,1.59-1.54,6.19,6.19,0,0,0,1-1.8,7.24,7.24,0,0,0,.44-2.65,6.42,6.42,0,0,0-6.83-6.82,7.87,7.87,0,0,0-3.78.89A6.31,6.31,0,0,0,678,88.46a7.5,7.5,0,0,0-.91,3.73v.35a.42.42,0,0,0,.12.3.41.41,0,0,0,.3.12l4.09.17c.28,0,.42-.12.42-.38v-.56a2.89,2.89,0,0,1,.6-1.91,2,2,0,0,1,1.61-.72,1.71,1.71,0,0,1,1.41.69,2.8,2.8,0,0,1,.55,1.8,2.93,2.93,0,0,1-.53,1.77A11.8,11.8,0,0,1,684,95.51a12.36,12.36,0,0,0-2.09,2.26,5,5,0,0,0-.71,2.82v1.12a.42.42,0,0,0,.12.3.41.41,0,0,0,.3.12M664.31,89.21V85.82a.42.42,0,0,0-.13-.3.4.4,0,0,0-.29-.12h-12a.41.41,0,0,0-.42.42v23.66a.42.42,0,0,0,.12.3.41.41,0,0,0,.3.12h12a.4.4,0,0,0,.29-.12.43.43,0,0,0,.13-.3v-3.4a.41.41,0,0,0-.13-.29.37.37,0,0,0-.29-.13h-7.32c-.12,0-.17,0-.17-.17V99.92a.15.15,0,0,1,.17-.17h4.2a.41.41,0,0,0,.3-.12.42.42,0,0,0,.12-.3v-3.4a.4.4,0,0,0-.12-.29.38.38,0,0,0-.3-.13h-4.2c-.12,0-.17-.05-.17-.17V89.81c0-.12.05-.18.17-.18h7.32a.4.4,0,0,0,.29-.12.42.42,0,0,0,.13-.3m-22.93-3.39,0,13.44a.1.1,0,0,1-.09.12q-.09,0-.12-.09l-4.38-13.54a.44.44,0,0,0-.45-.35h-4.59a.42.42,0,0,0-.3.12.41.41,0,0,0-.12.3v23.66a.41.41,0,0,0,.42.42h4.06a.41.41,0,0,0,.3-.12.42.42,0,0,0,.12-.3l0-13.44c0-.07,0-.11.08-.12s.1,0,.13.08l4.34,13.55a.44.44,0,0,0,.45.35h4.62a.41.41,0,0,0,.3-.12.42.42,0,0,0,.12-.3V85.82a.41.41,0,0,0-.42-.42H641.8a.42.42,0,0,0-.3.12.41.41,0,0,0-.12.3m-20.09,0,0,13.44a.1.1,0,0,1-.09.12q-.09,0-.12-.09l-4.38-13.54a.44.44,0,0,0-.45-.35H611.7a.42.42,0,0,0-.3.12.41.41,0,0,0-.12.3v23.66a.41.41,0,0,0,.42.42h4.06a.41.41,0,0,0,.3-.12.42.42,0,0,0,.12-.3l0-13.44c0-.07,0-.11.08-.12s.1,0,.13.08l4.34,13.55a.44.44,0,0,0,.45.35h4.62a.41.41,0,0,0,.3-.12.42.42,0,0,0,.12-.3V85.82a.41.41,0,0,0-.42-.42h-4.06a.42.42,0,0,0-.3.12.41.41,0,0,0-.12.3m-21.94,20.12a1.91,1.91,0,0,1-1.56-.68,2.65,2.65,0,0,1-.58-1.8V91.84a2.65,2.65,0,0,1,.58-1.8,1.92,1.92,0,0,1,1.56-.69,2,2,0,0,1,1.57.69,2.61,2.61,0,0,1,.6,1.8v11.62a2.61,2.61,0,0,1-.6,1.8,2,2,0,0,1-1.57.68m0,4.24a7.1,7.1,0,0,0,5.16-1.89,6.73,6.73,0,0,0,1.94-5V92.05a6.73,6.73,0,0,0-1.94-5,7.1,7.1,0,0,0-5.16-1.89A7,7,0,0,0,594.2,87a6.75,6.75,0,0,0-1.92,5v11.2a6.75,6.75,0,0,0,1.92,5,7,7,0,0,0,5.15,1.89m-16.45-.28H587a.41.41,0,0,0,.3-.12.42.42,0,0,0,.12-.3V85.82a.41.41,0,0,0-.42-.42H582.9a.41.41,0,0,0-.42.42v23.66a.42.42,0,0,0,.12.3.41.41,0,0,0,.3.12m-5.32-24.5H563.72a.41.41,0,0,0-.42.42v3.39a.41.41,0,0,0,.42.42h4.2c.11,0,.17.06.17.18v19.67a.42.42,0,0,0,.12.3.44.44,0,0,0,.3.12h4.1a.4.4,0,0,0,.29-.12.39.39,0,0,0,.13-.3V89.81c0-.12.06-.18.17-.18h4.38a.4.4,0,0,0,.29-.12.38.38,0,0,0,.13-.3V85.82a.38.38,0,0,0-.13-.3.4.4,0,0,0-.29-.12m-25.31,24.78a7,7,0,0,0,5.08-1.87,6.71,6.71,0,0,0,1.92-5v-.35a.4.4,0,0,0-.12-.29.38.38,0,0,0-.3-.13l-4.09-.17a.41.41,0,0,0-.42.42v.94a2.34,2.34,0,0,1-.56,1.63,2,2,0,0,1-1.51.61,1.91,1.91,0,0,1-1.47-.61,2.34,2.34,0,0,1-.56-1.63V91.63A2.41,2.41,0,0,1,550.8,90a1.89,1.89,0,0,1,1.47-.63,1.93,1.93,0,0,1,1.51.63,2.41,2.41,0,0,1,.56,1.65v.91c0,.26.14.38.42.38l4.09-.17a.41.41,0,0,0,.3-.12.42.42,0,0,0,.12-.3v-.39a6.63,6.63,0,0,0-1.9-5,7,7,0,0,0-5.1-1.85,7,7,0,0,0-5,1.85,6.6,6.6,0,0,0-1.91,5v11.34a6.71,6.71,0,0,0,1.91,5,6.92,6.92,0,0,0,5,1.87M535.58,85.82l0,13.44c0,.07,0,.11-.08.12s-.1,0-.13-.09L531,85.75a.44.44,0,0,0-.46-.35H526a.41.41,0,0,0-.42.42v23.66a.42.42,0,0,0,.12.3.41.41,0,0,0,.3.12h4.06a.44.44,0,0,0,.3-.12.42.42,0,0,0,.12-.3l0-13.44a.1.1,0,0,1,.09-.12c.06,0,.1,0,.12.08L535,109.55a.44.44,0,0,0,.46.35h4.62a.44.44,0,0,0,.3-.12.42.42,0,0,0,.12-.3V85.82a.41.41,0,0,0-.12-.3.44.44,0,0,0-.3-.12H536a.41.41,0,0,0-.42.42m-22,20.12a1.9,1.9,0,0,1-1.55-.68,2.65,2.65,0,0,1-.58-1.8V91.84a2.65,2.65,0,0,1,.58-1.8,1.91,1.91,0,0,1,1.55-.69,2,2,0,0,1,1.58.69,2.65,2.65,0,0,1,.59,1.8v11.62a2.65,2.65,0,0,1-.59,1.8,2,2,0,0,1-1.58.68m0,4.24a7.11,7.11,0,0,0,5.17-1.89,6.73,6.73,0,0,0,1.94-5V92.05a6.73,6.73,0,0,0-1.94-5,7.11,7.11,0,0,0-5.17-1.89A7,7,0,0,0,508.49,87a6.72,6.72,0,0,0-1.93,5v11.2a6.72,6.72,0,0,0,1.93,5,7,7,0,0,0,5.14,1.89m-10.74-21V85.82a.41.41,0,0,0-.12-.3.44.44,0,0,0-.3-.12h-12a.41.41,0,0,0-.42.42v23.66a.42.42,0,0,0,.12.3.41.41,0,0,0,.3.12h4.09a.41.41,0,0,0,.3-.12.42.42,0,0,0,.12-.3V99.92c0-.11.06-.17.18-.17h4.16a.41.41,0,0,0,.3-.12.42.42,0,0,0,.12-.3v-3.4a.4.4,0,0,0-.12-.29.38.38,0,0,0-.3-.13h-4.16c-.12,0-.18-.05-.18-.17V89.81a.16.16,0,0,1,.18-.18h7.28a.44.44,0,0,0,.3-.12.41.41,0,0,0,.12-.3" transform="translate(0 0)"/></g></g></g></g></g></svg>