<svg xmlns="http://www.w3.org/2000/svg" viewBox="0 0 131.27 146.03"><defs><style>.cls-1{fill:#af1d1f;}.cls-2{fill:#303880;}</style></defs><g id="Calque_2" data-name="Calque 2"><g id="Calque_1-2" data-name="Calque 1"><path class="cls-1" d="M115.91,16.42H65.48c-1.11,0-2.14.09-3.22.13l-1.59.08-.8,0-.79.12A44.46,44.46,0,0,0,52.81,18l-1.55.39-.77.2c-.26.08-.5.18-.75.27l-3,1.1-.76.27-.71.35-1.44.69A26.27,26.27,0,0,0,41,22.73l-2.73,1.65c-.92.55-1.73,1.26-2.59,1.87a50.46,50.46,0,0,0-4.86,4.15c-.75.75-1.44,1.57-2.17,2.35l-1.07,1.18c-.34.41-.65.85-1,1.27l-1.91,2.56L23,40.49c-.27.46-.57.91-.82,1.37l-.7,1.44c-.45,1-.94,1.91-1.36,2.89l-1.1,3c-.17.5-.39,1-.52,1.51l-.4,1.55c-.25,1-.56,2-.77,3.1l-.48,3.16c-.07.52-.18,1.05-.22,1.58l-.08,1.59-.16,3.2V146L0,130.67V64.88l.19-4.25L.32,58.5c0-.71.18-1.41.28-2.12l.65-4.23c.28-1.4.67-2.78,1-4.16l.55-2.08c.18-.69.46-1.35.69-2l1.48-4C5.56,38.55,6.2,37.27,6.81,36l1-1.93c.34-.62.72-1.23,1.08-1.84l2.24-3.65,2.55-3.44c.43-.56.85-1.14,1.3-1.69l1.43-1.59c1-1.05,1.9-2.13,2.91-3.13a67.47,67.47,0,0,1,6.49-5.56c1.15-.83,2.25-1.75,3.47-2.49l3.66-2.23a40.06,40.06,0,0,1,3.8-2l1.93-.93,1-.45,1-.38,4-1.47c.34-.12.67-.25,1-.36l1-.27,2.07-.54A60.21,60.21,0,0,1,57.15.49L58.21.33,59.28.27,61.41.15l2.13-.1,1.07,0c.37,0,.57,0,.87,0h65.79Z"/><path class="cls-2" d="M122.4,23.21H65.48c-.59,0-1,0-1.49.05l-1.37.07-1.38.07-.69,0-.67.11a39.11,39.11,0,0,0-5.39,1l-1.33.34-.66.17c-.22.06-.43.15-.65.23l-2.57.95-.65.23-.62.3-1.23.6a21.55,21.55,0,0,0-2.44,1.25L42,30.06c-.79.46-1.48,1.08-2.23,1.61a45.44,45.44,0,0,0-4.18,3.56c-.65.65-1.23,1.36-1.86,2l-.93,1c-.29.35-.55.73-.83,1.09l-1.65,2.2-1.42,2.35c-.23.4-.49.78-.71,1.18l-.59,1.24c-.38.83-.81,1.64-1.18,2.48l-.93,2.57c-.15.44-.35.85-.46,1.3L24.69,54c-.22.89-.49,1.76-.67,2.66l-.41,2.71c-.06.46-.16.9-.19,1.36l-.06,1.38-.15,2.76v74.68l-3.4,3.24V64.88l.15-3L20,60.41c0-.49.14-1,.21-1.47L20.68,56c.2-1,.49-1.91.72-2.88l.37-1.44a14.46,14.46,0,0,1,.48-1.4l1-2.79c.39-.9.86-1.78,1.28-2.68l.64-1.34c.23-.43.51-.85.76-1.27l1.54-2.54,1.78-2.38c.31-.4.59-.81.9-1.19l1-1.1c.67-.72,1.31-1.48,2-2.18A47.46,47.46,0,0,1,37.71,29c.81-.57,1.55-1.23,2.41-1.74l2.54-1.54a25.28,25.28,0,0,1,2.64-1.36l1.34-.64.66-.33.7-.25,2.79-1c.23-.09.46-.18.7-.25l.72-.19,1.44-.36a42.54,42.54,0,0,1,5.83-1.12l.73-.11L61,20l1.49-.08,1.49-.07c.49,0,1-.06,1.55-.05h53.68Z"/><path class="cls-2" d="M128.87,30H65.48c-.26,0-.6,0-.78,0l-.57,0L63,30.11l-1.15.05-.58,0-.57.1a32.48,32.48,0,0,0-4.5.86l-1.11.28-.56.13-.53.2c-.72.28-1.43.54-2.16.79l-.54.19-.51.26-1,.5a15.1,15.1,0,0,0-2,1l-2,1.19c-.66.38-1.23.91-1.86,1.35a36.72,36.72,0,0,0-3.5,3c-.55.54-1,1.14-1.56,1.7L38,42.6c-.24.3-.45.62-.68.93-.46.61-.92,1.23-1.39,1.83s-.78,1.32-1.18,2c-.2.33-.42.65-.6,1l-.49,1c-.32.7-.69,1.37-1,2.07s-.51,1.44-.78,2.16a9.86,9.86,0,0,0-.38,1.08l-.28,1.11c-.17.74-.41,1.47-.56,2.22s-.21,1.52-.33,2.27a10.8,10.8,0,0,0-.17,1.14l-.05,1.15L30,64.88v68.21l-3.4,3.24V64.88l.14-2.55.05-1.26c0-.42.12-.83.18-1.25l.37-2.49c.17-.83.42-1.63.62-2.44l.3-1.23c.1-.41.29-.79.42-1.18l.86-2.37c.33-.77.73-1.51,1.08-2.27l.54-1.14c.2-.37.44-.72.66-1.08l1.3-2.16,1.52-2c.25-.34.49-.69.76-1l.85-.93c.58-.61,1.12-1.27,1.71-1.86a39.83,39.83,0,0,1,3.85-3.27c.69-.49,1.31-1.07,2-1.49L46,31.58a17.53,17.53,0,0,1,2.24-1.15l1.13-.56.57-.28.59-.2,2.37-.87c.19-.07.39-.16.59-.22l.61-.15,1.22-.31a34.43,34.43,0,0,1,4.94-.94l.63-.11.63,0,1.26-.06,1.27-.07.63,0c.2,0,.53,0,.79,0h60.15Z"/></g></g></svg>