<svg xmlns="http://www.w3.org/2000/svg" xmlns:xlink="http://www.w3.org/1999/xlink" viewBox="0 0 476.55 118.3"><defs><style>.cls-1{fill:none;}.cls-2{clip-path:url(#clip-path);}.cls-3,.cls-5{fill:#303880;}.cls-4{fill:#af1d1f;}.cls-5{font-size:35px;font-family:BarlowCondensed-Bold, Barlow Condensed;font-weight:700;}</style><clipPath id="clip-path" transform="translate(0 0)"><rect class="cls-1" width="476.55" height="109.9"/></clipPath></defs><g id="Calque_2" data-name="Calque 2"><g id="Calque_1-2" data-name="Calque 1"><g id="Illustration_16" data-name="Illustration 16"><g class="cls-2"><polygon class="cls-3" points="200.86 0 196.17 11.65 208.19 11.65 198.56 35.69 212.84 35.69 222.46 11.65 234.49 11.65 239.13 0 200.86 0"/><polygon class="cls-3" points="404.81 0 400.11 11.65 412.13 11.65 402.51 35.69 416.78 35.69 426.41 11.65 438.43 11.65 443.08 0 404.81 0"/><polygon class="cls-3" points="366.86 0 352.54 35.69 386.07 35.69 389.5 27.05 367.19 27.05 369.82 20.66 384.85 20.66 387.1 15.03 372.22 15.03 374.52 8.64 396.87 8.64 400.35 0 366.86 0"/><polygon class="cls-3" points="351.23 0 344.42 16.95 334.27 0 324.18 0 309.85 35.69 321.12 35.69 327.89 18.74 338.03 35.69 348.17 35.69 362.45 0 351.23 0"/><path class="cls-3" d="M289.15,8.64h15.77L302.58,15H286.84ZM281.49,0,267.17,35.69h11.27l3.61-9H293l2.91,4.89-1.69,4.13h11.27l4.18-10.52-2.16-3.57,5-3.57,5.59-13.9L315.63,0Z" transform="translate(0 0)"/><polygon class="cls-3" points="243.55 0 229.22 35.69 262.75 35.69 266.18 27.05 243.88 27.05 246.5 20.66 261.53 20.66 263.79 15.03 248.9 15.03 251.2 8.64 273.56 8.64 277.03 0 243.55 0"/><polygon class="cls-3" points="141.42 0 127.09 35.69 138.37 35.69 152.64 0 141.42 0"/><polygon class="cls-3" points="184.94 0 178.13 16.95 167.99 0 157.89 0 143.57 35.69 154.84 35.69 161.6 18.74 171.75 35.69 181.89 35.69 196.17 0 184.94 0"/><path class="cls-3" d="M344,76.66H305.73l-1.16,2.93h38.32Zm-3.59-19.11-1.16,2.93h11.13l1.16-2.93Zm8.09,7.7,1.15-2.93H338.55l-1.16,2.93Zm-2.61,6.63H307.62l-1.16,2.93h38.31Zm-25.1-4.78H309.51L308.35,70h38.31l1.15-2.93H336.65l-.59,1.48H320.24Zm1.92-4.78H311.4l-1.16,2.93h11.33Zm1.92-4.77H313.28l-1.15,2.93h11.36Zm28.79-4.78H315.17L314,55.7H352.3ZM355.34,48H317.06l-1.16,2.93h38.29Zm.73-1.85,1-2.46H318.77l-1,2.46Z" transform="translate(0 0)"/><path class="cls-3" d="M429.42,76.66H391.1l-1.16,2.93h38.32Zm-3.6-19.11-1.16,2.93h11.13L437,57.55Zm8.09,7.7,1.15-2.93H423.92l-1.16,2.93Zm-2.61,6.63H393l-1.16,2.93h38.31ZM406.2,67.1H394.88L393.72,70H432l1.15-2.93H422l-.59,1.48H405.61Zm1.92-4.78H396.77l-1.16,2.93H407ZM410,57.55H398.66l-1.16,2.93h11.36Zm28.79-4.78H400.55l-1.16,2.93h38.29ZM440.71,48H402.43l-1.15,2.93h38.28Zm.73-1.85,1-2.46H404.14l-1,2.46Z" transform="translate(0 0)"/><path class="cls-3" d="M386.73,76.66H348.42l-1.16,2.93h38.32Zm-3.59-19.11L382,60.48h11.14l1.15-2.93Zm8.08,7.7,1.16-2.93H381.24l-1.17,2.93Zm-2.61,6.63H350.3l-1.15,2.93h38.31ZM363.52,67.1H352.19L351,70h38.31l1.16-2.93H379.34l-.59,1.48H362.92Zm1.92-4.78H354.08l-1.16,2.93h11.34Zm1.91-4.77H356l-1.16,2.93h11.37Zm28.79-4.78H357.86L356.7,55.7H395ZM398,48H359.75l-1.16,2.93h38.28Zm.72-1.85,1-2.46H361.45l-1,2.46Z" transform="translate(0 0)"/><path class="cls-3" d="M301.37,76.66h-38.3l-1.18,2.93H300.2Zm1.89-4.78H265l-1.18,2.93H302.1ZM278.13,67.1H266.91L265.73,70h11.19Zm28.95-4.78H268.83l-1.18,2.93h11.24l0,0h27Zm-10-2.75h-27.1l-.36.91H307.8L309,57.55H297.77Zm13.77-6.8H272.62l-.44,1.15h26.91l-.65,1.78h11.23ZM312.67,48H274.44l-1.12,2.93h38.21Zm.72-1.85,1-2.46H276.08l-.94,2.46Z" transform="translate(0 0)"/><g class="cls-2"><path class="cls-4" d="M251.57,96.62h2.25s-.38-6.45-6.83-6.45c-4.94,0-6.33,3.41-6.33,10.24,0,7.08,2.15,9.49,6.59,9.49,5.43,0,6.76-6.2,6.76-6.2h-1.94s-1.41,3.29-3.69,3.29-2.28-3.8-2.28-7-.12-6.83,2.41-6.83c2.22,0,3.06,3.42,3.06,3.42" transform="translate(0 0)"/></g><polygon class="cls-4" points="168.66 90.17 164.05 109.09 169.77 109.09 171.69 96.89 172.5 96.89 174.98 109.13 177.76 109.09 173.56 90.17 168.66 90.17"/><polygon class="cls-4" points="169.62 103.17 175.44 103.17 175.44 106.1 169.36 106.1 169.62 103.17"/><rect class="cls-4" x="126.95" y="106.2" width="11.49" height="2.93"/><rect class="cls-4" x="126.95" y="90.17" width="5.06" height="18.97"/><rect class="cls-4" x="203.38" y="90.17" width="11.49" height="2.93"/><rect class="cls-4" x="203.38" y="106.2" width="11.49" height="2.93"/><rect class="cls-4" x="203.38" y="90.17" width="5.06" height="18.97"/><rect class="cls-4" x="206.97" y="98.18" width="5.06" height="2.93"/><rect class="cls-4" x="260.7" y="90.17" width="11.48" height="2.93"/><rect class="cls-4" x="260.7" y="106.2" width="11.49" height="2.93"/><rect class="cls-4" x="260.7" y="90.17" width="5.06" height="18.97"/><rect class="cls-4" x="264.29" y="98.18" width="5.06" height="2.93"/><polygon class="cls-4" points="152.71 98.16 150.99 98.16 149.78 90.17 152.71 90.17 152.71 98.16"/><g class="cls-2"><path class="cls-4" d="M194.25,96.62h2.25s.7-6.45-6.83-6.45c-4.94,0-6.33,3.41-6.33,10.24,0,7.08,2.15,9.49,6.58,9.49,6.77,0,6.77-7.32,6.77-7.32l-2.62-.56s.24,5-3,5c-2.28,0-2.28-3.8-2.28-7s-.13-6.83,2.4-6.83,3.07,3.42,3.07,3.42" transform="translate(0 0)"/></g><rect class="cls-4" x="190.81" y="99.65" width="5.87" height="2.93"/><rect class="cls-4" x="222.49" y="90.17" width="4.87" height="18.97"/><rect class="cls-4" x="231.06" y="90.17" width="2.91" height="18.97"/><polygon class="cls-4" points="225.01 90.17 230.25 109.13 232.45 109.09 227.35 90.17 225.01 90.17"/><rect class="cls-4" x="292.55" y="90.17" width="5.27" height="19.73"/><g class="cls-2"><path class="cls-4" d="M297,107.36h2.56c3.57,0,3.6-5.43,3.6-7.44S303,93,299.35,93H296.5l1.32-2.81H300c4.15,0,6.15,4.71,6.15,9.45S305,109.9,299.35,109.9h-2.3Z" transform="translate(0 0)"/></g><rect class="cls-4" x="316.09" y="90.17" width="5.26" height="14.23"/><rect class="cls-4" x="326.98" y="90.17" width="3.03" height="14.23"/><g class="cls-2"><path class="cls-4" d="M321.35,101v3.41c0,1.63.73,3.25,2.69,3.25s2.94-1,2.94-3.25v-3.66l3,1.71v2c0,2.12-1.26,5.51-6.58,5.51s-7.34-2.54-7.34-5.51v-3.86Z" transform="translate(0 0)"/></g><rect class="cls-4" x="393.88" y="90.17" width="5.06" height="18.97"/><rect class="cls-4" x="390.16" y="90.17" width="12.5" height="2.89"/><rect class="cls-4" x="409.14" y="90.17" width="5.06" height="13.67"/><rect class="cls-4" x="419.61" y="90.17" width="2.91" height="13.67"/><g class="cls-2"><path class="cls-4" d="M414.2,100.56v3.28c0,1.56.7,3.12,2.58,3.12s2.83-1,2.83-3.12v-3.52l2.91,1.64v1.88c0,2-1.21,5.29-6.33,5.29s-7.05-2.44-7.05-5.29v-3.71Z" transform="translate(0 0)"/></g><rect class="cls-4" x="352.19" y="90.17" width="11.48" height="2.93"/><rect class="cls-4" x="352.19" y="90.17" width="5.06" height="18.97"/><rect class="cls-4" x="355.78" y="98.18" width="5.06" height="2.93"/><rect class="cls-4" x="369.94" y="90.17" width="5.06" height="13.67"/><rect class="cls-4" x="380.41" y="90.17" width="2.91" height="13.67"/><g class="cls-2"><path class="cls-4" d="M375,100.56v3.28c0,1.56.7,3.12,2.58,3.12s2.83-1,2.83-3.12v-3.52l2.91,1.64v1.88c0,2-1.21,5.29-6.33,5.29s-7.05-2.44-7.05-5.29v-3.71Z" transform="translate(0 0)"/></g><rect class="cls-4" x="429.35" y="90.17" width="5.06" height="18.97"/><g class="cls-2"><path class="cls-4" d="M433.58,98.7h3.65c1.43,0,2.27-.94,2.27-2.87s-.68-3-3-3h-3.39l1.26-2.7H438c2.09,0,4.41,2.2,4.41,5.37s-1.58,5.6-4.63,5.6h-4.1Z" transform="translate(0 0)"/></g><polygon class="cls-4" points="435.79 99.99 438.96 109.13 441.74 109.09 438.71 99.99 435.79 99.99"/><g class="cls-2"><path class="cls-3" d="M105.14,10.5H91.28a.41.41,0,0,0-.42.42v3.39a.41.41,0,0,0,.42.42h4.2c.11,0,.17.06.17.18V34.58a.38.38,0,0,0,.13.3.4.4,0,0,0,.29.12h4.1a.44.44,0,0,0,.3-.12.41.41,0,0,0,.12-.3V14.91c0-.12.06-.18.17-.18h4.38a.44.44,0,0,0,.3-.12.41.41,0,0,0,.12-.3V10.92a.41.41,0,0,0-.12-.3.44.44,0,0,0-.3-.12M80.43,35.28a6.88,6.88,0,0,0,5-1.82,6.49,6.49,0,0,0,1.89-4.9,6.45,6.45,0,0,0-.61-2.89A7.57,7.57,0,0,0,85,23.47c-.73-.67-1.83-1.54-3.27-2.61a16.09,16.09,0,0,1-2.63-2.24,2.86,2.86,0,0,1-.66-1.86,2.51,2.51,0,0,1,.52-1.69,1.72,1.72,0,0,1,1.37-.62,1.79,1.79,0,0,1,1.42.65,2.61,2.61,0,0,1,.54,1.73v1a.41.41,0,0,0,.42.42h4a.41.41,0,0,0,.42-.42v-.84a6.55,6.55,0,0,0-1.87-4.87A7.59,7.59,0,0,0,75.39,12a6.3,6.3,0,0,0-1.86,4.76,7,7,0,0,0,.77,3.33,8.75,8.75,0,0,0,1.86,2.41A32.64,32.64,0,0,0,79,24.74,20.05,20.05,0,0,1,81.72,27a2.53,2.53,0,0,1,.7,1.8,2.33,2.33,0,0,1-.56,1.64,1.79,1.79,0,0,1-1.4.63,1.77,1.77,0,0,1-1.4-.66,2.64,2.64,0,0,1-.56-1.75v-.77a.41.41,0,0,0-.42-.42h-4a.41.41,0,0,0-.42.42v1a6.59,6.59,0,0,0,.84,3.35,5.68,5.68,0,0,0,2.38,2.25,7.52,7.52,0,0,0,3.57.81m-10.89-21V10.92a.41.41,0,0,0-.42-.42h-12a.41.41,0,0,0-.42.42V34.58a.41.41,0,0,0,.42.42h12a.41.41,0,0,0,.42-.42v-3.4a.4.4,0,0,0-.12-.29.42.42,0,0,0-.3-.13H61.81c-.12,0-.18-.05-.18-.17V25c0-.11.06-.17.18-.17H66a.42.42,0,0,0,.3-.12.41.41,0,0,0,.12-.3V21a.4.4,0,0,0-.12-.29.43.43,0,0,0-.3-.13h-4.2c-.12,0-.18-.05-.18-.17V14.91a.16.16,0,0,1,.18-.18h7.31a.41.41,0,0,0,.42-.42M37.87,35H42a.41.41,0,0,0,.42-.42V10.92A.41.41,0,0,0,42,10.5H37.87a.41.41,0,0,0-.42.42V34.58a.41.41,0,0,0,.42.42m-12.43.28a6.68,6.68,0,0,0,5-2A7.27,7.27,0,0,0,32.37,28V10.92A.41.41,0,0,0,32,10.5H27.86a.41.41,0,0,0-.42.42v17.6a2.88,2.88,0,0,1-.54,1.82,1.76,1.76,0,0,1-1.46.7,1.8,1.8,0,0,1-1.47-.7,2.82,2.82,0,0,1-.56-1.82V10.92A.41.41,0,0,0,23,10.5H18.9a.41.41,0,0,0-.42.42V28a7.23,7.23,0,0,0,1.91,5.27,6.68,6.68,0,0,0,5.05,2M4.93,16.87a2.74,2.74,0,0,1,.53-1.75,1.71,1.71,0,0,1,1.4-.67,1.78,1.78,0,0,1,1.42.67,2.69,2.69,0,0,1,.54,1.75V28.63a2.69,2.69,0,0,1-.54,1.75A1.77,1.77,0,0,1,6.86,31a1.7,1.7,0,0,1-1.4-.66,2.74,2.74,0,0,1-.53-1.75Zm1.93-6.65a7.16,7.16,0,0,0-3.59.89A6.16,6.16,0,0,0,.86,13.63,7.87,7.87,0,0,0,0,17.39V28.1a7.7,7.7,0,0,0,1.14,4.24,6.09,6.09,0,0,0,3.13,2.52.16.16,0,0,1,.14.17v3a.42.42,0,0,0,.12.3.41.41,0,0,0,.3.12H8.92a.41.41,0,0,0,.3-.12.42.42,0,0,0,.12-.3V35a.16.16,0,0,1,.14-.17,6.16,6.16,0,0,0,3.14-2.52,7.78,7.78,0,0,0,1.13-4.24V17.39a7.2,7.2,0,0,0-1.89-5.19,6.58,6.58,0,0,0-5-2" transform="translate(0 0)"/><text class="cls-5" transform="translate(461.26 109.9)">?</text></g></g></g></g></g></svg>