<svg xmlns="http://www.w3.org/2000/svg" xmlns:xlink="http://www.w3.org/1999/xlink" viewBox="0 0 515.74 118.3"><defs><style>.cls-1{fill:none;}.cls-2{clip-path:url(#clip-path);}.cls-3,.cls-5{fill:#303880;}.cls-4{fill:#af1d1f;}.cls-5{font-size:35px;font-family:BarlowCondensed-Bold, Barlow Condensed;font-weight:700;}</style><clipPath id="clip-path" transform="translate(0 0)"><rect class="cls-1" width="515.74" height="109.9"/></clipPath></defs><g id="Calque_2" data-name="Calque 2"><g id="Calque_1-2" data-name="Calque 1"><g id="Illustration_15" data-name="Illustration 15"><g class="cls-2"><polygon class="cls-3" points="240.05 0 235.36 11.65 247.38 11.65 237.75 35.69 252.03 35.69 261.65 11.65 273.68 11.65 278.32 0 240.05 0"/><polygon class="cls-3" points="444 0 439.3 11.65 451.32 11.65 441.7 35.69 455.97 35.69 465.6 11.65 477.62 11.65 482.27 0 444 0"/><polygon class="cls-3" points="406.05 0 391.73 35.69 425.26 35.69 428.69 27.05 406.38 27.05 409.01 20.66 424.04 20.66 426.29 15.03 411.41 15.03 413.71 8.64 436.06 8.64 439.54 0 406.05 0"/><polygon class="cls-3" points="390.42 0 383.61 16.95 373.46 0 363.37 0 349.05 35.69 360.31 35.69 367.08 18.74 377.22 35.69 387.36 35.69 401.64 0 390.42 0"/><path class="cls-3" d="M328.34,8.64h15.78L341.77,15H326ZM320.68,0,306.36,35.69h11.27l3.62-9h10.94l2.91,4.89-1.69,4.13h11.27l4.18-10.52L346.7,21.6l5-3.57,5.59-13.9L354.82,0Z" transform="translate(0 0)"/><polygon class="cls-3" points="282.74 0 268.42 35.69 301.94 35.69 305.37 27.05 283.07 27.05 285.7 20.66 300.72 20.66 302.98 15.03 288.09 15.03 290.39 8.64 312.75 8.64 316.22 0 282.74 0"/><polygon class="cls-3" points="180.61 0 166.29 35.69 177.56 35.69 191.83 0 180.61 0"/><polygon class="cls-3" points="224.13 0 217.32 16.95 207.18 0 197.08 0 182.76 35.69 194.03 35.69 200.79 18.74 210.94 35.69 221.08 35.69 235.36 0 224.13 0"/><path class="cls-3" d="M383.24,76.66H344.92l-1.16,2.93h38.32Zm-3.6-19.11-1.16,2.93h11.13l1.16-2.93Zm8.09,7.7,1.15-2.93H377.74l-1.16,2.93Zm-2.61,6.63H346.81l-1.16,2.93H384ZM360,67.1H348.7L347.54,70h38.31L387,67.1H375.84l-.59,1.48H359.43Zm1.92-4.78H350.59l-1.16,2.93h11.33Zm1.92-4.77H352.48l-1.16,2.93h11.36Zm28.79-4.78H354.36l-1.15,2.93h38.28ZM394.53,48H356.25l-1.15,2.93h38.28Zm.73-1.85,1-2.46H358l-1,2.46Z" transform="translate(0 0)"/><path class="cls-3" d="M468.61,76.66H430.29l-1.16,2.93h38.32ZM465,57.55l-1.17,2.93H475l1.16-2.93Zm8.08,7.7,1.16-2.93H463.12L462,65.25Zm-2.61,6.63H432.18L431,74.81h38.32Zm-25.1-4.78H434.07L432.91,70h38.31l1.15-2.93H461.21l-.59,1.48H444.8Zm1.92-4.78H436l-1.16,2.93h11.34Zm1.92-4.77H437.85l-1.16,2.93h11.36ZM478,52.77H439.74l-1.16,2.93h38.29ZM479.9,48H441.63l-1.16,2.93h38.28Zm.73-1.85,1-2.46H443.33l-1,2.46Z" transform="translate(0 0)"/><path class="cls-3" d="M425.92,76.66H387.61l-1.16,2.93h38.32Zm-3.59-19.11-1.17,2.93H432.3l1.15-2.93Zm8.08,7.7,1.16-2.93H420.43l-1.17,2.93Zm-2.61,6.63H389.49l-1.15,2.93h38.31ZM402.71,67.1H391.38L390.23,70h38.3l1.16-2.93H418.53l-.59,1.48H402.11Zm1.92-4.78H393.27l-1.16,2.93h11.34Zm1.91-4.77H395.16L394,60.48h11.37Zm28.79-4.78H397.05l-1.16,2.93h38.29ZM437.22,48H398.94l-1.16,2.93h38.28Zm.73-1.85,1-2.46H400.64l-1,2.46Z" transform="translate(0 0)"/><path class="cls-3" d="M340.56,76.66h-38.3l-1.18,2.93H339.4Zm1.89-4.78H304.18L303,74.81h38.29ZM317.32,67.1H306.1L304.92,70h11.19Zm28.95-4.78H308l-1.17,2.93h11.23l0,0h27Zm-10-2.75h-27.1l-.36.91H347l1.15-2.93H337ZM350,52.77H311.81l-.44,1.15h26.91l-.65,1.78h11.23ZM351.86,48H313.63l-1.11,2.93h38.2Zm.72-1.85,1-2.46H315.27l-.94,2.46Z" transform="translate(0 0)"/><g class="cls-2"><path class="cls-4" d="M290.76,96.62H293s-.38-6.45-6.83-6.45c-4.93,0-6.32,3.41-6.32,10.24,0,7.08,2.15,9.49,6.58,9.49,5.43,0,6.76-6.2,6.76-6.2h-1.94s-1.41,3.29-3.69,3.29-2.28-3.8-2.28-7-.12-6.83,2.41-6.83c2.22,0,3.06,3.42,3.06,3.42" transform="translate(0 0)"/></g><polygon class="cls-4" points="207.85 90.17 203.24 109.09 208.96 109.09 210.88 96.89 211.69 96.89 214.17 109.13 216.95 109.09 212.75 90.17 207.85 90.17"/><polygon class="cls-4" points="208.81 103.17 214.63 103.17 214.63 106.1 208.55 106.1 208.81 103.17"/><rect class="cls-4" x="166.14" y="106.2" width="11.49" height="2.93"/><rect class="cls-4" x="166.14" y="90.17" width="5.06" height="18.96"/><rect class="cls-4" x="242.57" y="90.17" width="11.49" height="2.93"/><rect class="cls-4" x="242.57" y="106.2" width="11.49" height="2.93"/><rect class="cls-4" x="242.57" y="90.17" width="5.06" height="18.96"/><rect class="cls-4" x="246.16" y="98.18" width="5.06" height="2.94"/><rect class="cls-4" x="299.89" y="90.17" width="11.48" height="2.93"/><rect class="cls-4" x="299.89" y="106.2" width="11.48" height="2.93"/><rect class="cls-4" x="299.89" y="90.17" width="5.06" height="18.96"/><rect class="cls-4" x="303.48" y="98.18" width="5.06" height="2.94"/><polygon class="cls-4" points="191.9 98.16 190.18 98.16 188.97 90.17 191.9 90.17 191.9 98.16"/><g class="cls-2"><path class="cls-4" d="M233.44,96.62h2.25s.7-6.45-6.83-6.45c-4.94,0-6.33,3.41-6.33,10.24,0,7.08,2.15,9.49,6.59,9.49,6.76,0,6.76-7.32,6.76-7.32l-2.62-.56s.24,5-3,5c-2.28,0-2.28-3.8-2.28-7s-.12-6.83,2.41-6.83,3.06,3.42,3.06,3.42" transform="translate(0 0)"/></g><rect class="cls-4" x="230" y="99.65" width="5.87" height="2.93"/><rect class="cls-4" x="261.68" y="90.17" width="4.86" height="18.96"/><rect class="cls-4" x="270.25" y="90.17" width="2.91" height="18.96"/><polygon class="cls-4" points="264.21 90.17 269.44 109.13 271.64 109.09 266.54 90.17 264.21 90.17"/><rect class="cls-4" x="331.74" y="90.17" width="5.26" height="19.73"/><g class="cls-2"><path class="cls-4" d="M336.14,107.36h2.56c3.57,0,3.6-5.43,3.6-7.44S342.19,93,338.54,93H335.7L337,90.17h2.17c4.15,0,6.15,4.71,6.15,9.45s-1.19,10.28-6.79,10.28h-2.3Z" transform="translate(0 0)"/></g><rect class="cls-4" x="355.28" y="90.17" width="5.26" height="14.23"/><rect class="cls-4" x="366.17" y="90.17" width="3.03" height="14.23"/><g class="cls-2"><path class="cls-4" d="M360.54,101v3.41c0,1.63.74,3.25,2.69,3.25s2.94-1,2.94-3.25v-3.66l3,1.71v2c0,2.12-1.26,5.51-6.58,5.51s-7.34-2.54-7.34-5.51v-3.86Z" transform="translate(0 0)"/></g><rect class="cls-4" x="433.07" y="90.17" width="5.06" height="18.96"/><rect class="cls-4" x="429.35" y="90.17" width="12.5" height="2.89"/><rect class="cls-4" x="448.33" y="90.17" width="5.06" height="13.67"/><rect class="cls-4" x="458.8" y="90.17" width="2.91" height="13.67"/><g class="cls-2"><path class="cls-4" d="M453.39,100.56v3.28c0,1.56.7,3.12,2.58,3.12s2.83-1,2.83-3.12v-3.52l2.91,1.64v1.88c0,2-1.21,5.29-6.33,5.29s-7.05-2.44-7.05-5.29v-3.71Z" transform="translate(0 0)"/></g><rect class="cls-4" x="391.38" y="90.17" width="11.48" height="2.93"/><rect class="cls-4" x="391.38" y="90.17" width="5.06" height="18.96"/><rect class="cls-4" x="394.97" y="98.18" width="5.06" height="2.94"/><rect class="cls-4" x="409.13" y="90.17" width="5.06" height="13.67"/><rect class="cls-4" x="419.6" y="90.17" width="2.91" height="13.67"/><g class="cls-2"><path class="cls-4" d="M414.19,100.56v3.28c0,1.56.7,3.12,2.58,3.12s2.83-1,2.83-3.12v-3.52l2.91,1.64v1.88c0,2-1.21,5.29-6.33,5.29s-7.05-2.44-7.05-5.29v-3.71Z" transform="translate(0 0)"/></g><rect class="cls-4" x="468.54" y="90.17" width="5.06" height="18.96"/><g class="cls-2"><path class="cls-4" d="M472.77,98.7h3.65c1.43,0,2.27-.94,2.27-2.87s-.68-3-3-3h-3.39l1.26-2.7h3.59c2.09,0,4.41,2.2,4.41,5.37s-1.58,5.6-4.63,5.6h-4.1Z" transform="translate(0 0)"/></g><polygon class="cls-4" points="474.98 99.99 478.15 109.13 480.93 109.09 477.9 99.99 474.98 99.99"/><g class="cls-2"><text class="cls-5" transform="translate(500.45 109.9)">?</text><path class="cls-3" d="M145.88,35H150a.41.41,0,0,0,.42-.42V10.92a.41.41,0,0,0-.42-.42h-4.09a.41.41,0,0,0-.42.42V34.58a.41.41,0,0,0,.42.42m-12.36-4a1.93,1.93,0,0,1-1.56-.68,2.7,2.7,0,0,1-.57-1.8V16.94a2.7,2.7,0,0,1,.57-1.8,1.94,1.94,0,0,1,1.56-.69,2,2,0,0,1,1.58.69,2.65,2.65,0,0,1,.59,1.8V28.56a2.65,2.65,0,0,1-.59,1.8,2,2,0,0,1-1.58.68m0,4.24a7.07,7.07,0,0,0,5.16-1.89,6.7,6.7,0,0,0,1.95-5V17.15a6.7,6.7,0,0,0-1.95-5,8,8,0,0,0-10.3,0,6.72,6.72,0,0,0-1.93,5v11.2a6.72,6.72,0,0,0,1.93,5,7,7,0,0,0,5.14,1.89m-18.62,0a6.64,6.64,0,0,0,5-2A7.23,7.23,0,0,0,121.83,28V10.92a.41.41,0,0,0-.42-.42h-4.09a.41.41,0,0,0-.42.42v17.6a2.82,2.82,0,0,1-.55,1.82,1.72,1.72,0,0,1-1.45.7,1.8,1.8,0,0,1-1.47-.7,2.82,2.82,0,0,1-.56-1.82V10.92a.41.41,0,0,0-.42-.42h-4.09a.41.41,0,0,0-.42.42V28a7.27,7.27,0,0,0,1.9,5.27,6.72,6.72,0,0,0,5.06,2M94.39,16.87a2.74,2.74,0,0,1,.53-1.75,1.7,1.7,0,0,1,1.4-.67,1.74,1.74,0,0,1,1.41.67,2.64,2.64,0,0,1,.55,1.75V28.63a2.64,2.64,0,0,1-.55,1.75,1.73,1.73,0,0,1-1.41.66,1.69,1.69,0,0,1-1.4-.66,2.74,2.74,0,0,1-.53-1.75Zm1.93-6.65a7.13,7.13,0,0,0-3.59.89,6.25,6.25,0,0,0-2.42,2.52,8,8,0,0,0-.85,3.76V28.1a7.78,7.78,0,0,0,1.13,4.24,6.16,6.16,0,0,0,3.14,2.52.16.16,0,0,1,.14.17v3a.42.42,0,0,0,.12.3.41.41,0,0,0,.3.12h4.09a.41.41,0,0,0,.3-.12.42.42,0,0,0,.12-.3V35a.16.16,0,0,1,.14-.17,6.09,6.09,0,0,0,3.13-2.52,7.7,7.7,0,0,0,1.14-4.24V17.39a7.2,7.2,0,0,0-1.89-5.19,6.6,6.6,0,0,0-5-2m-20.51.28H62a.41.41,0,0,0-.42.42v3.39a.41.41,0,0,0,.42.42h4.2c.11,0,.17.06.17.18V34.58a.38.38,0,0,0,.13.3.4.4,0,0,0,.29.12h4.1a.42.42,0,0,0,.3-.12.41.41,0,0,0,.12-.3V14.91c0-.12.06-.18.17-.18h4.38a.44.44,0,0,0,.3-.12.41.41,0,0,0,.12-.3V10.92a.41.41,0,0,0-.12-.3.44.44,0,0,0-.3-.12M51.1,35.28a6.88,6.88,0,0,0,5-1.82A6.49,6.49,0,0,0,58,28.56a6.45,6.45,0,0,0-.61-2.89,7.57,7.57,0,0,0-1.72-2.2q-1.1-1-3.27-2.61a16.09,16.09,0,0,1-2.63-2.24,2.86,2.86,0,0,1-.66-1.86,2.51,2.51,0,0,1,.52-1.69A1.72,1.72,0,0,1,51,14.45a1.79,1.79,0,0,1,1.42.65,2.61,2.61,0,0,1,.54,1.73v1a.41.41,0,0,0,.42.42h4a.41.41,0,0,0,.42-.42v-.84a6.55,6.55,0,0,0-1.87-4.87A6.76,6.76,0,0,0,51,10.22,6.77,6.77,0,0,0,46.06,12a6.3,6.3,0,0,0-1.86,4.76A7,7,0,0,0,45,20.09a8.75,8.75,0,0,0,1.86,2.41,32.64,32.64,0,0,0,2.83,2.24A20.05,20.05,0,0,1,52.39,27a2.53,2.53,0,0,1,.7,1.8,2.33,2.33,0,0,1-.56,1.64,1.79,1.79,0,0,1-1.4.63,1.77,1.77,0,0,1-1.4-.66,2.64,2.64,0,0,1-.56-1.75v-.77a.41.41,0,0,0-.42-.42h-4a.41.41,0,0,0-.42.42v1a6.59,6.59,0,0,0,.84,3.35,5.68,5.68,0,0,0,2.38,2.25,7.55,7.55,0,0,0,3.57.81m-10.89-21V10.92a.41.41,0,0,0-.42-.42h-12a.41.41,0,0,0-.42.42V34.58a.41.41,0,0,0,.42.42h12a.41.41,0,0,0,.42-.42v-3.4a.4.4,0,0,0-.12-.29.42.42,0,0,0-.3-.13H32.48c-.12,0-.18-.05-.18-.17V25c0-.11.06-.17.18-.17h4.2a.41.41,0,0,0,.42-.42V21a.4.4,0,0,0-.12-.29.42.42,0,0,0-.3-.13h-4.2c-.12,0-.18-.05-.18-.17V14.91a.16.16,0,0,1,.18-.18h7.31a.41.41,0,0,0,.42-.42m-17-3.81H19.15a.42.42,0,0,0-.46.38L17.25,18c-.07.31.05.46.35.46h3.08a.44.44,0,0,0,.46-.35L23.56,11a.49.49,0,0,0,0-.37.35.35,0,0,0-.3-.12M7,35.28A7,7,0,0,0,12,33.41a6.72,6.72,0,0,0,1.93-5V28a.45.45,0,0,0-.42-.42l-4.1-.17a.41.41,0,0,0-.42.42v.94a2.34,2.34,0,0,1-.56,1.63A1.93,1.93,0,0,1,7,31a1.92,1.92,0,0,1-1.48-.61,2.34,2.34,0,0,1-.56-1.63V16.73a2.41,2.41,0,0,1,.56-1.65A1.9,1.9,0,0,1,7,14.45a1.91,1.91,0,0,1,1.5.63A2.41,2.41,0,0,1,9,16.73v.91c0,.26.14.38.42.38l4.1-.17a.4.4,0,0,0,.29-.12.42.42,0,0,0,.13-.3V17a6.64,6.64,0,0,0-1.91-5A7,7,0,0,0,7,10.22a7,7,0,0,0-5.06,1.85A6.64,6.64,0,0,0,0,17V28.38a6.75,6.75,0,0,0,1.91,5A6.9,6.9,0,0,0,7,35.28" transform="translate(0 0)"/></g></g></g></g></g></svg>